SplineFontDB: 3.0
FontName: Pragati-Bold
FullName: Pragati Bold
FamilyName: Pragati
Weight: Bold
Copyright: Copyright (c) 2012-2015, Omnibus-Type (www.omnibus-type.com omnibus.type@gmail.com)
Version: 1.005
ItalicAngle: 0
UnderlinePosition: -50
UnderlineWidth: 50
Ascent: 800
Descent: 200
InvalidEm: 0
sfntRevision: 0x00010147
LayerCount: 2
Layer: 0 1 "Back" 1
Layer: 1 1 "Fore" 0
XUID: [1021 505 -982332716 15176846]
FSType: 0
OS2Version: 3
OS2_WeightWidthSlopeOnly: 0
OS2_UseTypoMetrics: 1
CreationTime: 1422350126
ModificationTime: 1422351990
PfmFamily: 17
TTFWeight: 700
TTFWidth: 5
LineGap: 0
VLineGap: 0
Panose: 2 11 8 6 2 2 2 2 11 4
OS2TypoAscent: 733
OS2TypoAOffset: 0
OS2TypoDescent: -267
OS2TypoDOffset: 0
OS2TypoLinegap: 0
OS2WinAscent: 733
OS2WinAOffset: 0
OS2WinDescent: 267
OS2WinDOffset: 0
HheadAscent: 733
HheadAOffset: 0
HheadDescent: -267
HheadDOffset: 0
OS2SubXSize: 428
OS2SubYSize: 395
OS2SubXOff: 0
OS2SubYOff: 49
OS2SupXSize: 428
OS2SupYSize: 395
OS2SupXOff: 0
OS2SupYOff: 230
OS2StrikeYSize: 50
OS2StrikeYPos: 183
OS2CapHeight: 0
OS2XHeight: 0
OS2Vendor: 'OMNI'
OS2CodePages: 20000093.00000000
OS2UnicodeRanges: 00008007.00000000.00000000.00000000
Lookup: 1 0 0 "'aalt' Access All Alternates lookup 0" { "'aalt' Access All Alternates lookup 0 subtable"  } ['aalt' ('DFLT' <'dflt' > 'dev2' <'MAR ' 'NEP ' 'dflt' > 'deva' <'MAR ' 'NEP ' 'dflt' > 'grek' <'dflt' > 'latn' <'CAT ' 'MOL ' 'ROM ' 'dflt' > ) ]
Lookup: 3 0 0 "'aalt' Access All Alternates lookup 1" { "'aalt' Access All Alternates lookup 1 subtable"  } ['aalt' ('DFLT' <'dflt' > 'dev2' <'MAR ' 'NEP ' 'dflt' > 'deva' <'MAR ' 'NEP ' 'dflt' > 'grek' <'dflt' > 'latn' <'CAT ' 'MOL ' 'ROM ' 'dflt' > ) ]
Lookup: 4 0 0 "Ligature Substitution lookup 2" { "Ligature Substitution lookup 2 subtable"  } []
Lookup: 4 0 0 "Ligature Substitution lookup 3" { "Ligature Substitution lookup 3 subtable"  } []

StartChar: .notdef
Encoding: 65536 -1 0
Width: 291
VWidth: 659
Flags: W
LayerCount: 2
Back
Fore
SplineSet
0 408 m 1,0,-1
 291 408 l 1,1,-1
 291 0 l 1,2,-1
 0 0 l 1,3,-1
 0 408 l 1,0,-1
244 379 m 1,4,-1
 47 379 l 1,5,-1
 146 230 l 1,6,-1
 244 379 l 1,4,-1
29 353 m 1,7,-1
 29 55 l 1,8,-1
 128 204 l 1,9,-1
 29 353 l 1,7,-1
262 353 m 1,10,-1
 163 204 l 1,11,-1
 262 55 l 1,12,-1
 262 353 l 1,10,-1
146 178 m 1,13,-1
 47 29 l 1,14,-1
 244 29 l 1,15,-1
 146 178 l 1,13,-1
EndSplineSet
Validated: 1
EndChar

StartChar: A
Encoding: 65 65 4
Width: 345
VWidth: 659
GlyphClass: 2
Flags: W
AnchorPoint: "Anchor-1" 0 0 basechar 0
AnchorPoint: "Anchor-0" 173 399 basechar 0
LayerCount: 2
Back
Fore
SplineSet
268 0 m 1,0,-1
 244 78 l 1,1,-1
 96 78 l 1,2,-1
 72 0 l 1,3,-1
 0 0 l 1,4,-1
 129 399 l 1,5,-1
 215 399 l 1,6,-1
 344 0 l 1,7,-1
 268 0 l 1,0,-1
165 311 m 128,-1,9
 162 295 162 295 158 279 c 2,10,-1
 117 145 l 1,11,-1
 223 145 l 1,12,-1
 183 279 l 2,13,14
 178 296 178 296 175 311.5 c 128,-1,15
 172 327 172 327 171 333 c 1,16,-1
 169 333 l 1,17,8
 168 327 168 327 165 311 c 128,-1,9
EndSplineSet
Validated: 1
Substitution2: "Single Substitution lookup 42 subtable" ordfeminine
Substitution2: "'aalt' Access All Alternates lookup 0 subtable" ordfeminine
Position2: "'cpsp' Capital Spacing lookup 0 subtable" dx=5 dy=0 dh=10 dv=0
EndChar

StartChar: Aacute
Encoding: 193 193 5
Width: 345
VWidth: 659
GlyphClass: 2
Flags: W
LayerCount: 2
Back
Fore
SplineSet
190 438 m 1,0,-1
 132 438 l 1,1,-1
 183 515 l 1,2,-1
 252 515 l 1,3,-1
 253 513 l 1,4,-1
 190 438 l 1,0,-1
268 0 m 1,5,-1
 244 78 l 1,6,-1
 96 78 l 1,7,-1
 72 0 l 1,8,-1
 0 0 l 1,9,-1
 129 399 l 1,10,-1
 215 399 l 1,11,-1
 344 0 l 1,12,-1
 268 0 l 1,5,-1
165 311 m 128,-1,14
 162 295 162 295 158 279 c 2,15,-1
 117 145 l 1,16,-1
 223 145 l 1,17,-1
 183 279 l 2,18,19
 178 296 178 296 175 311.5 c 128,-1,20
 172 327 172 327 171 333 c 1,21,-1
 169 333 l 1,22,13
 168 327 168 327 165 311 c 128,-1,14
EndSplineSet
Validated: 1
Position2: "'cpsp' Capital Spacing lookup 0 subtable" dx=5 dy=0 dh=10 dv=0
EndChar

StartChar: Abreve
Encoding: 258 258 6
Width: 345
VWidth: 659
GlyphClass: 2
Flags: W
LayerCount: 2
Back
Fore
SplineSet
228 471.5 m 128,-1,1
 206 452 206 452 172 452 c 256,2,3
 138 452 138 452 116.5 471.5 c 128,-1,4
 95 491 95 491 95 515 c 1,5,-1
 138 515 l 1,6,7
 140 508 140 508 149.5 501.5 c 128,-1,8
 159 495 159 495 172 495 c 0,9,10
 186 495 186 495 196 501.5 c 128,-1,11
 206 508 206 508 207 515 c 1,12,-1
 250 515 l 1,13,0
 250 491 250 491 228 471.5 c 128,-1,1
268 0 m 1,14,-1
 244 78 l 1,15,-1
 96 78 l 1,16,-1
 72 0 l 1,17,-1
 0 0 l 1,18,-1
 129 399 l 1,19,-1
 215 399 l 1,20,-1
 344 0 l 1,21,-1
 268 0 l 1,14,-1
165 311 m 128,-1,23
 162 295 162 295 158 279 c 2,24,-1
 117 145 l 1,25,-1
 223 145 l 1,26,-1
 183 279 l 2,27,28
 178 296 178 296 175 311.5 c 128,-1,29
 172 327 172 327 171 333 c 1,30,-1
 169 333 l 1,31,22
 168 327 168 327 165 311 c 128,-1,23
EndSplineSet
Validated: 1
Position2: "'cpsp' Capital Spacing lookup 0 subtable" dx=5 dy=0 dh=10 dv=0
EndChar

StartChar: Acircumflex
Encoding: 194 194 7
Width: 345
VWidth: 659
GlyphClass: 2
Flags: W
LayerCount: 2
Back
Fore
SplineSet
198 436 m 1,0,-1
 173 476 l 1,1,-1
 146 436 l 1,2,-1
 94 436 l 1,3,-1
 144 515 l 1,4,-1
 202 515 l 1,5,-1
 251 436 l 1,6,-1
 198 436 l 1,0,-1
268 0 m 1,7,-1
 244 78 l 1,8,-1
 96 78 l 1,9,-1
 72 0 l 1,10,-1
 0 0 l 1,11,-1
 129 399 l 1,12,-1
 215 399 l 1,13,-1
 344 0 l 1,14,-1
 268 0 l 1,7,-1
165 311 m 128,-1,16
 162 295 162 295 158 279 c 2,17,-1
 117 145 l 1,18,-1
 223 145 l 1,19,-1
 183 279 l 2,20,21
 178 296 178 296 175 311.5 c 128,-1,22
 172 327 172 327 171 333 c 1,23,-1
 169 333 l 1,24,15
 168 327 168 327 165 311 c 128,-1,16
EndSplineSet
Validated: 1
Position2: "'cpsp' Capital Spacing lookup 0 subtable" dx=5 dy=0 dh=10 dv=0
EndChar

StartChar: Adieresis
Encoding: 196 196 8
Width: 345
VWidth: 659
GlyphClass: 2
Flags: W
LayerCount: 2
Back
Fore
SplineSet
93 451 m 1,0,-1
 93 515 l 1,1,-1
 151 515 l 1,2,-1
 151 451 l 1,3,-1
 93 451 l 1,0,-1
194 451 m 1,4,-1
 194 515 l 1,5,-1
 253 515 l 1,6,-1
 253 451 l 1,7,-1
 194 451 l 1,4,-1
268 0 m 1,8,-1
 244 78 l 1,9,-1
 96 78 l 1,10,-1
 72 0 l 1,11,-1
 0 0 l 1,12,-1
 129 399 l 1,13,-1
 215 399 l 1,14,-1
 344 0 l 1,15,-1
 268 0 l 1,8,-1
165 311 m 128,-1,17
 162 295 162 295 158 279 c 2,18,-1
 117 145 l 1,19,-1
 223 145 l 1,20,-1
 183 279 l 2,21,22
 178 296 178 296 175 311.5 c 128,-1,23
 172 327 172 327 171 333 c 1,24,-1
 169 333 l 1,25,16
 168 327 168 327 165 311 c 128,-1,17
EndSplineSet
Validated: 1
Position2: "'cpsp' Capital Spacing lookup 0 subtable" dx=5 dy=0 dh=10 dv=0
EndChar

StartChar: Agrave
Encoding: 192 192 9
Width: 345
VWidth: 659
GlyphClass: 2
Flags: W
LayerCount: 2
Back
Fore
SplineSet
155 438 m 1,0,-1
 92 513 l 1,1,-1
 93 515 l 1,2,-1
 163 515 l 1,3,-1
 213 438 l 1,4,-1
 155 438 l 1,0,-1
268 0 m 1,5,-1
 244 78 l 1,6,-1
 96 78 l 1,7,-1
 72 0 l 1,8,-1
 0 0 l 1,9,-1
 129 399 l 1,10,-1
 215 399 l 1,11,-1
 344 0 l 1,12,-1
 268 0 l 1,5,-1
165 311 m 128,-1,14
 162 295 162 295 158 279 c 2,15,-1
 117 145 l 1,16,-1
 223 145 l 1,17,-1
 183 279 l 2,18,19
 178 296 178 296 175 311.5 c 128,-1,20
 172 327 172 327 171 333 c 1,21,-1
 169 333 l 1,22,13
 168 327 168 327 165 311 c 128,-1,14
EndSplineSet
Validated: 1
Position2: "'cpsp' Capital Spacing lookup 0 subtable" dx=5 dy=0 dh=10 dv=0
EndChar

StartChar: Amacron
Encoding: 256 256 10
Width: 345
VWidth: 659
GlyphClass: 2
Flags: W
LayerCount: 2
Back
Fore
SplineSet
98 442 m 1,0,-1
 98 493 l 1,1,-1
 247 493 l 1,2,-1
 247 442 l 1,3,-1
 98 442 l 1,0,-1
268 0 m 1,4,-1
 244 78 l 1,5,-1
 96 78 l 1,6,-1
 72 0 l 1,7,-1
 0 0 l 1,8,-1
 129 399 l 1,9,-1
 215 399 l 1,10,-1
 344 0 l 1,11,-1
 268 0 l 1,4,-1
165 311 m 128,-1,13
 162 295 162 295 158 279 c 2,14,-1
 117 145 l 1,15,-1
 223 145 l 1,16,-1
 183 279 l 2,17,18
 178 296 178 296 175 311.5 c 128,-1,19
 172 327 172 327 171 333 c 1,20,-1
 169 333 l 1,21,12
 168 327 168 327 165 311 c 128,-1,13
EndSplineSet
Validated: 1
Position2: "'cpsp' Capital Spacing lookup 0 subtable" dx=5 dy=0 dh=10 dv=0
EndChar

StartChar: Aogonek
Encoding: 260 260 11
Width: 345
VWidth: 659
GlyphClass: 2
Flags: W
LayerCount: 2
Back
Fore
SplineSet
366 -71 m 1,0,-1
 366 -103 l 1,1,2
 345 -111 345 -111 328 -111 c 0,3,4
 304 -111 304 -111 287 -98.5 c 128,-1,5
 270 -86 270 -86 270 -58 c 0,6,7
 270 -41 270 -41 276 -29 c 128,-1,8
 282 -17 282 -17 293 -4 c 2,9,-1
 296 0 l 1,10,-1
 268 0 l 1,11,-1
 244 78 l 1,12,-1
 96 78 l 1,13,-1
 72 0 l 1,14,-1
 0 0 l 1,15,-1
 129 399 l 1,16,-1
 215 399 l 1,17,-1
 344 0 l 1,18,19
 327 -17 327 -17 327 -41 c 0,20,21
 327 -54 327 -54 333.5 -62.5 c 128,-1,22
 340 -71 340 -71 353 -71 c 2,23,-1
 366 -71 l 1,0,-1
223 145 m 1,24,-1
 183 279 l 2,25,26
 178 296 178 296 175 311.5 c 128,-1,27
 172 327 172 327 171 333 c 1,28,-1
 169 333 l 1,29,30
 168 327 168 327 165 311 c 128,-1,31
 162 295 162 295 158 279 c 2,32,-1
 117 145 l 1,33,-1
 223 145 l 1,24,-1
EndSplineSet
Validated: 1
Position2: "'cpsp' Capital Spacing lookup 0 subtable" dx=5 dy=0 dh=10 dv=0
EndChar

StartChar: Aring
Encoding: 197 197 12
Width: 345
VWidth: 659
GlyphClass: 2
Flags: W
LayerCount: 2
Back
Fore
SplineSet
212.5 515.5 m 128,-1,1
 229 499 229 499 229 476 c 256,2,3
 229 453 229 453 212.5 436.5 c 128,-1,4
 196 420 196 420 173 420 c 256,5,6
 150 420 150 420 133.5 436 c 128,-1,7
 117 452 117 452 117 476 c 0,8,9
 117 499 117 499 133.5 515.5 c 128,-1,10
 150 532 150 532 173 532 c 256,11,0
 196 532 196 532 212.5 515.5 c 128,-1,1
154 495 m 128,-1,13
 146 487 146 487 146 476 c 256,14,15
 146 465 146 465 154 457 c 128,-1,16
 162 449 162 449 173 449 c 256,17,18
 184 449 184 449 191.5 457 c 128,-1,19
 199 465 199 465 199 476 c 256,20,21
 199 487 199 487 191.5 495 c 128,-1,22
 184 503 184 503 173 503 c 256,23,12
 162 503 162 503 154 495 c 128,-1,13
268 0 m 1,24,-1
 244 78 l 1,25,-1
 96 78 l 1,26,-1
 72 0 l 1,27,-1
 0 0 l 1,28,-1
 129 399 l 1,29,-1
 215 399 l 1,30,-1
 344 0 l 1,31,-1
 268 0 l 1,24,-1
165 311 m 128,-1,33
 162 295 162 295 158 279 c 2,34,-1
 117 145 l 1,35,-1
 223 145 l 1,36,-1
 183 279 l 2,37,38
 178 296 178 296 175 311.5 c 128,-1,39
 172 327 172 327 171 333 c 1,40,-1
 169 333 l 1,41,32
 168 327 168 327 165 311 c 128,-1,33
EndSplineSet
Validated: 1
Position2: "'cpsp' Capital Spacing lookup 0 subtable" dx=5 dy=0 dh=10 dv=0
EndChar

StartChar: Aringacute
Encoding: 506 506 13
Width: 345
VWidth: 659
GlyphClass: 2
Flags: W
LayerCount: 2
Back
Fore
SplineSet
148 494 m 1,0,-1
 188 558 l 1,1,-1
 258 558 l 1,2,-1
 258 556 l 1,3,-1
 205 494 l 1,4,-1
 148 494 l 1,0,-1
212.5 462 m 128,-1,6
 229 446 229 446 229 424 c 0,7,8
 229 409 229 409 218 392 c 1,9,-1
 344 0 l 1,10,-1
 268 0 l 1,11,-1
 244 78 l 1,12,-1
 96 78 l 1,13,-1
 72 0 l 1,14,-1
 0 0 l 1,15,-1
 127 393 l 1,16,17
 117 404 117 404 117 424 c 0,18,19
 117 446 117 446 133.5 462 c 128,-1,20
 150 478 150 478 173 478 c 256,21,5
 196 478 196 478 212.5 462 c 128,-1,6
154 442 m 128,-1,23
 146 435 146 435 146 424 c 256,24,25
 146 413 146 413 154 405.5 c 128,-1,26
 162 398 162 398 173 398 c 256,27,28
 184 398 184 398 191.5 405.5 c 128,-1,29
 199 413 199 413 199 424 c 256,30,31
 199 435 199 435 191.5 442 c 128,-1,32
 184 449 184 449 173 449 c 256,33,22
 162 449 162 449 154 442 c 128,-1,23
165 311 m 128,-1,35
 162 295 162 295 158 279 c 2,36,-1
 117 145 l 1,37,-1
 223 145 l 1,38,-1
 183 279 l 2,39,40
 178 296 178 296 175 311.5 c 128,-1,41
 172 327 172 327 171 333 c 1,42,-1
 169 333 l 1,43,34
 168 327 168 327 165 311 c 128,-1,35
EndSplineSet
Validated: 1
Position2: "'cpsp' Capital Spacing lookup 0 subtable" dx=5 dy=0 dh=10 dv=0
EndChar

StartChar: Atilde
Encoding: 195 195 14
Width: 345
VWidth: 659
GlyphClass: 2
Flags: W
LayerCount: 2
Back
Fore
SplineSet
255.5 465.5 m 128,-1,1
 241 444 241 444 213 444 c 0,2,3
 197 444 197 444 173 455 c 0,4,5
 149 465 149 465 136 465 c 0,6,7
 116 465 116 465 113 444 c 1,8,-1
 74 444 l 1,9,10
 74 471 74 471 89 493 c 128,-1,11
 104 515 104 515 132 515 c 0,12,13
 144 515 144 515 156.5 510 c 128,-1,14
 169 505 169 505 172 504 c 0,15,16
 194 493 194 493 209 493 c 0,17,18
 228 493 228 493 232 515 c 1,19,-1
 270 515 l 1,20,0
 270 487 270 487 255.5 465.5 c 128,-1,1
268 0 m 1,21,-1
 244 78 l 1,22,-1
 96 78 l 1,23,-1
 72 0 l 1,24,-1
 0 0 l 1,25,-1
 129 399 l 1,26,-1
 215 399 l 1,27,-1
 344 0 l 1,28,-1
 268 0 l 1,21,-1
165 311 m 128,-1,30
 162 295 162 295 158 279 c 2,31,-1
 117 145 l 1,32,-1
 223 145 l 1,33,-1
 183 279 l 2,34,35
 178 296 178 296 175 311.5 c 128,-1,36
 172 327 172 327 171 333 c 1,37,-1
 169 333 l 1,38,29
 168 327 168 327 165 311 c 128,-1,30
EndSplineSet
Validated: 1
Position2: "'cpsp' Capital Spacing lookup 0 subtable" dx=5 dy=0 dh=10 dv=0
EndChar

StartChar: AE
Encoding: 198 198 15
Width: 478
VWidth: 659
GlyphClass: 2
Flags: W
AnchorPoint: "Anchor-1" 0 0 basechar 0
AnchorPoint: "Anchor-0" 239 399 basechar 0
LayerCount: 2
Back
Fore
SplineSet
255 333 m 1,0,-1
 279 238 l 1,1,-1
 424 238 l 1,2,-1
 424 171 l 1,3,-1
 295 171 l 1,4,-1
 320 67 l 1,5,-1
 453 67 l 1,6,-1
 453 0 l 1,7,-1
 260 0 l 1,8,-1
 241 78 l 1,9,-1
 94 78 l 1,10,-1
 65 0 l 1,11,-1
 -5 0 l 1,12,-1
 148 399 l 1,13,-1
 449 399 l 1,14,-1
 449 333 l 1,15,-1
 255 333 l 1,0,-1
177 304 m 2,17,-1
 174 297 l 1,18,-1
 118 145 l 1,19,-1
 225 145 l 1,20,-1
 190 297 l 2,21,22
 186 311 186 311 185 318 c 1,23,-1
 183 318 l 2,24,16
 182 316 182 316 177 304 c 2,17,-1
EndSplineSet
Validated: 1
Position2: "'cpsp' Capital Spacing lookup 0 subtable" dx=5 dy=0 dh=10 dv=0
EndChar

StartChar: AEacute
Encoding: 508 508 16
Width: 478
VWidth: 659
GlyphClass: 2
Flags: W
LayerCount: 2
Back
Fore
SplineSet
256 438 m 1,0,-1
 198 438 l 1,1,-1
 248 515 l 1,2,-1
 319 515 l 1,3,-1
 319 513 l 1,4,-1
 256 438 l 1,0,-1
255 333 m 1,5,-1
 279 238 l 1,6,-1
 424 238 l 1,7,-1
 424 171 l 1,8,-1
 295 171 l 1,9,-1
 320 67 l 1,10,-1
 453 67 l 1,11,-1
 453 0 l 1,12,-1
 260 0 l 1,13,-1
 241 78 l 1,14,-1
 94 78 l 1,15,-1
 65 0 l 1,16,-1
 -5 0 l 1,17,-1
 148 399 l 1,18,-1
 449 399 l 1,19,-1
 449 333 l 1,20,-1
 255 333 l 1,5,-1
172 289 m 2,22,-1
 118 145 l 1,23,-1
 225 145 l 1,24,-1
 191 291 l 2,25,26
 189 297 189 297 187 309 c 2,27,-1
 185 318 l 1,28,-1
 183 318 l 1,29,21
 176 302 176 302 172 289 c 2,22,-1
EndSplineSet
Validated: 1
Position2: "'cpsp' Capital Spacing lookup 0 subtable" dx=5 dy=0 dh=10 dv=0
EndChar

StartChar: B
Encoding: 66 66 17
Width: 345
VWidth: 659
GlyphClass: 2
Flags: W
LayerCount: 2
Back
Fore
SplineSet
285.5 371.5 m 128,-1,1
 316 344 316 344 316 301 c 0,2,3
 316 267 316 267 299 243 c 128,-1,4
 282 219 282 219 254 210 c 1,5,-1
 254 208 l 1,6,7
 285 198 285 198 305 171 c 128,-1,8
 325 144 325 144 325 107 c 0,9,10
 325 58 325 58 291 29 c 128,-1,11
 257 0 257 0 207 0 c 2,12,-1
 35 0 l 1,13,-1
 35 399 l 1,14,-1
 207 399 l 2,15,0
 255 399 255 399 285.5 371.5 c 128,-1,1
186 238 m 2,16,17
 212 238 212 238 225.5 252 c 128,-1,18
 239 266 239 266 239 287 c 0,19,20
 239 310 239 310 226 321.5 c 128,-1,21
 213 333 213 333 190 333 c 2,22,-1
 109 333 l 1,23,-1
 109 238 l 1,24,-1
 186 238 l 2,16,17
194 67 m 2,25,26
 218 67 218 67 233 80 c 128,-1,27
 248 93 248 93 248 117 c 0,28,29
 248 142 248 142 233.5 157 c 128,-1,30
 219 172 219 172 191 172 c 2,31,-1
 109 172 l 1,32,-1
 109 67 l 1,33,-1
 194 67 l 2,25,26
EndSplineSet
Validated: 1
Position2: "'cpsp' Capital Spacing lookup 0 subtable" dx=5 dy=0 dh=10 dv=0
EndChar

StartChar: C
Encoding: 67 67 18
Width: 345
VWidth: 659
GlyphClass: 2
Flags: W
AnchorPoint: "Anchor-1" 173 0 basechar 0
AnchorPoint: "Anchor-0" 173 399 basechar 0
LayerCount: 2
Back
Fore
SplineSet
285.5 368 m 128,-1,1
 326 329 326 329 326 251 c 1,2,-1
 249 251 l 1,3,4
 249 296 249 296 230 319.5 c 128,-1,5
 211 343 211 343 179 343 c 0,6,7
 138 343 138 343 117.5 309.5 c 128,-1,8
 97 276 97 276 97 214 c 2,9,-1
 97 185 l 2,10,11
 97 124 97 124 118 90.5 c 128,-1,12
 139 57 139 57 181 57 c 0,13,14
 214 57 214 57 233.5 80 c 128,-1,15
 253 103 253 103 253 148 c 1,16,-1
 326 148 l 1,17,18
 326 72 326 72 286 32.5 c 128,-1,19
 246 -7 246 -7 179 -7 c 0,20,21
 102 -7 102 -7 61 44.5 c 128,-1,22
 20 96 20 96 20 200 c 256,23,24
 20 304 20 304 61 355.5 c 128,-1,25
 102 407 102 407 179 407 c 0,26,0
 245 407 245 407 285.5 368 c 128,-1,1
EndSplineSet
Validated: 1
Position2: "'cpsp' Capital Spacing lookup 0 subtable" dx=5 dy=0 dh=10 dv=0
EndChar

StartChar: Cacute
Encoding: 262 262 19
Width: 345
VWidth: 659
GlyphClass: 2
Flags: W
LayerCount: 2
Back
Fore
SplineSet
196 438 m 1,0,-1
 138 438 l 1,1,-1
 188 515 l 1,2,-1
 258 515 l 1,3,-1
 259 513 l 1,4,-1
 196 438 l 1,0,-1
285.5 368 m 128,-1,6
 326 329 326 329 326 251 c 1,7,-1
 249 251 l 1,8,9
 249 296 249 296 230 319.5 c 128,-1,10
 211 343 211 343 179 343 c 0,11,12
 138 343 138 343 117.5 309.5 c 128,-1,13
 97 276 97 276 97 214 c 2,14,-1
 97 185 l 2,15,16
 97 124 97 124 118 90.5 c 128,-1,17
 139 57 139 57 181 57 c 0,18,19
 214 57 214 57 233.5 80 c 128,-1,20
 253 103 253 103 253 148 c 1,21,-1
 326 148 l 1,22,23
 326 72 326 72 286 32.5 c 128,-1,24
 246 -7 246 -7 179 -7 c 0,25,26
 102 -7 102 -7 61 44.5 c 128,-1,27
 20 96 20 96 20 200 c 256,28,29
 20 304 20 304 61 355.5 c 128,-1,30
 102 407 102 407 179 407 c 0,31,5
 245 407 245 407 285.5 368 c 128,-1,6
EndSplineSet
Validated: 1
Position2: "'cpsp' Capital Spacing lookup 0 subtable" dx=5 dy=0 dh=10 dv=0
EndChar

StartChar: Ccaron
Encoding: 268 268 20
Width: 345
VWidth: 659
GlyphClass: 2
Flags: W
LayerCount: 2
Back
Fore
SplineSet
100 515 m 1,0,-1
 153 515 l 1,1,-1
 179 474 l 1,2,-1
 205 515 l 1,3,-1
 257 515 l 1,4,-1
 208 436 l 1,5,-1
 150 436 l 1,6,-1
 100 515 l 1,0,-1
285.5 368 m 128,-1,8
 326 329 326 329 326 251 c 1,9,-1
 249 251 l 1,10,11
 249 296 249 296 230 319.5 c 128,-1,12
 211 343 211 343 179 343 c 0,13,14
 138 343 138 343 117.5 309.5 c 128,-1,15
 97 276 97 276 97 214 c 2,16,-1
 97 185 l 2,17,18
 97 124 97 124 118 90.5 c 128,-1,19
 139 57 139 57 181 57 c 0,20,21
 214 57 214 57 233.5 80 c 128,-1,22
 253 103 253 103 253 148 c 1,23,-1
 326 148 l 1,24,25
 326 72 326 72 286 32.5 c 128,-1,26
 246 -7 246 -7 179 -7 c 0,27,28
 102 -7 102 -7 61 44.5 c 128,-1,29
 20 96 20 96 20 200 c 256,30,31
 20 304 20 304 61 355.5 c 128,-1,32
 102 407 102 407 179 407 c 0,33,7
 245 407 245 407 285.5 368 c 128,-1,8
EndSplineSet
Validated: 1
Position2: "'cpsp' Capital Spacing lookup 0 subtable" dx=5 dy=0 dh=10 dv=0
EndChar

StartChar: Ccedilla
Encoding: 199 199 21
Width: 345
VWidth: 659
GlyphClass: 2
Flags: W
LayerCount: 2
Back
Fore
SplineSet
285.5 368 m 128,-1,1
 326 329 326 329 326 251 c 1,2,-1
 249 251 l 1,3,4
 249 296 249 296 230 319.5 c 128,-1,5
 211 343 211 343 179 343 c 0,6,7
 138 343 138 343 117.5 309.5 c 128,-1,8
 97 276 97 276 97 214 c 2,9,-1
 97 185 l 2,10,11
 97 124 97 124 118 90.5 c 128,-1,12
 139 57 139 57 181 57 c 0,13,14
 214 57 214 57 233.5 80 c 128,-1,15
 253 103 253 103 253 148 c 1,16,-1
 326 148 l 1,17,18
 326 76 326 76 289.5 37 c 128,-1,19
 253 -2 253 -2 192 -7 c 1,20,-1
 191 -19 l 1,21,22
 212 -21 212 -21 224.5 -30.5 c 128,-1,23
 237 -40 237 -40 237 -59 c 0,24,25
 237 -85 237 -85 217.5 -95.5 c 128,-1,26
 198 -106 198 -106 173 -106 c 0,27,28
 147 -106 147 -106 125 -101 c 1,29,-1
 125 -73 l 1,30,-1
 166 -73 l 2,31,32
 187 -73 187 -73 187 -59 c 0,33,34
 187 -51 187 -51 183 -48 c 128,-1,35
 179 -45 179 -45 167 -45 c 2,36,-1
 148 -45 l 1,37,-1
 153 -5 l 1,38,39
 88 3 88 3 54 54 c 128,-1,40
 20 105 20 105 20 200 c 0,41,42
 20 304 20 304 61 355.5 c 128,-1,43
 102 407 102 407 179 407 c 0,44,0
 245 407 245 407 285.5 368 c 128,-1,1
EndSplineSet
Validated: 1
Position2: "'cpsp' Capital Spacing lookup 0 subtable" dx=5 dy=0 dh=10 dv=0
EndChar

StartChar: Ccircumflex
Encoding: 264 264 22
Width: 345
VWidth: 659
GlyphClass: 2
Flags: W
LayerCount: 2
Back
Fore
SplineSet
179 476 m 1,0,-1
 153 436 l 1,1,-1
 100 436 l 1,2,-1
 150 515 l 1,3,-1
 208 515 l 1,4,-1
 257 436 l 1,5,-1
 205 436 l 1,6,-1
 179 476 l 1,0,-1
285.5 368 m 128,-1,8
 326 329 326 329 326 251 c 1,9,-1
 249 251 l 1,10,11
 249 296 249 296 230 319.5 c 128,-1,12
 211 343 211 343 179 343 c 0,13,14
 138 343 138 343 117.5 309.5 c 128,-1,15
 97 276 97 276 97 214 c 2,16,-1
 97 185 l 2,17,18
 97 124 97 124 118 90.5 c 128,-1,19
 139 57 139 57 181 57 c 0,20,21
 214 57 214 57 233.5 80 c 128,-1,22
 253 103 253 103 253 148 c 1,23,-1
 326 148 l 1,24,25
 326 72 326 72 286 32.5 c 128,-1,26
 246 -7 246 -7 179 -7 c 0,27,28
 102 -7 102 -7 61 44.5 c 128,-1,29
 20 96 20 96 20 200 c 256,30,31
 20 304 20 304 61 355.5 c 128,-1,32
 102 407 102 407 179 407 c 0,33,7
 245 407 245 407 285.5 368 c 128,-1,8
EndSplineSet
Validated: 1
Position2: "'cpsp' Capital Spacing lookup 0 subtable" dx=5 dy=0 dh=10 dv=0
EndChar

StartChar: Cdotaccent
Encoding: 266 266 23
Width: 345
VWidth: 659
GlyphClass: 2
Flags: W
LayerCount: 2
Back
Fore
SplineSet
148 515 m 1,0,-1
 210 515 l 1,1,-1
 210 447 l 1,2,-1
 148 447 l 1,3,-1
 148 515 l 1,0,-1
285.5 368 m 128,-1,5
 326 329 326 329 326 251 c 1,6,-1
 249 251 l 1,7,8
 249 296 249 296 230 319.5 c 128,-1,9
 211 343 211 343 179 343 c 0,10,11
 138 343 138 343 117.5 309.5 c 128,-1,12
 97 276 97 276 97 214 c 2,13,-1
 97 185 l 2,14,15
 97 124 97 124 118 90.5 c 128,-1,16
 139 57 139 57 181 57 c 0,17,18
 214 57 214 57 233.5 80 c 128,-1,19
 253 103 253 103 253 148 c 1,20,-1
 326 148 l 1,21,22
 326 72 326 72 286 32.5 c 128,-1,23
 246 -7 246 -7 179 -7 c 0,24,25
 102 -7 102 -7 61 44.5 c 128,-1,26
 20 96 20 96 20 200 c 256,27,28
 20 304 20 304 61 355.5 c 128,-1,29
 102 407 102 407 179 407 c 0,30,4
 245 407 245 407 285.5 368 c 128,-1,5
EndSplineSet
Validated: 1
Position2: "'cpsp' Capital Spacing lookup 0 subtable" dx=5 dy=0 dh=10 dv=0
EndChar

StartChar: D
Encoding: 68 68 24
Width: 345
VWidth: 659
GlyphClass: 2
Flags: W
AnchorPoint: "Anchor-1" 0 0 basechar 0
AnchorPoint: "Anchor-0" 173 399 basechar 0
LayerCount: 2
Back
Fore
SplineSet
165 399 m 2,0,1
 241 399 241 399 283 349.5 c 128,-1,2
 325 300 325 300 325 206 c 0,3,4
 325 105 325 105 283 52.5 c 128,-1,5
 241 0 241 0 165 0 c 2,6,-1
 35 0 l 1,7,-1
 35 399 l 1,8,-1
 165 399 l 2,0,1
158 67 m 2,9,10
 201 67 201 67 224.5 98.5 c 128,-1,11
 248 130 248 130 248 191 c 2,12,-1
 248 220 l 2,13,14
 248 275 248 275 224.5 304 c 128,-1,15
 201 333 201 333 158 333 c 2,16,-1
 109 333 l 1,17,-1
 109 67 l 1,18,-1
 158 67 l 2,9,10
EndSplineSet
Validated: 1
Position2: "'cpsp' Capital Spacing lookup 0 subtable" dx=5 dy=0 dh=10 dv=0
EndChar

StartChar: Eth
Encoding: 208 208 25
Width: 345
VWidth: 659
GlyphClass: 2
Flags: W
LayerCount: 2
Back
Fore
SplineSet
35 399 m 1,0,-1
 165 399 l 2,1,2
 241 399 241 399 283 349.5 c 128,-1,3
 325 300 325 300 325 206 c 0,4,5
 325 105 325 105 283 52.5 c 128,-1,6
 241 0 241 0 165 0 c 2,7,-1
 35 0 l 1,8,-1
 35 182 l 1,9,-1
 6 182 l 1,10,-1
 6 231 l 1,11,-1
 35 231 l 1,12,-1
 35 399 l 1,0,-1
183 231 m 1,13,-1
 183 182 l 1,14,-1
 109 182 l 1,15,-1
 109 67 l 1,16,-1
 158 67 l 2,17,18
 201 67 201 67 224.5 98.5 c 128,-1,19
 248 130 248 130 248 191 c 2,20,-1
 248 220 l 2,21,22
 248 275 248 275 224.5 304 c 128,-1,23
 201 333 201 333 158 333 c 2,24,-1
 109 333 l 1,25,-1
 109 231 l 1,26,-1
 183 231 l 1,13,-1
EndSplineSet
Validated: 1
Position2: "'cpsp' Capital Spacing lookup 0 subtable" dx=5 dy=0 dh=10 dv=0
EndChar

StartChar: Dcaron
Encoding: 270 270 26
Width: 345
VWidth: 659
GlyphClass: 2
Flags: W
LayerCount: 2
Back
Fore
SplineSet
69 515 m 1,0,-1
 122 515 l 1,1,-1
 148 474 l 1,2,-1
 173 515 l 1,3,-1
 226 515 l 1,4,-1
 177 436 l 1,5,-1
 119 436 l 1,6,-1
 69 515 l 1,0,-1
165 399 m 2,7,8
 241 399 241 399 283 349.5 c 128,-1,9
 325 300 325 300 325 206 c 0,10,11
 325 105 325 105 283 52.5 c 128,-1,12
 241 0 241 0 165 0 c 2,13,-1
 35 0 l 1,14,-1
 35 399 l 1,15,-1
 165 399 l 2,7,8
158 67 m 2,16,17
 201 67 201 67 224.5 98.5 c 128,-1,18
 248 130 248 130 248 191 c 2,19,-1
 248 220 l 2,20,21
 248 275 248 275 224.5 304 c 128,-1,22
 201 333 201 333 158 333 c 2,23,-1
 109 333 l 1,24,-1
 109 67 l 1,25,-1
 158 67 l 2,16,17
EndSplineSet
Validated: 1
Position2: "'cpsp' Capital Spacing lookup 0 subtable" dx=5 dy=0 dh=10 dv=0
EndChar

StartChar: Dcroat
Encoding: 272 272 27
Width: 345
VWidth: 659
GlyphClass: 2
Flags: W
LayerCount: 2
Back
Fore
SplineSet
35 399 m 1,0,-1
 165 399 l 2,1,2
 241 399 241 399 283 349.5 c 128,-1,3
 325 300 325 300 325 206 c 0,4,5
 325 105 325 105 283 52.5 c 128,-1,6
 241 0 241 0 165 0 c 2,7,-1
 35 0 l 1,8,-1
 35 182 l 1,9,-1
 6 182 l 1,10,-1
 6 231 l 1,11,-1
 35 231 l 1,12,-1
 35 399 l 1,0,-1
183 231 m 1,13,-1
 183 182 l 1,14,-1
 109 182 l 1,15,-1
 109 67 l 1,16,-1
 158 67 l 2,17,18
 201 67 201 67 224.5 98.5 c 128,-1,19
 248 130 248 130 248 191 c 2,20,-1
 248 220 l 2,21,22
 248 275 248 275 224.5 304 c 128,-1,23
 201 333 201 333 158 333 c 2,24,-1
 109 333 l 1,25,-1
 109 231 l 1,26,-1
 183 231 l 1,13,-1
EndSplineSet
Validated: 1
Position2: "'cpsp' Capital Spacing lookup 0 subtable" dx=5 dy=0 dh=10 dv=0
EndChar

StartChar: E
Encoding: 69 69 28
Width: 319
VWidth: 659
GlyphClass: 2
Flags: W
AnchorPoint: "Anchor-1" 159 0 basechar 0
AnchorPoint: "Anchor-0" 159 399 basechar 0
LayerCount: 2
Back
Fore
SplineSet
289 399 m 1,0,-1
 289 333 l 1,1,-1
 109 333 l 1,2,-1
 109 238 l 1,3,-1
 264 238 l 1,4,-1
 264 171 l 1,5,-1
 109 171 l 1,6,-1
 109 67 l 1,7,-1
 293 67 l 1,8,-1
 293 0 l 1,9,-1
 35 0 l 1,10,-1
 35 399 l 1,11,-1
 289 399 l 1,0,-1
EndSplineSet
Validated: 1
Position2: "'cpsp' Capital Spacing lookup 0 subtable" dx=5 dy=0 dh=10 dv=0
EndChar

StartChar: Eacute
Encoding: 201 201 29
Width: 319
VWidth: 659
GlyphClass: 2
Flags: W
LayerCount: 2
Back
Fore
SplineSet
177 438 m 1,0,-1
 119 438 l 1,1,-1
 169 515 l 1,2,-1
 239 515 l 1,3,-1
 240 513 l 1,4,-1
 177 438 l 1,0,-1
109 333 m 1,5,-1
 109 238 l 1,6,-1
 264 238 l 1,7,-1
 264 171 l 1,8,-1
 109 171 l 1,9,-1
 109 67 l 1,10,-1
 293 67 l 1,11,-1
 293 0 l 1,12,-1
 35 0 l 1,13,-1
 35 399 l 1,14,-1
 289 399 l 1,15,-1
 289 333 l 1,16,-1
 109 333 l 1,5,-1
EndSplineSet
Validated: 1
Position2: "'cpsp' Capital Spacing lookup 0 subtable" dx=5 dy=0 dh=10 dv=0
EndChar

StartChar: Ebreve
Encoding: 276 276 30
Width: 319
VWidth: 659
GlyphClass: 2
Flags: W
LayerCount: 2
Back
Fore
SplineSet
215.5 471.5 m 128,-1,1
 194 452 194 452 159 452 c 0,2,3
 125 452 125 452 103.5 471.5 c 128,-1,4
 82 491 82 491 82 515 c 1,5,-1
 125 515 l 1,6,7
 127 508 127 508 136.5 501.5 c 128,-1,8
 146 495 146 495 159 495 c 0,9,10
 173 495 173 495 183 501.5 c 128,-1,11
 193 508 193 508 194 515 c 1,12,-1
 237 515 l 1,13,0
 237 491 237 491 215.5 471.5 c 128,-1,1
289 399 m 1,14,-1
 289 333 l 1,15,-1
 109 333 l 1,16,-1
 109 238 l 1,17,-1
 264 238 l 1,18,-1
 264 171 l 1,19,-1
 109 171 l 1,20,-1
 109 67 l 1,21,-1
 293 67 l 1,22,-1
 293 0 l 1,23,-1
 35 0 l 1,24,-1
 35 399 l 1,25,-1
 289 399 l 1,14,-1
EndSplineSet
Validated: 1
Position2: "'cpsp' Capital Spacing lookup 0 subtable" dx=5 dy=0 dh=10 dv=0
EndChar

StartChar: Ecaron
Encoding: 282 282 31
Width: 319
VWidth: 659
GlyphClass: 2
Flags: W
LayerCount: 2
Back
Fore
SplineSet
81 515 m 1,0,-1
 133 515 l 1,1,-1
 159 474 l 1,2,-1
 185 515 l 1,3,-1
 238 515 l 1,4,-1
 188 436 l 1,5,-1
 131 436 l 1,6,-1
 81 515 l 1,0,-1
289 399 m 1,7,-1
 289 333 l 1,8,-1
 109 333 l 1,9,-1
 109 238 l 1,10,-1
 264 238 l 1,11,-1
 264 171 l 1,12,-1
 109 171 l 1,13,-1
 109 67 l 1,14,-1
 293 67 l 1,15,-1
 293 0 l 1,16,-1
 35 0 l 1,17,-1
 35 399 l 1,18,-1
 289 399 l 1,7,-1
EndSplineSet
Validated: 1
Position2: "'cpsp' Capital Spacing lookup 0 subtable" dx=5 dy=0 dh=10 dv=0
EndChar

StartChar: Ecircumflex
Encoding: 202 202 32
Width: 319
VWidth: 659
GlyphClass: 2
Flags: W
LayerCount: 2
Back
Fore
SplineSet
159 476 m 1,0,-1
 133 436 l 1,1,-1
 81 436 l 1,2,-1
 131 515 l 1,3,-1
 188 515 l 1,4,-1
 238 436 l 1,5,-1
 185 436 l 1,6,-1
 159 476 l 1,0,-1
289 399 m 1,7,-1
 289 333 l 1,8,-1
 109 333 l 1,9,-1
 109 238 l 1,10,-1
 264 238 l 1,11,-1
 264 171 l 1,12,-1
 109 171 l 1,13,-1
 109 67 l 1,14,-1
 293 67 l 1,15,-1
 293 0 l 1,16,-1
 35 0 l 1,17,-1
 35 399 l 1,18,-1
 289 399 l 1,7,-1
EndSplineSet
Validated: 1
Position2: "'cpsp' Capital Spacing lookup 0 subtable" dx=5 dy=0 dh=10 dv=0
EndChar

StartChar: Edieresis
Encoding: 203 203 33
Width: 319
VWidth: 659
GlyphClass: 2
Flags: W
LayerCount: 2
Back
Fore
SplineSet
79 451 m 1,0,-1
 79 515 l 1,1,-1
 138 515 l 1,2,-1
 138 451 l 1,3,-1
 79 451 l 1,0,-1
181 451 m 1,4,-1
 181 515 l 1,5,-1
 239 515 l 1,6,-1
 239 451 l 1,7,-1
 181 451 l 1,4,-1
109 333 m 1,8,-1
 109 238 l 1,9,-1
 264 238 l 1,10,-1
 264 171 l 1,11,-1
 109 171 l 1,12,-1
 109 67 l 1,13,-1
 293 67 l 1,14,-1
 293 0 l 1,15,-1
 35 0 l 1,16,-1
 35 399 l 1,17,-1
 289 399 l 1,18,-1
 289 333 l 1,19,-1
 109 333 l 1,8,-1
EndSplineSet
Validated: 1
Position2: "'cpsp' Capital Spacing lookup 0 subtable" dx=5 dy=0 dh=10 dv=0
EndChar

StartChar: Edotaccent
Encoding: 278 278 34
Width: 319
VWidth: 659
GlyphClass: 2
Flags: W
LayerCount: 2
Back
Fore
SplineSet
128 515 m 1,0,-1
 190 515 l 1,1,-1
 190 447 l 1,2,-1
 128 447 l 1,3,-1
 128 515 l 1,0,-1
289 399 m 1,4,-1
 289 333 l 1,5,-1
 109 333 l 1,6,-1
 109 238 l 1,7,-1
 264 238 l 1,8,-1
 264 171 l 1,9,-1
 109 171 l 1,10,-1
 109 67 l 1,11,-1
 293 67 l 1,12,-1
 293 0 l 1,13,-1
 35 0 l 1,14,-1
 35 399 l 1,15,-1
 289 399 l 1,4,-1
EndSplineSet
Validated: 1
Position2: "'cpsp' Capital Spacing lookup 0 subtable" dx=5 dy=0 dh=10 dv=0
EndChar

StartChar: Egrave
Encoding: 200 200 35
Width: 319
VWidth: 659
GlyphClass: 2
Flags: W
LayerCount: 2
Back
Fore
SplineSet
142 438 m 1,0,-1
 78 513 l 1,1,-1
 79 515 l 1,2,-1
 149 515 l 1,3,-1
 199 438 l 1,4,-1
 142 438 l 1,0,-1
109 333 m 1,5,-1
 109 238 l 1,6,-1
 264 238 l 1,7,-1
 264 171 l 1,8,-1
 109 171 l 1,9,-1
 109 67 l 1,10,-1
 293 67 l 1,11,-1
 293 0 l 1,12,-1
 35 0 l 1,13,-1
 35 399 l 1,14,-1
 289 399 l 1,15,-1
 289 333 l 1,16,-1
 109 333 l 1,5,-1
EndSplineSet
Validated: 1
Position2: "'cpsp' Capital Spacing lookup 0 subtable" dx=5 dy=0 dh=10 dv=0
EndChar

StartChar: Emacron
Encoding: 274 274 36
Width: 319
VWidth: 659
GlyphClass: 2
Flags: W
LayerCount: 2
Back
Fore
SplineSet
85 493 m 1,0,-1
 233 493 l 1,1,-1
 233 442 l 1,2,-1
 85 442 l 1,3,-1
 85 493 l 1,0,-1
289 399 m 1,4,-1
 289 333 l 1,5,-1
 109 333 l 1,6,-1
 109 238 l 1,7,-1
 264 238 l 1,8,-1
 264 171 l 1,9,-1
 109 171 l 1,10,-1
 109 67 l 1,11,-1
 293 67 l 1,12,-1
 293 0 l 1,13,-1
 35 0 l 1,14,-1
 35 399 l 1,15,-1
 289 399 l 1,4,-1
EndSplineSet
Validated: 1
Position2: "'cpsp' Capital Spacing lookup 0 subtable" dx=5 dy=0 dh=10 dv=0
EndChar

StartChar: Eogonek
Encoding: 280 280 37
Width: 319
VWidth: 659
GlyphClass: 2
Flags: W
LayerCount: 2
Back
Fore
SplineSet
109 238 m 1,0,-1
 264 238 l 1,1,-1
 264 171 l 1,2,-1
 109 171 l 1,3,-1
 109 67 l 1,4,-1
 293 67 l 1,5,-1
 293 0 l 1,6,7
 275 -21 275 -21 275 -41 c 0,8,9
 275 -53 275 -53 282 -62 c 128,-1,10
 289 -71 289 -71 302 -71 c 2,11,-1
 314 -71 l 1,12,-1
 314 -103 l 1,13,14
 293 -111 293 -111 276 -111 c 0,15,16
 252 -111 252 -111 235 -98.5 c 128,-1,17
 218 -86 218 -86 218 -58 c 0,18,19
 218 -26 218 -26 244 0 c 1,20,-1
 35 0 l 1,21,-1
 35 399 l 1,22,-1
 289 399 l 1,23,-1
 289 333 l 1,24,-1
 109 333 l 1,25,-1
 109 238 l 1,0,-1
EndSplineSet
Validated: 1
Position2: "'cpsp' Capital Spacing lookup 0 subtable" dx=5 dy=0 dh=10 dv=0
EndChar

StartChar: F
Encoding: 70 70 38
Width: 292
VWidth: 659
GlyphClass: 2
Flags: W
LayerCount: 2
Back
Fore
SplineSet
270 399 m 1,0,-1
 270 333 l 1,1,-1
 109 333 l 1,2,-1
 109 233 l 1,3,-1
 246 233 l 1,4,-1
 246 166 l 1,5,-1
 109 166 l 1,6,-1
 109 0 l 1,7,-1
 35 0 l 1,8,-1
 35 399 l 1,9,-1
 270 399 l 1,0,-1
EndSplineSet
Validated: 1
Position2: "'cpsp' Capital Spacing lookup 0 subtable" dx=5 dy=0 dh=10 dv=0
EndChar

StartChar: G
Encoding: 71 71 39
Width: 372
VWidth: 659
GlyphClass: 2
Flags: W
AnchorPoint: "Anchor-1" 186 0 basechar 0
AnchorPoint: "Anchor-0" 186 399 basechar 0
LayerCount: 2
Back
Fore
SplineSet
176 217 m 1,0,-1
 342 217 l 1,1,-1
 342 0 l 1,2,-1
 294 0 l 1,3,-1
 281 44 l 1,4,5
 262 19 262 19 234 6 c 128,-1,6
 206 -7 206 -7 174 -7 c 0,7,8
 99 -7 99 -7 59.5 44 c 128,-1,9
 20 95 20 95 20 200 c 0,10,11
 20 304 20 304 63.5 355.5 c 128,-1,12
 107 407 107 407 189 407 c 0,13,14
 253 407 253 407 297.5 367.5 c 128,-1,15
 342 328 342 328 342 260 c 1,16,-1
 266 260 l 1,17,18
 266 299 266 299 243.5 321 c 128,-1,19
 221 343 221 343 187 343 c 0,20,21
 142 343 142 343 119.5 309.5 c 128,-1,22
 97 276 97 276 97 214 c 2,23,-1
 97 185 l 2,24,25
 97 57 97 57 188 57 c 0,26,27
 222 57 222 57 244 83 c 128,-1,28
 266 109 266 109 266 153 c 1,29,-1
 176 153 l 1,30,-1
 176 217 l 1,0,-1
EndSplineSet
Validated: 1
Position2: "'cpsp' Capital Spacing lookup 0 subtable" dx=5 dy=0 dh=10 dv=0
EndChar

StartChar: Gbreve
Encoding: 286 286 40
Width: 372
VWidth: 659
GlyphClass: 2
Flags: W
LayerCount: 2
Back
Fore
SplineSet
130 471.5 m 128,-1,1
 108 491 108 491 108 515 c 1,2,-1
 152 515 l 1,3,4
 153 508 153 508 163 501.5 c 128,-1,5
 173 495 173 495 186 495 c 0,6,7
 200 495 200 495 209.5 501 c 128,-1,8
 219 507 219 507 221 515 c 1,9,-1
 264 515 l 1,10,11
 264 491 264 491 242 471.5 c 128,-1,12
 220 452 220 452 186 452 c 256,13,0
 152 452 152 452 130 471.5 c 128,-1,1
176 217 m 1,14,-1
 342 217 l 1,15,-1
 342 0 l 1,16,-1
 294 0 l 1,17,-1
 281 44 l 1,18,19
 262 19 262 19 234 6 c 128,-1,20
 206 -7 206 -7 174 -7 c 0,21,22
 99 -7 99 -7 59.5 44 c 128,-1,23
 20 95 20 95 20 200 c 0,24,25
 20 304 20 304 63.5 355.5 c 128,-1,26
 107 407 107 407 189 407 c 0,27,28
 253 407 253 407 297.5 367.5 c 128,-1,29
 342 328 342 328 342 260 c 1,30,-1
 266 260 l 1,31,32
 266 299 266 299 243.5 321 c 128,-1,33
 221 343 221 343 187 343 c 0,34,35
 142 343 142 343 119.5 309.5 c 128,-1,36
 97 276 97 276 97 214 c 2,37,-1
 97 185 l 2,38,39
 97 57 97 57 188 57 c 0,40,41
 222 57 222 57 244 83 c 128,-1,42
 266 109 266 109 266 153 c 1,43,-1
 176 153 l 1,44,-1
 176 217 l 1,14,-1
EndSplineSet
Validated: 1
Position2: "'cpsp' Capital Spacing lookup 0 subtable" dx=5 dy=0 dh=10 dv=0
EndChar

StartChar: Gcircumflex
Encoding: 284 284 41
Width: 372
VWidth: 659
GlyphClass: 2
Flags: W
LayerCount: 2
Back
Fore
SplineSet
160 436 m 1,0,-1
 108 436 l 1,1,-1
 158 515 l 1,2,-1
 215 515 l 1,3,-1
 264 436 l 1,4,-1
 212 436 l 1,5,-1
 186 476 l 1,6,-1
 160 436 l 1,0,-1
176 217 m 1,7,-1
 342 217 l 1,8,-1
 342 0 l 1,9,-1
 294 0 l 1,10,-1
 281 44 l 1,11,12
 262 19 262 19 234 6 c 128,-1,13
 206 -7 206 -7 174 -7 c 0,14,15
 99 -7 99 -7 59.5 44 c 128,-1,16
 20 95 20 95 20 200 c 0,17,18
 20 304 20 304 63.5 355.5 c 128,-1,19
 107 407 107 407 189 407 c 0,20,21
 253 407 253 407 297.5 367.5 c 128,-1,22
 342 328 342 328 342 260 c 1,23,-1
 266 260 l 1,24,25
 266 299 266 299 243.5 321 c 128,-1,26
 221 343 221 343 187 343 c 0,27,28
 142 343 142 343 119.5 309.5 c 128,-1,29
 97 276 97 276 97 214 c 2,30,-1
 97 185 l 2,31,32
 97 57 97 57 188 57 c 0,33,34
 222 57 222 57 244 83 c 128,-1,35
 266 109 266 109 266 153 c 1,36,-1
 176 153 l 1,37,-1
 176 217 l 1,7,-1
EndSplineSet
Validated: 1
Position2: "'cpsp' Capital Spacing lookup 0 subtable" dx=5 dy=0 dh=10 dv=0
EndChar

StartChar: Gcommaaccent
Encoding: 290 290 42
Width: 372
VWidth: 659
GlyphClass: 2
Flags: W
LayerCount: 2
Back
Fore
SplineSet
176 217 m 1,0,-1
 342 217 l 1,1,-1
 342 0 l 1,2,-1
 294 0 l 1,3,-1
 281 44 l 1,4,5
 262 19 262 19 234 6 c 128,-1,6
 206 -7 206 -7 174 -7 c 0,7,8
 99 -7 99 -7 59.5 44 c 128,-1,9
 20 95 20 95 20 200 c 0,10,11
 20 304 20 304 63.5 355.5 c 128,-1,12
 107 407 107 407 189 407 c 0,13,14
 253 407 253 407 297.5 367.5 c 128,-1,15
 342 328 342 328 342 260 c 1,16,-1
 266 260 l 1,17,18
 266 299 266 299 243.5 321 c 128,-1,19
 221 343 221 343 187 343 c 0,20,21
 142 343 142 343 119.5 309.5 c 128,-1,22
 97 276 97 276 97 214 c 2,23,-1
 97 185 l 2,24,25
 97 57 97 57 188 57 c 0,26,27
 222 57 222 57 244 83 c 128,-1,28
 266 109 266 109 266 153 c 1,29,-1
 176 153 l 1,30,-1
 176 217 l 1,0,-1
141 -32 m 1,31,-1
 213 -32 l 1,32,-1
 213 -98 l 1,33,-1
 186 -153 l 1,34,-1
 148 -153 l 1,35,-1
 169 -103 l 1,36,-1
 141 -103 l 1,37,-1
 141 -32 l 1,31,-1
EndSplineSet
Validated: 1
Position2: "'cpsp' Capital Spacing lookup 0 subtable" dx=5 dy=0 dh=10 dv=0
EndChar

StartChar: Gdotaccent
Encoding: 288 288 43
Width: 372
VWidth: 659
GlyphClass: 2
Flags: W
LayerCount: 2
Back
Fore
SplineSet
217 447 m 1,0,-1
 155 447 l 1,1,-1
 155 515 l 1,2,-1
 217 515 l 1,3,-1
 217 447 l 1,0,-1
176 217 m 1,4,-1
 342 217 l 1,5,-1
 342 0 l 1,6,-1
 294 0 l 1,7,-1
 281 44 l 1,8,9
 262 19 262 19 234 6 c 128,-1,10
 206 -7 206 -7 174 -7 c 0,11,12
 99 -7 99 -7 59.5 44 c 128,-1,13
 20 95 20 95 20 200 c 0,14,15
 20 304 20 304 63.5 355.5 c 128,-1,16
 107 407 107 407 189 407 c 0,17,18
 253 407 253 407 297.5 367.5 c 128,-1,19
 342 328 342 328 342 260 c 1,20,-1
 266 260 l 1,21,22
 266 299 266 299 243.5 321 c 128,-1,23
 221 343 221 343 187 343 c 0,24,25
 142 343 142 343 119.5 309.5 c 128,-1,26
 97 276 97 276 97 214 c 2,27,-1
 97 185 l 2,28,29
 97 57 97 57 188 57 c 0,30,31
 222 57 222 57 244 83 c 128,-1,32
 266 109 266 109 266 153 c 1,33,-1
 176 153 l 1,34,-1
 176 217 l 1,4,-1
EndSplineSet
Validated: 1
Position2: "'cpsp' Capital Spacing lookup 0 subtable" dx=5 dy=0 dh=10 dv=0
EndChar

StartChar: H
Encoding: 72 72 44
Width: 345
VWidth: 659
GlyphClass: 2
Flags: W
AnchorPoint: "Anchor-1" 0 0 basechar 0
AnchorPoint: "Anchor-0" 173 399 basechar 0
LayerCount: 2
Back
Fore
SplineSet
235 0 m 1,0,-1
 235 171 l 1,1,-1
 109 171 l 1,2,-1
 109 0 l 1,3,-1
 35 0 l 1,4,-1
 35 399 l 1,5,-1
 109 399 l 1,6,-1
 109 238 l 1,7,-1
 235 238 l 1,8,-1
 235 399 l 1,9,-1
 310 399 l 1,10,-1
 310 0 l 1,11,-1
 235 0 l 1,0,-1
EndSplineSet
Validated: 1
Position2: "'cpsp' Capital Spacing lookup 0 subtable" dx=5 dy=0 dh=10 dv=0
EndChar

StartChar: Hbar
Encoding: 294 294 45
Width: 345
VWidth: 659
GlyphClass: 2
Flags: W
LayerCount: 2
Back
Fore
SplineSet
310 0 m 1,0,-1
 235 0 l 1,1,-1
 235 167 l 1,2,-1
 109 167 l 1,3,-1
 109 0 l 1,4,-1
 35 0 l 1,5,-1
 35 285 l 1,6,-1
 6 285 l 1,7,-1
 6 336 l 1,8,-1
 35 336 l 1,9,-1
 35 399 l 1,10,-1
 109 399 l 1,11,-1
 109 336 l 1,12,-1
 235 336 l 1,13,-1
 235 399 l 1,14,-1
 310 399 l 1,15,-1
 310 336 l 1,16,-1
 339 336 l 1,17,-1
 339 285 l 1,18,-1
 310 285 l 1,19,-1
 310 0 l 1,0,-1
109 285 m 1,20,-1
 109 233 l 1,21,-1
 235 233 l 1,22,-1
 235 285 l 1,23,-1
 109 285 l 1,20,-1
EndSplineSet
Validated: 1
Position2: "'cpsp' Capital Spacing lookup 0 subtable" dx=5 dy=0 dh=10 dv=0
EndChar

StartChar: Hcircumflex
Encoding: 292 292 46
Width: 345
VWidth: 659
GlyphClass: 2
Flags: W
LayerCount: 2
Back
Fore
SplineSet
198 436 m 1,0,-1
 173 476 l 1,1,-1
 146 436 l 1,2,-1
 94 436 l 1,3,-1
 144 515 l 1,4,-1
 202 515 l 1,5,-1
 251 436 l 1,6,-1
 198 436 l 1,0,-1
235 0 m 1,7,-1
 235 171 l 1,8,-1
 109 171 l 1,9,-1
 109 0 l 1,10,-1
 35 0 l 1,11,-1
 35 399 l 1,12,-1
 109 399 l 1,13,-1
 109 238 l 1,14,-1
 235 238 l 1,15,-1
 235 399 l 1,16,-1
 310 399 l 1,17,-1
 310 0 l 1,18,-1
 235 0 l 1,7,-1
EndSplineSet
Validated: 1
Position2: "'cpsp' Capital Spacing lookup 0 subtable" dx=5 dy=0 dh=10 dv=0
EndChar

StartChar: I
Encoding: 73 73 47
Width: 133
VWidth: 659
GlyphClass: 2
Flags: W
AnchorPoint: "Anchor-1" 0 0 basechar 0
AnchorPoint: "Anchor-0" 67 399 basechar 0
LayerCount: 2
Back
Fore
SplineSet
29 399 m 1,0,-1
 103 399 l 1,1,-1
 103 0 l 1,2,-1
 29 0 l 1,3,-1
 29 399 l 1,0,-1
EndSplineSet
Validated: 1
Position2: "'cpsp' Capital Spacing lookup 0 subtable" dx=5 dy=0 dh=10 dv=0
EndChar

StartChar: IJ
Encoding: 306 306 48
Width: 399
VWidth: 659
GlyphClass: 2
Flags: W
LayerCount: 2
Back
Fore
SplineSet
29 0 m 1,0,-1
 29 399 l 1,1,-1
 103 399 l 1,2,-1
 103 0 l 1,3,-1
 29 0 l 1,0,-1
335 19 m 128,-1,5
 306 -7 306 -7 251 -7 c 0,6,7
 197 -7 197 -7 167.5 19 c 128,-1,8
 138 45 138 45 138 95 c 2,9,-1
 138 126 l 1,10,-1
 212 126 l 1,11,-1
 212 101 l 2,12,13
 212 57 212 57 251 57 c 0,14,15
 289 57 289 57 289 101 c 2,16,-1
 289 399 l 1,17,-1
 364 399 l 1,18,-1
 364 95 l 2,19,4
 364 45 364 45 335 19 c 128,-1,5
EndSplineSet
Validated: 1
Position2: "'cpsp' Capital Spacing lookup 0 subtable" dx=5 dy=0 dh=10 dv=0
EndChar

StartChar: Iacute
Encoding: 205 205 49
Width: 133
VWidth: 659
GlyphClass: 2
Flags: W
LayerCount: 2
Back
Fore
SplineSet
84 438 m 1,0,-1
 26 438 l 1,1,-1
 76 515 l 1,2,-1
 146 515 l 1,3,-1
 147 513 l 1,4,-1
 84 438 l 1,0,-1
29 0 m 1,5,-1
 29 399 l 1,6,-1
 103 399 l 1,7,-1
 103 0 l 1,8,-1
 29 0 l 1,5,-1
EndSplineSet
Validated: 1
Position2: "'cpsp' Capital Spacing lookup 0 subtable" dx=5 dy=0 dh=10 dv=0
EndChar

StartChar: Ibreve
Encoding: 300 300 50
Width: 133
VWidth: 659
GlyphClass: 2
Flags: W
LayerCount: 2
Back
Fore
SplineSet
122.5 471.5 m 128,-1,1
 101 452 101 452 67 452 c 0,2,3
 32 452 32 452 10 471.5 c 128,-1,4
 -12 491 -12 491 -12 515 c 1,5,-1
 32 515 l 1,6,7
 34 507 34 507 43.5 501 c 128,-1,8
 53 495 53 495 67 495 c 0,9,10
 80 495 80 495 90 501.5 c 128,-1,11
 100 508 100 508 101 515 c 1,12,-1
 144 515 l 1,13,0
 144 491 144 491 122.5 471.5 c 128,-1,1
29 399 m 1,14,-1
 103 399 l 1,15,-1
 103 0 l 1,16,-1
 29 0 l 1,17,-1
 29 399 l 1,14,-1
EndSplineSet
Validated: 1
Position2: "'cpsp' Capital Spacing lookup 0 subtable" dx=5 dy=0 dh=10 dv=0
EndChar

StartChar: Icircumflex
Encoding: 206 206 51
Width: 133
VWidth: 659
GlyphClass: 2
Flags: W
LayerCount: 2
Back
Fore
SplineSet
67 476 m 1,0,-1
 41 436 l 1,1,-1
 -13 436 l 1,2,-1
 38 515 l 1,3,-1
 96 515 l 1,4,-1
 145 436 l 1,5,-1
 93 436 l 1,6,-1
 67 476 l 1,0,-1
29 399 m 1,7,-1
 103 399 l 1,8,-1
 103 0 l 1,9,-1
 29 0 l 1,10,-1
 29 399 l 1,7,-1
EndSplineSet
Validated: 1
Position2: "'cpsp' Capital Spacing lookup 0 subtable" dx=5 dy=0 dh=10 dv=0
EndChar

StartChar: Idieresis
Encoding: 207 207 52
Width: 133
VWidth: 659
GlyphClass: 2
Flags: W
LayerCount: 2
Back
Fore
SplineSet
-13 451 m 1,0,-1
 -13 515 l 1,1,-1
 45 515 l 1,2,-1
 45 451 l 1,3,-1
 -13 451 l 1,0,-1
88 451 m 1,4,-1
 88 515 l 1,5,-1
 147 515 l 1,6,-1
 147 451 l 1,7,-1
 88 451 l 1,4,-1
29 0 m 1,8,-1
 29 399 l 1,9,-1
 103 399 l 1,10,-1
 103 0 l 1,11,-1
 29 0 l 1,8,-1
EndSplineSet
Validated: 1
Position2: "'cpsp' Capital Spacing lookup 0 subtable" dx=5 dy=0 dh=10 dv=0
EndChar

StartChar: Idotaccent
Encoding: 304 304 53
Width: 133
VWidth: 659
GlyphClass: 2
Flags: W
LayerCount: 2
Back
Fore
SplineSet
36 515 m 1,0,-1
 98 515 l 1,1,-1
 98 447 l 1,2,-1
 36 447 l 1,3,-1
 36 515 l 1,0,-1
29 399 m 1,4,-1
 103 399 l 1,5,-1
 103 0 l 1,6,-1
 29 0 l 1,7,-1
 29 399 l 1,4,-1
EndSplineSet
Validated: 1
Position2: "'cpsp' Capital Spacing lookup 0 subtable" dx=5 dy=0 dh=10 dv=0
EndChar

StartChar: Igrave
Encoding: 204 204 54
Width: 133
VWidth: 659
GlyphClass: 2
Flags: W
LayerCount: 2
Back
Fore
SplineSet
49 438 m 1,0,-1
 -14 513 l 1,1,-1
 -13 515 l 1,2,-1
 57 515 l 1,3,-1
 107 438 l 1,4,-1
 49 438 l 1,0,-1
29 0 m 1,5,-1
 29 399 l 1,6,-1
 103 399 l 1,7,-1
 103 0 l 1,8,-1
 29 0 l 1,5,-1
EndSplineSet
Validated: 1
Position2: "'cpsp' Capital Spacing lookup 0 subtable" dx=5 dy=0 dh=10 dv=0
EndChar

StartChar: Imacron
Encoding: 298 298 55
Width: 133
VWidth: 659
GlyphClass: 2
Flags: W
LayerCount: 2
Back
Fore
SplineSet
-8 493 m 1,0,-1
 141 493 l 1,1,-1
 141 442 l 1,2,-1
 -8 442 l 1,3,-1
 -8 493 l 1,0,-1
29 399 m 1,4,-1
 103 399 l 1,5,-1
 103 0 l 1,6,-1
 29 0 l 1,7,-1
 29 399 l 1,4,-1
EndSplineSet
Validated: 1
Position2: "'cpsp' Capital Spacing lookup 0 subtable" dx=5 dy=0 dh=10 dv=0
EndChar

StartChar: Iogonek
Encoding: 302 302 56
Width: 133
VWidth: 659
GlyphClass: 2
Flags: W
LayerCount: 2
Back
Fore
SplineSet
101 -3 m 2,0,1
 86 -26 86 -26 86 -41 c 0,2,3
 86 -54 86 -54 92.5 -62.5 c 128,-1,4
 99 -71 99 -71 113 -71 c 2,5,-1
 125 -71 l 1,6,-1
 125 -103 l 1,7,8
 104 -111 104 -111 87 -111 c 0,9,10
 64 -111 64 -111 46.5 -98 c 128,-1,11
 29 -85 29 -85 29 -58 c 0,12,13
 29 -26 29 -26 55 0 c 1,14,-1
 29 0 l 1,15,-1
 29 399 l 1,16,-1
 103 399 l 1,17,-1
 103 0 l 1,18,-1
 101 -3 l 2,0,1
EndSplineSet
Validated: 1
Position2: "'cpsp' Capital Spacing lookup 0 subtable" dx=5 dy=0 dh=10 dv=0
EndChar

StartChar: Itilde
Encoding: 296 296 57
Width: 133
VWidth: 659
GlyphClass: 2
Flags: W
LayerCount: 2
Back
Fore
SplineSet
150 465.5 m 128,-1,1
 135 444 135 444 107 444 c 0,2,3
 90 444 90 444 68 455 c 0,4,5
 44 465 44 465 30 465 c 0,6,7
 11 465 11 465 7 444 c 1,8,-1
 -32 444 l 1,9,10
 -32 471 -32 471 -17 493 c 128,-1,11
 -2 515 -2 515 26 515 c 0,12,13
 39 515 39 515 51.5 510 c 128,-1,14
 64 505 64 505 67 504 c 0,15,16
 89 493 89 493 103 493 c 0,17,18
 113 493 113 493 118.5 498 c 128,-1,19
 124 503 124 503 126 515 c 1,20,-1
 165 515 l 1,21,0
 165 487 165 487 150 465.5 c 128,-1,1
29 399 m 1,22,-1
 103 399 l 1,23,-1
 103 0 l 1,24,-1
 29 0 l 1,25,-1
 29 399 l 1,22,-1
EndSplineSet
Validated: 1
Position2: "'cpsp' Capital Spacing lookup 0 subtable" dx=5 dy=0 dh=10 dv=0
EndChar

StartChar: J
Encoding: 74 74 58
Width: 266
VWidth: 659
GlyphClass: 2
Flags: W
AnchorPoint: "Anchor-1" 0 0 basechar 0
AnchorPoint: "Anchor-0" 133 399 basechar 0
LayerCount: 2
Back
Fore
SplineSet
201.5 19 m 128,-1,1
 172 -7 172 -7 118 -7 c 256,2,3
 64 -7 64 -7 34.5 19 c 128,-1,4
 5 45 5 45 5 95 c 2,5,-1
 5 126 l 1,6,-1
 79 126 l 1,7,-1
 79 101 l 2,8,9
 79 57 79 57 118 57 c 0,10,11
 156 57 156 57 156 101 c 2,12,-1
 156 399 l 1,13,-1
 231 399 l 1,14,-1
 231 95 l 2,15,0
 231 45 231 45 201.5 19 c 128,-1,1
EndSplineSet
Validated: 1
Position2: "'cpsp' Capital Spacing lookup 0 subtable" dx=5 dy=0 dh=10 dv=0
EndChar

StartChar: Jcircumflex
Encoding: 308 308 59
Width: 266
VWidth: 659
GlyphClass: 2
Flags: W
LayerCount: 2
Back
Fore
SplineSet
227 436 m 1,0,-1
 201 476 l 1,1,-1
 175 436 l 1,2,-1
 123 436 l 1,3,-1
 173 515 l 1,4,-1
 230 515 l 1,5,-1
 279 436 l 1,6,-1
 227 436 l 1,0,-1
201.5 19 m 128,-1,8
 172 -7 172 -7 118 -7 c 256,9,10
 64 -7 64 -7 34.5 19 c 128,-1,11
 5 45 5 45 5 95 c 2,12,-1
 5 126 l 1,13,-1
 79 126 l 1,14,-1
 79 101 l 2,15,16
 79 57 79 57 118 57 c 0,17,18
 156 57 156 57 156 101 c 2,19,-1
 156 399 l 1,20,-1
 231 399 l 1,21,-1
 231 95 l 2,22,7
 231 45 231 45 201.5 19 c 128,-1,8
EndSplineSet
Validated: 1
Position2: "'cpsp' Capital Spacing lookup 0 subtable" dx=5 dy=0 dh=10 dv=0
EndChar

StartChar: K
Encoding: 75 75 60
Width: 345
VWidth: 659
GlyphClass: 2
Flags: W
AnchorPoint: "Anchor-1" 173 0 basechar 0
AnchorPoint: "Anchor-0" 173 399 basechar 0
LayerCount: 2
Back
Fore
SplineSet
339 399 m 1,0,-1
 221 237 l 1,1,-1
 343 0 l 1,2,-1
 259 0 l 1,3,-1
 173 179 l 1,4,-1
 110 102 l 1,5,-1
 110 0 l 1,6,-1
 35 0 l 1,7,-1
 35 399 l 1,8,-1
 110 399 l 1,9,-1
 110 195 l 1,10,-1
 256 399 l 1,11,-1
 339 399 l 1,0,-1
EndSplineSet
Validated: 1
Position2: "'cpsp' Capital Spacing lookup 0 subtable" dx=5 dy=0 dh=10 dv=0
EndChar

StartChar: Kcommaaccent
Encoding: 310 310 61
Width: 345
VWidth: 659
GlyphClass: 2
Flags: W
LayerCount: 2
Back
Fore
SplineSet
339 399 m 1,0,-1
 221 237 l 1,1,-1
 343 0 l 1,2,-1
 259 0 l 1,3,-1
 173 179 l 1,4,-1
 110 102 l 1,5,-1
 110 0 l 1,6,-1
 35 0 l 1,7,-1
 35 399 l 1,8,-1
 110 399 l 1,9,-1
 110 195 l 1,10,-1
 256 399 l 1,11,-1
 339 399 l 1,0,-1
144 -153 m 1,12,-1
 165 -103 l 1,13,-1
 136 -103 l 1,14,-1
 136 -32 l 1,15,-1
 208 -32 l 1,16,-1
 208 -98 l 1,17,-1
 182 -153 l 1,18,-1
 144 -153 l 1,12,-1
EndSplineSet
Validated: 1
Position2: "'cpsp' Capital Spacing lookup 0 subtable" dx=5 dy=0 dh=10 dv=0
EndChar

StartChar: L
Encoding: 76 76 62
Width: 292
VWidth: 659
GlyphClass: 2
Flags: W
AnchorPoint: "Anchor-1" 146 0 basechar 0
AnchorPoint: "Anchor-0" 146 399 basechar 0
LayerCount: 2
Back
Fore
SplineSet
279 70 m 1,0,-1
 279 0 l 1,1,-1
 35 0 l 1,2,-1
 35 399 l 1,3,-1
 109 399 l 1,4,-1
 109 70 l 1,5,-1
 279 70 l 1,0,-1
EndSplineSet
Validated: 1
Position2: "'cpsp' Capital Spacing lookup 0 subtable" dx=5 dy=0 dh=10 dv=0
EndChar

StartChar: Lacute
Encoding: 313 313 63
Width: 292
VWidth: 659
GlyphClass: 2
Flags: W
LayerCount: 2
Back
Fore
SplineSet
92 438 m 1,0,-1
 34 438 l 1,1,-1
 84 515 l 1,2,-1
 154 515 l 1,3,-1
 154 513 l 1,4,-1
 92 438 l 1,0,-1
279 70 m 1,5,-1
 279 0 l 1,6,-1
 35 0 l 1,7,-1
 35 399 l 1,8,-1
 109 399 l 1,9,-1
 109 70 l 1,10,-1
 279 70 l 1,5,-1
EndSplineSet
Validated: 1
Position2: "'cpsp' Capital Spacing lookup 0 subtable" dx=5 dy=0 dh=10 dv=0
EndChar

StartChar: Lcaron
Encoding: 317 317 64
Width: 292
VWidth: 659
GlyphClass: 2
Flags: W
LayerCount: 2
Back
Fore
SplineSet
279 70 m 1,0,-1
 279 0 l 1,1,-1
 35 0 l 1,2,-1
 35 399 l 1,3,-1
 109 399 l 1,4,-1
 109 70 l 1,5,-1
 279 70 l 1,0,-1
240 229 m 1,6,-1
 198 229 l 1,7,-1
 230 320 l 1,8,-1
 198 320 l 1,9,-1
 198 399 l 1,10,-1
 279 399 l 1,11,-1
 279 327 l 1,12,-1
 240 229 l 1,6,-1
EndSplineSet
Validated: 1
Position2: "'cpsp' Capital Spacing lookup 0 subtable" dx=5 dy=0 dh=10 dv=0
EndChar

StartChar: Lcommaaccent
Encoding: 315 315 65
Width: 292
VWidth: 659
GlyphClass: 2
Flags: W
LayerCount: 2
Back
Fore
SplineSet
279 70 m 1,0,-1
 279 0 l 1,1,-1
 35 0 l 1,2,-1
 35 399 l 1,3,-1
 109 399 l 1,4,-1
 109 70 l 1,5,-1
 279 70 l 1,0,-1
156 -153 m 1,6,-1
 118 -153 l 1,7,-1
 138 -103 l 1,8,-1
 110 -103 l 1,9,-1
 110 -32 l 1,10,-1
 182 -32 l 1,11,-1
 182 -98 l 1,12,-1
 156 -153 l 1,6,-1
EndSplineSet
Validated: 1
Position2: "'cpsp' Capital Spacing lookup 0 subtable" dx=5 dy=0 dh=10 dv=0
EndChar

StartChar: Ldot
Encoding: 319 319 66
Width: 292
VWidth: 659
GlyphClass: 2
Flags: W
LayerCount: 2
Back
Fore
SplineSet
279 70 m 1,0,-1
 279 0 l 1,1,-1
 35 0 l 1,2,-1
 35 399 l 1,3,-1
 109 399 l 1,4,-1
 109 70 l 1,5,-1
 279 70 l 1,0,-1
183 239 m 1,6,-1
 183 305 l 1,7,-1
 244 305 l 1,8,-1
 244 239 l 1,9,-1
 183 239 l 1,6,-1
EndSplineSet
Validated: 1
Ligature2: "Ligature Substitution lookup 41 subtable" L periodcentered
Position2: "'cpsp' Capital Spacing lookup 0 subtable" dx=5 dy=0 dh=10 dv=0
EndChar

StartChar: Lslash
Encoding: 321 321 67
Width: 292
VWidth: 659
GlyphClass: 2
Flags: W
LayerCount: 2
Back
Fore
SplineSet
177 320 m 1,0,-1
 177 264 l 1,1,-1
 109 204 l 1,2,-1
 109 70 l 1,3,-1
 279 70 l 1,4,-1
 279 0 l 1,5,-1
 35 0 l 1,6,-1
 35 138 l 1,7,-1
 0 107 l 1,8,-1
 0 163 l 1,9,-1
 35 193 l 1,10,-1
 35 399 l 1,11,-1
 109 399 l 1,12,-1
 109 260 l 1,13,-1
 177 320 l 1,0,-1
EndSplineSet
Validated: 1
Position2: "'cpsp' Capital Spacing lookup 0 subtable" dx=5 dy=0 dh=10 dv=0
EndChar

StartChar: M
Encoding: 77 77 68
Width: 398
VWidth: 659
GlyphClass: 2
Flags: W
LayerCount: 2
Back
Fore
SplineSet
299 0 m 1,0,-1
 299 254 l 2,1,2
 299 272 299 272 300 292 c 128,-1,3
 301 312 301 312 301 319 c 1,4,-1
 299 319 l 1,5,6
 295 303 295 303 294 295 c 2,7,-1
 289 273 l 1,8,-1
 229 0 l 1,9,-1
 164 0 l 1,10,-1
 108 256 l 2,11,12
 98 298 98 298 94 319 c 1,13,-1
 92 319 l 1,14,-1
 94 254 l 1,15,-1
 94 0 l 1,16,-1
 31 0 l 1,17,-1
 31 399 l 1,18,-1
 136 399 l 1,19,-1
 185 179 l 2,20,21
 190 154 190 154 194.5 126.5 c 128,-1,22
 199 99 199 99 201 89 c 1,23,-1
 204 89 l 1,24,25
 205 100 205 100 209.5 132.5 c 128,-1,26
 214 165 214 165 217 179 c 2,27,-1
 266 399 l 1,28,-1
 367 399 l 1,29,-1
 367 0 l 1,30,-1
 299 0 l 1,0,-1
EndSplineSet
Validated: 1
Position2: "'cpsp' Capital Spacing lookup 0 subtable" dx=5 dy=0 dh=10 dv=0
EndChar

StartChar: N
Encoding: 78 78 69
Width: 345
VWidth: 659
GlyphClass: 2
Flags: W
AnchorPoint: "Anchor-1" 173 0 basechar 0
AnchorPoint: "Anchor-0" 173 399 basechar 0
LayerCount: 2
Back
Fore
SplineSet
244 0 m 1,0,-1
 120 220 l 2,1,2
 115 230 115 230 109.5 241.5 c 128,-1,3
 104 253 104 253 102 258 c 1,4,-1
 100 256 l 1,5,-1
 101 223 l 1,6,-1
 101 0 l 1,7,-1
 35 0 l 1,8,-1
 35 399 l 1,9,-1
 101 399 l 1,10,-1
 224 179 l 2,11,12
 228 173 228 173 234.5 159.5 c 128,-1,13
 241 146 241 146 243 142 c 2,14,-1
 244 144 l 1,15,-1
 244 399 l 1,16,-1
 310 399 l 1,17,-1
 310 0 l 1,18,-1
 244 0 l 1,0,-1
EndSplineSet
Validated: 1
Position2: "'cpsp' Capital Spacing lookup 0 subtable" dx=5 dy=0 dh=10 dv=0
EndChar

StartChar: Nacute
Encoding: 323 323 70
Width: 345
VWidth: 659
GlyphClass: 2
Flags: W
LayerCount: 2
Back
Fore
SplineSet
190 438 m 1,0,-1
 132 438 l 1,1,-1
 183 515 l 1,2,-1
 252 515 l 1,3,-1
 253 513 l 1,4,-1
 190 438 l 1,0,-1
244 0 m 1,5,-1
 120 220 l 2,6,7
 115 230 115 230 109.5 241.5 c 128,-1,8
 104 253 104 253 102 258 c 1,9,-1
 100 256 l 1,10,-1
 101 223 l 1,11,-1
 101 0 l 1,12,-1
 35 0 l 1,13,-1
 35 399 l 1,14,-1
 101 399 l 1,15,-1
 224 179 l 2,16,17
 228 173 228 173 234.5 159.5 c 128,-1,18
 241 146 241 146 243 142 c 2,19,-1
 244 144 l 1,20,-1
 244 399 l 1,21,-1
 310 399 l 1,22,-1
 310 0 l 1,23,-1
 244 0 l 1,5,-1
EndSplineSet
Validated: 1
Position2: "'cpsp' Capital Spacing lookup 0 subtable" dx=5 dy=0 dh=10 dv=0
EndChar

StartChar: Ncaron
Encoding: 327 327 71
Width: 345
VWidth: 659
GlyphClass: 2
Flags: W
LayerCount: 2
Back
Fore
SplineSet
144 436 m 1,0,-1
 94 515 l 1,1,-1
 146 515 l 1,2,-1
 173 474 l 1,3,-1
 198 515 l 1,4,-1
 251 515 l 1,5,-1
 202 436 l 1,6,-1
 144 436 l 1,0,-1
244 0 m 1,7,-1
 120 220 l 2,8,9
 115 230 115 230 109.5 241.5 c 128,-1,10
 104 253 104 253 102 258 c 1,11,-1
 100 256 l 1,12,-1
 101 223 l 1,13,-1
 101 0 l 1,14,-1
 35 0 l 1,15,-1
 35 399 l 1,16,-1
 101 399 l 1,17,-1
 224 179 l 2,18,19
 228 173 228 173 234.5 159.5 c 128,-1,20
 241 146 241 146 243 142 c 2,21,-1
 244 144 l 1,22,-1
 244 399 l 1,23,-1
 310 399 l 1,24,-1
 310 0 l 1,25,-1
 244 0 l 1,7,-1
EndSplineSet
Validated: 1
Position2: "'cpsp' Capital Spacing lookup 0 subtable" dx=5 dy=0 dh=10 dv=0
EndChar

StartChar: Ncommaaccent
Encoding: 325 325 72
Width: 345
VWidth: 659
GlyphClass: 2
Flags: W
LayerCount: 2
Back
Fore
SplineSet
244 0 m 1,0,-1
 120 220 l 2,1,2
 115 230 115 230 109.5 241.5 c 128,-1,3
 104 253 104 253 102 258 c 1,4,-1
 100 256 l 1,5,-1
 101 223 l 1,6,-1
 101 0 l 1,7,-1
 35 0 l 1,8,-1
 35 399 l 1,9,-1
 101 399 l 1,10,-1
 224 179 l 2,11,12
 228 173 228 173 234.5 159.5 c 128,-1,13
 241 146 241 146 243 142 c 2,14,-1
 244 144 l 1,15,-1
 244 399 l 1,16,-1
 310 399 l 1,17,-1
 310 0 l 1,18,-1
 244 0 l 1,0,-1
182 -153 m 1,19,-1
 144 -153 l 1,20,-1
 165 -103 l 1,21,-1
 136 -103 l 1,22,-1
 136 -32 l 1,23,-1
 208 -32 l 1,24,-1
 208 -98 l 1,25,-1
 182 -153 l 1,19,-1
EndSplineSet
Validated: 1
Position2: "'cpsp' Capital Spacing lookup 0 subtable" dx=5 dy=0 dh=10 dv=0
EndChar

StartChar: Eng
Encoding: 330 330 73
Width: 345
VWidth: 659
GlyphClass: 2
Flags: W
LayerCount: 2
Back
Fore
SplineSet
294 -83 m 128,-1,1
 278 -106 278 -106 239 -106 c 0,2,3
 209 -106 209 -106 188 -99 c 1,4,-1
 188 -47 l 1,5,-1
 214 -47 l 2,6,7
 242 -47 242 -47 242 -19 c 2,8,-1
 242 0 l 1,9,-1
 120 220 l 2,10,11
 115 230 115 230 109.5 241.5 c 128,-1,12
 104 253 104 253 102 258 c 1,13,-1
 100 256 l 1,14,-1
 101 223 l 1,15,-1
 101 0 l 1,16,-1
 35 0 l 1,17,-1
 35 399 l 1,18,-1
 101 399 l 1,19,-1
 224 179 l 2,20,21
 228 173 228 173 234.5 159.5 c 128,-1,22
 241 146 241 146 243 142 c 2,23,-1
 244 144 l 1,24,-1
 244 399 l 1,25,-1
 310 399 l 1,26,-1
 310 -24 l 2,27,0
 310 -60 310 -60 294 -83 c 128,-1,1
EndSplineSet
Validated: 1
Position2: "'cpsp' Capital Spacing lookup 0 subtable" dx=5 dy=0 dh=10 dv=0
EndChar

StartChar: Ntilde
Encoding: 209 209 74
Width: 345
VWidth: 659
GlyphClass: 2
Flags: W
LayerCount: 2
Back
Fore
SplineSet
255.5 465.5 m 128,-1,1
 241 444 241 444 213 444 c 0,2,3
 197 444 197 444 173 455 c 0,4,5
 149 465 149 465 136 465 c 0,6,7
 116 465 116 465 113 444 c 1,8,-1
 74 444 l 1,9,10
 74 471 74 471 89 493 c 128,-1,11
 104 515 104 515 132 515 c 0,12,13
 144 515 144 515 156.5 510 c 128,-1,14
 169 505 169 505 172 504 c 0,15,16
 194 493 194 493 209 493 c 0,17,18
 228 493 228 493 232 515 c 1,19,-1
 270 515 l 1,20,0
 270 487 270 487 255.5 465.5 c 128,-1,1
244 0 m 1,21,-1
 120 220 l 2,22,23
 115 230 115 230 109.5 241.5 c 128,-1,24
 104 253 104 253 102 258 c 1,25,-1
 100 256 l 1,26,-1
 101 223 l 1,27,-1
 101 0 l 1,28,-1
 35 0 l 1,29,-1
 35 399 l 1,30,-1
 101 399 l 1,31,-1
 224 179 l 2,32,33
 228 173 228 173 234.5 159.5 c 128,-1,34
 241 146 241 146 243 142 c 2,35,-1
 244 144 l 1,36,-1
 244 399 l 1,37,-1
 310 399 l 1,38,-1
 310 0 l 1,39,-1
 244 0 l 1,21,-1
EndSplineSet
Validated: 1
Position2: "'cpsp' Capital Spacing lookup 0 subtable" dx=5 dy=0 dh=10 dv=0
EndChar

StartChar: O
Encoding: 79 79 75
Width: 372
VWidth: 659
GlyphClass: 2
Flags: W
AnchorPoint: "Anchor-1" 0 0 basechar 0
AnchorPoint: "Anchor-0" 186 399 basechar 0
LayerCount: 2
Back
Fore
SplineSet
308.5 355 m 128,-1,1
 352 303 352 303 352 200 c 256,2,3
 352 97 352 97 308.5 45 c 128,-1,4
 265 -7 265 -7 186 -7 c 256,5,6
 107 -7 107 -7 63.5 45 c 128,-1,7
 20 97 20 97 20 200 c 256,8,9
 20 303 20 303 63.5 355 c 128,-1,10
 107 407 107 407 186 407 c 256,11,0
 265 407 265 407 308.5 355 c 128,-1,1
119.5 309 m 128,-1,13
 97 275 97 275 97 214 c 2,14,-1
 97 185 l 2,15,16
 97 124 97 124 119.5 90.5 c 128,-1,17
 142 57 142 57 186 57 c 256,18,19
 230 57 230 57 252.5 90.5 c 128,-1,20
 275 124 275 124 275 185 c 2,21,-1
 275 214 l 2,22,23
 275 275 275 275 252.5 309 c 128,-1,24
 230 343 230 343 186 343 c 256,25,12
 142 343 142 343 119.5 309 c 128,-1,13
EndSplineSet
Validated: 1
Substitution2: "Single Substitution lookup 42 subtable" ordmasculine
Substitution2: "'aalt' Access All Alternates lookup 0 subtable" ordmasculine
Position2: "'cpsp' Capital Spacing lookup 0 subtable" dx=5 dy=0 dh=10 dv=0
EndChar

StartChar: Oacute
Encoding: 211 211 76
Width: 372
VWidth: 659
GlyphClass: 2
Flags: W
LayerCount: 2
Back
Fore
SplineSet
204 438 m 1,0,-1
 146 438 l 1,1,-1
 196 515 l 1,2,-1
 266 515 l 1,3,-1
 267 513 l 1,4,-1
 204 438 l 1,0,-1
308.5 355 m 128,-1,6
 352 303 352 303 352 200 c 256,7,8
 352 97 352 97 308.5 45 c 128,-1,9
 265 -7 265 -7 186 -7 c 256,10,11
 107 -7 107 -7 63.5 45 c 128,-1,12
 20 97 20 97 20 200 c 256,13,14
 20 303 20 303 63.5 355 c 128,-1,15
 107 407 107 407 186 407 c 256,16,5
 265 407 265 407 308.5 355 c 128,-1,6
119.5 309 m 128,-1,18
 97 275 97 275 97 214 c 2,19,-1
 97 185 l 2,20,21
 97 124 97 124 119.5 90.5 c 128,-1,22
 142 57 142 57 186 57 c 256,23,24
 230 57 230 57 252.5 90.5 c 128,-1,25
 275 124 275 124 275 185 c 2,26,-1
 275 214 l 2,27,28
 275 275 275 275 252.5 309 c 128,-1,29
 230 343 230 343 186 343 c 256,30,17
 142 343 142 343 119.5 309 c 128,-1,18
EndSplineSet
Validated: 1
Position2: "'cpsp' Capital Spacing lookup 0 subtable" dx=5 dy=0 dh=10 dv=0
EndChar

StartChar: Obreve
Encoding: 334 334 77
Width: 372
VWidth: 659
GlyphClass: 2
Flags: W
LayerCount: 2
Back
Fore
SplineSet
242 471.5 m 128,-1,1
 220 452 220 452 186 452 c 256,2,3
 152 452 152 452 130 471.5 c 128,-1,4
 108 491 108 491 108 515 c 1,5,-1
 152 515 l 1,6,7
 153 508 153 508 163 501.5 c 128,-1,8
 173 495 173 495 186 495 c 0,9,10
 200 495 200 495 209.5 501 c 128,-1,11
 219 507 219 507 221 515 c 1,12,-1
 264 515 l 1,13,0
 264 491 264 491 242 471.5 c 128,-1,1
308.5 355 m 128,-1,15
 352 303 352 303 352 200 c 256,16,17
 352 97 352 97 308.5 45 c 128,-1,18
 265 -7 265 -7 186 -7 c 256,19,20
 107 -7 107 -7 63.5 45 c 128,-1,21
 20 97 20 97 20 200 c 256,22,23
 20 303 20 303 63.5 355 c 128,-1,24
 107 407 107 407 186 407 c 256,25,14
 265 407 265 407 308.5 355 c 128,-1,15
119.5 309 m 128,-1,27
 97 275 97 275 97 214 c 2,28,-1
 97 185 l 2,29,30
 97 124 97 124 119.5 90.5 c 128,-1,31
 142 57 142 57 186 57 c 256,32,33
 230 57 230 57 252.5 90.5 c 128,-1,34
 275 124 275 124 275 185 c 2,35,-1
 275 214 l 2,36,37
 275 275 275 275 252.5 309 c 128,-1,38
 230 343 230 343 186 343 c 256,39,26
 142 343 142 343 119.5 309 c 128,-1,27
EndSplineSet
Validated: 1
Position2: "'cpsp' Capital Spacing lookup 0 subtable" dx=5 dy=0 dh=10 dv=0
EndChar

StartChar: Ocircumflex
Encoding: 212 212 78
Width: 372
VWidth: 659
GlyphClass: 2
Flags: W
LayerCount: 2
Back
Fore
SplineSet
186 476 m 1,0,-1
 160 436 l 1,1,-1
 108 436 l 1,2,-1
 158 515 l 1,3,-1
 215 515 l 1,4,-1
 264 436 l 1,5,-1
 212 436 l 1,6,-1
 186 476 l 1,0,-1
308.5 355 m 128,-1,8
 352 303 352 303 352 200 c 256,9,10
 352 97 352 97 308.5 45 c 128,-1,11
 265 -7 265 -7 186 -7 c 256,12,13
 107 -7 107 -7 63.5 45 c 128,-1,14
 20 97 20 97 20 200 c 256,15,16
 20 303 20 303 63.5 355 c 128,-1,17
 107 407 107 407 186 407 c 256,18,7
 265 407 265 407 308.5 355 c 128,-1,8
119.5 309 m 128,-1,20
 97 275 97 275 97 214 c 2,21,-1
 97 185 l 2,22,23
 97 124 97 124 119.5 90.5 c 128,-1,24
 142 57 142 57 186 57 c 256,25,26
 230 57 230 57 252.5 90.5 c 128,-1,27
 275 124 275 124 275 185 c 2,28,-1
 275 214 l 2,29,30
 275 275 275 275 252.5 309 c 128,-1,31
 230 343 230 343 186 343 c 256,32,19
 142 343 142 343 119.5 309 c 128,-1,20
EndSplineSet
Validated: 1
Position2: "'cpsp' Capital Spacing lookup 0 subtable" dx=5 dy=0 dh=10 dv=0
EndChar

StartChar: Odieresis
Encoding: 214 214 79
Width: 372
VWidth: 659
GlyphClass: 2
Flags: W
LayerCount: 2
Back
Fore
SplineSet
106 451 m 1,0,-1
 106 515 l 1,1,-1
 164 515 l 1,2,-1
 164 451 l 1,3,-1
 106 451 l 1,0,-1
208 451 m 1,4,-1
 208 515 l 1,5,-1
 266 515 l 1,6,-1
 266 451 l 1,7,-1
 208 451 l 1,4,-1
308.5 355 m 128,-1,9
 352 303 352 303 352 200 c 256,10,11
 352 97 352 97 308.5 45 c 128,-1,12
 265 -7 265 -7 186 -7 c 256,13,14
 107 -7 107 -7 63.5 45 c 128,-1,15
 20 97 20 97 20 200 c 256,16,17
 20 303 20 303 63.5 355 c 128,-1,18
 107 407 107 407 186 407 c 256,19,8
 265 407 265 407 308.5 355 c 128,-1,9
119.5 309 m 128,-1,21
 97 275 97 275 97 214 c 2,22,-1
 97 185 l 2,23,24
 97 124 97 124 119.5 90.5 c 128,-1,25
 142 57 142 57 186 57 c 256,26,27
 230 57 230 57 252.5 90.5 c 128,-1,28
 275 124 275 124 275 185 c 2,29,-1
 275 214 l 2,30,31
 275 275 275 275 252.5 309 c 128,-1,32
 230 343 230 343 186 343 c 256,33,20
 142 343 142 343 119.5 309 c 128,-1,21
EndSplineSet
Validated: 1
Position2: "'cpsp' Capital Spacing lookup 0 subtable" dx=5 dy=0 dh=10 dv=0
EndChar

StartChar: Ograve
Encoding: 210 210 80
Width: 372
VWidth: 659
GlyphClass: 2
Flags: W
LayerCount: 2
Back
Fore
SplineSet
168 438 m 1,0,-1
 105 513 l 1,1,-1
 106 515 l 1,2,-1
 176 515 l 1,3,-1
 226 438 l 1,4,-1
 168 438 l 1,0,-1
308.5 355 m 128,-1,6
 352 303 352 303 352 200 c 256,7,8
 352 97 352 97 308.5 45 c 128,-1,9
 265 -7 265 -7 186 -7 c 256,10,11
 107 -7 107 -7 63.5 45 c 128,-1,12
 20 97 20 97 20 200 c 256,13,14
 20 303 20 303 63.5 355 c 128,-1,15
 107 407 107 407 186 407 c 256,16,5
 265 407 265 407 308.5 355 c 128,-1,6
119.5 309 m 128,-1,18
 97 275 97 275 97 214 c 2,19,-1
 97 185 l 2,20,21
 97 124 97 124 119.5 90.5 c 128,-1,22
 142 57 142 57 186 57 c 256,23,24
 230 57 230 57 252.5 90.5 c 128,-1,25
 275 124 275 124 275 185 c 2,26,-1
 275 214 l 2,27,28
 275 275 275 275 252.5 309 c 128,-1,29
 230 343 230 343 186 343 c 256,30,17
 142 343 142 343 119.5 309 c 128,-1,18
EndSplineSet
Validated: 1
Position2: "'cpsp' Capital Spacing lookup 0 subtable" dx=5 dy=0 dh=10 dv=0
EndChar

StartChar: Ohungarumlaut
Encoding: 336 336 81
Width: 372
VWidth: 659
GlyphClass: 2
Flags: W
LayerCount: 2
Back
Fore
SplineSet
167 438 m 1,0,-1
 121 438 l 1,1,-1
 157 515 l 1,2,-1
 215 515 l 1,3,-1
 215 513 l 1,4,-1
 167 438 l 1,0,-1
248 438 m 1,5,-1
 202 438 l 1,6,-1
 239 515 l 1,7,-1
 297 515 l 1,8,-1
 297 513 l 1,9,-1
 248 438 l 1,5,-1
308.5 355 m 128,-1,11
 352 303 352 303 352 200 c 256,12,13
 352 97 352 97 308.5 45 c 128,-1,14
 265 -7 265 -7 186 -7 c 256,15,16
 107 -7 107 -7 63.5 45 c 128,-1,17
 20 97 20 97 20 200 c 256,18,19
 20 303 20 303 63.5 355 c 128,-1,20
 107 407 107 407 186 407 c 256,21,10
 265 407 265 407 308.5 355 c 128,-1,11
119.5 309 m 128,-1,23
 97 275 97 275 97 214 c 2,24,-1
 97 185 l 2,25,26
 97 124 97 124 119.5 90.5 c 128,-1,27
 142 57 142 57 186 57 c 256,28,29
 230 57 230 57 252.5 90.5 c 128,-1,30
 275 124 275 124 275 185 c 2,31,-1
 275 214 l 2,32,33
 275 275 275 275 252.5 309 c 128,-1,34
 230 343 230 343 186 343 c 256,35,22
 142 343 142 343 119.5 309 c 128,-1,23
EndSplineSet
Validated: 1
Position2: "'cpsp' Capital Spacing lookup 0 subtable" dx=5 dy=0 dh=10 dv=0
EndChar

StartChar: Omacron
Encoding: 332 332 82
Width: 372
VWidth: 659
GlyphClass: 2
Flags: W
LayerCount: 2
Back
Fore
SplineSet
112 493 m 1,0,-1
 260 493 l 1,1,-1
 260 442 l 1,2,-1
 112 442 l 1,3,-1
 112 493 l 1,0,-1
308.5 355 m 128,-1,5
 352 303 352 303 352 200 c 256,6,7
 352 97 352 97 308.5 45 c 128,-1,8
 265 -7 265 -7 186 -7 c 256,9,10
 107 -7 107 -7 63.5 45 c 128,-1,11
 20 97 20 97 20 200 c 256,12,13
 20 303 20 303 63.5 355 c 128,-1,14
 107 407 107 407 186 407 c 256,15,4
 265 407 265 407 308.5 355 c 128,-1,5
119.5 309 m 128,-1,17
 97 275 97 275 97 214 c 2,18,-1
 97 185 l 2,19,20
 97 124 97 124 119.5 90.5 c 128,-1,21
 142 57 142 57 186 57 c 256,22,23
 230 57 230 57 252.5 90.5 c 128,-1,24
 275 124 275 124 275 185 c 2,25,-1
 275 214 l 2,26,27
 275 275 275 275 252.5 309 c 128,-1,28
 230 343 230 343 186 343 c 256,29,16
 142 343 142 343 119.5 309 c 128,-1,17
EndSplineSet
Validated: 1
Position2: "'cpsp' Capital Spacing lookup 0 subtable" dx=5 dy=0 dh=10 dv=0
EndChar

StartChar: Oslash
Encoding: 216 216 83
Width: 372
VWidth: 659
GlyphClass: 2
Flags: W
AnchorPoint: "Anchor-1" 0 0 basechar 0
AnchorPoint: "Anchor-0" 186 399 basechar 0
LayerCount: 2
Back
Fore
SplineSet
352 200 m 256,1,2
 352 97 352 97 308.5 45 c 128,-1,3
 265 -7 265 -7 186 -7 c 0,4,5
 134 -7 134 -7 96 16 c 1,6,-1
 72 -22 l 1,7,-1
 23 -22 l 1,8,-1
 64 43 l 1,9,10
 20 98 20 98 20 200 c 0,11,12
 20 303 20 303 63.5 355 c 128,-1,13
 107 407 107 407 186 407 c 0,14,15
 238 407 238 407 276 384 c 1,16,-1
 300 421 l 1,17,-1
 349 421 l 1,18,-1
 308 355 l 1,19,0
 352 303 352 303 352 200 c 256,1,2
119.5 309 m 128,-1,21
 97 275 97 275 97 214 c 2,22,-1
 97 185 l 2,23,24
 97 142 97 142 107 113 c 1,25,-1
 239 324 l 1,26,27
 217 343 217 343 186 343 c 0,28,20
 142 343 142 343 119.5 309 c 128,-1,21
186 57 m 0,30,31
 230 57 230 57 252.5 90.5 c 128,-1,32
 275 124 275 124 275 185 c 2,33,-1
 275 214 l 2,34,35
 275 259 275 259 264 285 c 1,36,-1
 133 75 l 1,37,29
 153 57 153 57 186 57 c 0,30,31
EndSplineSet
Validated: 1
Position2: "'cpsp' Capital Spacing lookup 0 subtable" dx=5 dy=0 dh=10 dv=0
EndChar

StartChar: Oslashacute
Encoding: 510 510 84
Width: 372
VWidth: 659
GlyphClass: 2
Flags: W
LayerCount: 2
Back
Fore
SplineSet
204 438 m 1,0,-1
 146 438 l 1,1,-1
 196 515 l 1,2,-1
 266 515 l 1,3,-1
 267 513 l 1,4,-1
 204 438 l 1,0,-1
352 200 m 256,6,7
 352 97 352 97 308.5 45 c 128,-1,8
 265 -7 265 -7 186 -7 c 0,9,10
 134 -7 134 -7 96 16 c 1,11,-1
 72 -22 l 1,12,-1
 23 -22 l 1,13,-1
 64 43 l 1,14,15
 20 98 20 98 20 200 c 0,16,17
 20 303 20 303 63.5 355 c 128,-1,18
 107 407 107 407 186 407 c 0,19,20
 238 407 238 407 276 384 c 1,21,-1
 300 421 l 1,22,-1
 349 421 l 1,23,-1
 308 355 l 1,24,5
 352 303 352 303 352 200 c 256,6,7
119.5 309 m 128,-1,26
 97 275 97 275 97 214 c 2,27,-1
 97 185 l 2,28,29
 97 142 97 142 107 113 c 1,30,-1
 239 324 l 1,31,32
 217 343 217 343 186 343 c 0,33,25
 142 343 142 343 119.5 309 c 128,-1,26
186 57 m 0,35,36
 230 57 230 57 252.5 90.5 c 128,-1,37
 275 124 275 124 275 185 c 2,38,-1
 275 214 l 2,39,40
 275 259 275 259 264 285 c 1,41,-1
 133 75 l 1,42,34
 153 57 153 57 186 57 c 0,35,36
EndSplineSet
Validated: 1
Position2: "'cpsp' Capital Spacing lookup 0 subtable" dx=5 dy=0 dh=10 dv=0
EndChar

StartChar: Otilde
Encoding: 213 213 85
Width: 372
VWidth: 659
GlyphClass: 2
Flags: W
LayerCount: 2
Back
Fore
SplineSet
269.5 465.5 m 128,-1,1
 255 444 255 444 227 444 c 0,2,3
 214 444 214 444 201.5 449 c 128,-1,4
 189 454 189 454 186 455 c 0,5,6
 162 465 162 465 150 465 c 0,7,8
 130 465 130 465 127 444 c 1,9,-1
 88 444 l 1,10,11
 88 471 88 471 103 493 c 128,-1,12
 118 515 118 515 146 515 c 0,13,14
 155 515 155 515 165.5 511.5 c 128,-1,15
 176 508 176 508 185 504 c 0,16,17
 207 493 207 493 223 493 c 0,18,19
 242 493 242 493 245 515 c 1,20,-1
 284 515 l 1,21,0
 284 487 284 487 269.5 465.5 c 128,-1,1
308.5 355 m 128,-1,23
 352 303 352 303 352 200 c 256,24,25
 352 97 352 97 308.5 45 c 128,-1,26
 265 -7 265 -7 186 -7 c 256,27,28
 107 -7 107 -7 63.5 45 c 128,-1,29
 20 97 20 97 20 200 c 256,30,31
 20 303 20 303 63.5 355 c 128,-1,32
 107 407 107 407 186 407 c 256,33,22
 265 407 265 407 308.5 355 c 128,-1,23
119.5 309 m 128,-1,35
 97 275 97 275 97 214 c 2,36,-1
 97 185 l 2,37,38
 97 124 97 124 119.5 90.5 c 128,-1,39
 142 57 142 57 186 57 c 256,40,41
 230 57 230 57 252.5 90.5 c 128,-1,42
 275 124 275 124 275 185 c 2,43,-1
 275 214 l 2,44,45
 275 275 275 275 252.5 309 c 128,-1,46
 230 343 230 343 186 343 c 256,47,34
 142 343 142 343 119.5 309 c 128,-1,35
EndSplineSet
Validated: 1
Position2: "'cpsp' Capital Spacing lookup 0 subtable" dx=5 dy=0 dh=10 dv=0
EndChar

StartChar: OE
Encoding: 338 338 86
Width: 478
VWidth: 659
GlyphClass: 2
Flags: W
AnchorPoint: "Anchor-1" 0 0 basechar 0
AnchorPoint: "Anchor-0" 239 399 basechar 0
LayerCount: 2
Back
Fore
SplineSet
238 364 m 1,1,-1
 238 399 l 1,2,-1
 457 399 l 1,3,-1
 457 333 l 1,4,-1
 312 333 l 1,5,-1
 312 238 l 1,6,-1
 432 238 l 1,7,-1
 432 171 l 1,8,-1
 312 171 l 1,9,-1
 312 67 l 1,10,-1
 461 67 l 1,11,-1
 461 0 l 1,12,-1
 238 0 l 1,13,-1
 238 36 l 1,14,15
 204 -7 204 -7 150 -7 c 0,16,17
 87 -7 87 -7 52.5 45 c 128,-1,18
 18 97 18 97 18 200 c 0,19,20
 18 304 18 304 52.5 355.5 c 128,-1,21
 87 407 87 407 150 407 c 0,22,0
 204 407 204 407 238 364 c 1,1,-1
111.5 312.5 m 128,-1,24
 94 282 94 282 94 214 c 2,25,-1
 94 185 l 2,26,27
 94 118 94 118 111.5 87.5 c 128,-1,28
 129 57 129 57 165 57 c 0,29,30
 202 57 202 57 219.5 87 c 128,-1,31
 237 117 237 117 237 185 c 2,32,-1
 237 214 l 2,33,34
 237 282 237 282 219.5 312.5 c 128,-1,35
 202 343 202 343 165 343 c 0,36,23
 129 343 129 343 111.5 312.5 c 128,-1,24
EndSplineSet
Validated: 1
Position2: "'cpsp' Capital Spacing lookup 0 subtable" dx=5 dy=0 dh=10 dv=0
EndChar

StartChar: P
Encoding: 80 80 87
Width: 319
VWidth: 659
GlyphClass: 2
Flags: W
LayerCount: 2
Back
Fore
SplineSet
35 0 m 1,0,-1
 35 399 l 1,1,-1
 178 399 l 2,2,3
 238 399 238 399 270.5 366 c 128,-1,4
 303 333 303 333 303 279 c 0,5,6
 303 223 303 223 268.5 189 c 128,-1,7
 234 155 234 155 178 155 c 2,8,-1
 109 155 l 1,9,-1
 109 0 l 1,10,-1
 35 0 l 1,0,-1
170 221 m 2,11,12
 197 221 197 221 211.5 236.5 c 128,-1,13
 226 252 226 252 226 279 c 0,14,15
 226 304 226 304 211.5 318.5 c 128,-1,16
 197 333 197 333 170 333 c 2,17,-1
 109 333 l 1,18,-1
 109 221 l 1,19,-1
 170 221 l 2,11,12
EndSplineSet
Validated: 1
Position2: "'cpsp' Capital Spacing lookup 0 subtable" dx=5 dy=0 dh=10 dv=0
EndChar

StartChar: Thorn
Encoding: 222 222 88
Width: 319
VWidth: 659
GlyphClass: 2
Flags: W
LayerCount: 2
Back
Fore
SplineSet
178 329 m 2,0,1
 238 329 238 329 270.5 295.5 c 128,-1,2
 303 262 303 262 303 208 c 0,3,4
 303 152 303 152 268.5 118 c 128,-1,5
 234 84 234 84 178 84 c 2,6,-1
 109 84 l 1,7,-1
 109 0 l 1,8,-1
 35 0 l 1,9,-1
 35 399 l 1,10,-1
 109 399 l 1,11,-1
 109 329 l 1,12,-1
 178 329 l 2,0,1
109 150 m 1,13,-1
 170 150 l 2,14,15
 197 150 197 150 211.5 165.5 c 128,-1,16
 226 181 226 181 226 208 c 0,17,18
 226 233 226 233 211.5 247.5 c 128,-1,19
 197 262 197 262 170 262 c 2,20,-1
 109 262 l 1,21,-1
 109 150 l 1,13,-1
EndSplineSet
Validated: 1
Position2: "'cpsp' Capital Spacing lookup 0 subtable" dx=5 dy=0 dh=10 dv=0
EndChar

StartChar: Q
Encoding: 81 81 89
Width: 372
VWidth: 659
GlyphClass: 2
Flags: W
LayerCount: 2
Back
Fore
SplineSet
63.5 355 m 128,-1,1
 107 407 107 407 186 407 c 256,2,3
 265 407 265 407 308.5 355 c 128,-1,4
 352 303 352 303 352 200 c 0,5,6
 352 54 352 54 265 10 c 1,7,-1
 342 -72 l 1,8,-1
 250 -72 l 1,9,-1
 193 -7 l 1,10,-1
 186 -7 l 2,11,12
 107 -7 107 -7 63.5 45 c 128,-1,13
 20 97 20 97 20 200 c 256,14,0
 20 303 20 303 63.5 355 c 128,-1,1
119.5 90.5 m 128,-1,16
 142 57 142 57 186 57 c 256,17,18
 230 57 230 57 252.5 90.5 c 128,-1,19
 275 124 275 124 275 185 c 2,20,-1
 275 214 l 2,21,22
 275 275 275 275 252.5 309 c 128,-1,23
 230 343 230 343 186 343 c 256,24,25
 142 343 142 343 119.5 309 c 128,-1,26
 97 275 97 275 97 214 c 2,27,-1
 97 185 l 2,28,15
 97 124 97 124 119.5 90.5 c 128,-1,16
EndSplineSet
Validated: 1
Position2: "'cpsp' Capital Spacing lookup 0 subtable" dx=5 dy=0 dh=10 dv=0
EndChar

StartChar: R
Encoding: 82 82 90
Width: 345
VWidth: 659
GlyphClass: 2
Flags: W
AnchorPoint: "Anchor-1" 173 0 basechar 0
AnchorPoint: "Anchor-0" 173 399 basechar 0
LayerCount: 2
Back
Fore
SplineSet
292.5 367.5 m 128,-1,1
 324 336 324 336 324 285 c 0,2,3
 324 249 324 249 306.5 222.5 c 128,-1,4
 289 196 289 196 258 183 c 1,5,-1
 334 0 l 1,6,-1
 254 0 l 1,7,-1
 187 167 l 1,8,-1
 109 167 l 1,9,-1
 109 0 l 1,10,-1
 35 0 l 1,11,-1
 35 399 l 1,12,-1
 202 399 l 2,13,0
 261 399 261 399 292.5 367.5 c 128,-1,1
109 233 m 1,14,-1
 192 233 l 2,15,16
 244 233 244 233 244 285 c 0,17,18
 244 333 244 333 194 333 c 2,19,-1
 109 333 l 1,20,-1
 109 233 l 1,14,-1
EndSplineSet
Validated: 1
Position2: "'cpsp' Capital Spacing lookup 0 subtable" dx=5 dy=0 dh=10 dv=0
EndChar

StartChar: Racute
Encoding: 340 340 91
Width: 345
VWidth: 659
GlyphClass: 2
Flags: W
LayerCount: 2
Back
Fore
SplineSet
190 438 m 1,0,-1
 132 438 l 1,1,-1
 183 515 l 1,2,-1
 252 515 l 1,3,-1
 253 513 l 1,4,-1
 190 438 l 1,0,-1
292.5 367.5 m 128,-1,6
 324 336 324 336 324 285 c 0,7,8
 324 249 324 249 306.5 222.5 c 128,-1,9
 289 196 289 196 258 183 c 1,10,-1
 334 0 l 1,11,-1
 254 0 l 1,12,-1
 187 167 l 1,13,-1
 109 167 l 1,14,-1
 109 0 l 1,15,-1
 35 0 l 1,16,-1
 35 399 l 1,17,-1
 202 399 l 2,18,5
 261 399 261 399 292.5 367.5 c 128,-1,6
109 233 m 1,19,-1
 192 233 l 2,20,21
 244 233 244 233 244 285 c 0,22,23
 244 333 244 333 194 333 c 2,24,-1
 109 333 l 1,25,-1
 109 233 l 1,19,-1
EndSplineSet
Validated: 1
Position2: "'cpsp' Capital Spacing lookup 0 subtable" dx=5 dy=0 dh=10 dv=0
EndChar

StartChar: Rcaron
Encoding: 344 344 92
Width: 345
VWidth: 659
GlyphClass: 2
Flags: W
LayerCount: 2
Back
Fore
SplineSet
144 436 m 1,0,-1
 94 515 l 1,1,-1
 146 515 l 1,2,-1
 173 474 l 1,3,-1
 198 515 l 1,4,-1
 251 515 l 1,5,-1
 202 436 l 1,6,-1
 144 436 l 1,0,-1
292.5 367.5 m 128,-1,8
 324 336 324 336 324 285 c 0,9,10
 324 249 324 249 306.5 222.5 c 128,-1,11
 289 196 289 196 258 183 c 1,12,-1
 334 0 l 1,13,-1
 254 0 l 1,14,-1
 187 167 l 1,15,-1
 109 167 l 1,16,-1
 109 0 l 1,17,-1
 35 0 l 1,18,-1
 35 399 l 1,19,-1
 202 399 l 2,20,7
 261 399 261 399 292.5 367.5 c 128,-1,8
109 233 m 1,21,-1
 192 233 l 2,22,23
 244 233 244 233 244 285 c 0,24,25
 244 333 244 333 194 333 c 2,26,-1
 109 333 l 1,27,-1
 109 233 l 1,21,-1
EndSplineSet
Validated: 1
Position2: "'cpsp' Capital Spacing lookup 0 subtable" dx=5 dy=0 dh=10 dv=0
EndChar

StartChar: Rcommaaccent
Encoding: 342 342 93
Width: 345
VWidth: 659
GlyphClass: 2
Flags: W
LayerCount: 2
Back
Fore
SplineSet
292.5 367.5 m 128,-1,1
 324 336 324 336 324 285 c 0,2,3
 324 249 324 249 306.5 222.5 c 128,-1,4
 289 196 289 196 258 183 c 1,5,-1
 334 0 l 1,6,-1
 254 0 l 1,7,-1
 187 167 l 1,8,-1
 109 167 l 1,9,-1
 109 0 l 1,10,-1
 35 0 l 1,11,-1
 35 399 l 1,12,-1
 202 399 l 2,13,0
 261 399 261 399 292.5 367.5 c 128,-1,1
109 233 m 1,14,-1
 192 233 l 2,15,16
 244 233 244 233 244 285 c 0,17,18
 244 333 244 333 194 333 c 2,19,-1
 109 333 l 1,20,-1
 109 233 l 1,14,-1
182 -153 m 1,21,-1
 144 -153 l 1,22,-1
 165 -103 l 1,23,-1
 136 -103 l 1,24,-1
 136 -32 l 1,25,-1
 208 -32 l 1,26,-1
 208 -98 l 1,27,-1
 182 -153 l 1,21,-1
EndSplineSet
Validated: 1
Position2: "'cpsp' Capital Spacing lookup 0 subtable" dx=5 dy=0 dh=10 dv=0
EndChar

StartChar: S
Encoding: 83 83 94
Width: 319
VWidth: 659
GlyphClass: 2
Flags: W
AnchorPoint: "Anchor-1" 159 0 basechar 0
AnchorPoint: "Anchor-0" 159 399 basechar 0
LayerCount: 2
Back
Fore
SplineSet
252.5 377 m 128,-1,1
 289 347 289 347 289 289 c 2,2,-1
 289 282 l 1,3,-1
 213 282 l 1,4,-1
 213 287 l 2,5,6
 213 313 213 313 198 328 c 128,-1,7
 183 343 183 343 158 343 c 0,8,9
 132 343 132 343 117.5 331 c 128,-1,10
 103 319 103 319 103 300 c 0,11,12
 103 276 103 276 121.5 264.5 c 128,-1,13
 140 253 140 253 179 242 c 0,14,15
 216 230 216 230 239.5 218.5 c 128,-1,16
 263 207 263 207 280 183 c 128,-1,17
 297 159 297 159 297 120 c 0,18,19
 297 54 297 54 259.5 23.5 c 128,-1,20
 222 -7 222 -7 156 -7 c 0,21,22
 97 -7 97 -7 57.5 25.5 c 128,-1,23
 18 58 18 58 18 117 c 2,24,-1
 18 130 l 1,25,-1
 96 130 l 1,26,-1
 95 121 l 2,27,28
 95 92 95 92 112 74.5 c 128,-1,29
 129 57 129 57 159 57 c 0,30,31
 190 57 190 57 204.5 70.5 c 128,-1,32
 219 84 219 84 219 104 c 0,33,34
 219 132 219 132 199.5 145 c 128,-1,35
 180 158 180 158 139 172 c 0,36,37
 103 184 103 184 80.5 196 c 128,-1,38
 58 208 58 208 42 232 c 128,-1,39
 26 256 26 256 26 295 c 0,40,41
 26 349 26 349 64 378 c 128,-1,42
 102 407 102 407 159 407 c 256,43,0
 216 407 216 407 252.5 377 c 128,-1,1
EndSplineSet
Validated: 1
Position2: "'cpsp' Capital Spacing lookup 0 subtable" dx=5 dy=0 dh=10 dv=0
EndChar

StartChar: Sacute
Encoding: 346 346 95
Width: 319
VWidth: 659
GlyphClass: 2
Flags: W
LayerCount: 2
Back
Fore
SplineSet
177 438 m 1,0,-1
 119 438 l 1,1,-1
 169 515 l 1,2,-1
 239 515 l 1,3,-1
 240 513 l 1,4,-1
 177 438 l 1,0,-1
252.5 377 m 128,-1,6
 289 347 289 347 289 289 c 2,7,-1
 289 282 l 1,8,-1
 213 282 l 1,9,-1
 213 287 l 2,10,11
 213 313 213 313 198 328 c 128,-1,12
 183 343 183 343 158 343 c 0,13,14
 132 343 132 343 117.5 331 c 128,-1,15
 103 319 103 319 103 300 c 0,16,17
 103 276 103 276 121.5 264.5 c 128,-1,18
 140 253 140 253 179 242 c 0,19,20
 216 230 216 230 239.5 218.5 c 128,-1,21
 263 207 263 207 280 183 c 128,-1,22
 297 159 297 159 297 120 c 0,23,24
 297 54 297 54 259.5 23.5 c 128,-1,25
 222 -7 222 -7 156 -7 c 0,26,27
 97 -7 97 -7 57.5 25.5 c 128,-1,28
 18 58 18 58 18 117 c 2,29,-1
 18 130 l 1,30,-1
 96 130 l 1,31,-1
 95 121 l 2,32,33
 95 92 95 92 112 74.5 c 128,-1,34
 129 57 129 57 159 57 c 0,35,36
 190 57 190 57 204.5 70.5 c 128,-1,37
 219 84 219 84 219 104 c 0,38,39
 219 132 219 132 199.5 145 c 128,-1,40
 180 158 180 158 139 172 c 0,41,42
 103 184 103 184 80.5 196 c 128,-1,43
 58 208 58 208 42 232 c 128,-1,44
 26 256 26 256 26 295 c 0,45,46
 26 349 26 349 64 378 c 128,-1,47
 102 407 102 407 159 407 c 256,48,5
 216 407 216 407 252.5 377 c 128,-1,6
EndSplineSet
Validated: 1
Position2: "'cpsp' Capital Spacing lookup 0 subtable" dx=5 dy=0 dh=10 dv=0
EndChar

StartChar: Scaron
Encoding: 352 352 96
Width: 319
VWidth: 659
GlyphClass: 2
Flags: W
LayerCount: 2
Back
Fore
SplineSet
81 515 m 1,0,-1
 133 515 l 1,1,-1
 159 474 l 1,2,-1
 185 515 l 1,3,-1
 238 515 l 1,4,-1
 188 436 l 1,5,-1
 131 436 l 1,6,-1
 81 515 l 1,0,-1
252.5 377 m 128,-1,8
 289 347 289 347 289 289 c 2,9,-1
 289 282 l 1,10,-1
 213 282 l 1,11,-1
 213 287 l 2,12,13
 213 313 213 313 198 328 c 128,-1,14
 183 343 183 343 158 343 c 0,15,16
 132 343 132 343 117.5 331 c 128,-1,17
 103 319 103 319 103 300 c 0,18,19
 103 276 103 276 121.5 264.5 c 128,-1,20
 140 253 140 253 179 242 c 0,21,22
 216 230 216 230 239.5 218.5 c 128,-1,23
 263 207 263 207 280 183 c 128,-1,24
 297 159 297 159 297 120 c 0,25,26
 297 54 297 54 259.5 23.5 c 128,-1,27
 222 -7 222 -7 156 -7 c 0,28,29
 97 -7 97 -7 57.5 25.5 c 128,-1,30
 18 58 18 58 18 117 c 2,31,-1
 18 130 l 1,32,-1
 96 130 l 1,33,-1
 95 121 l 2,34,35
 95 92 95 92 112 74.5 c 128,-1,36
 129 57 129 57 159 57 c 0,37,38
 190 57 190 57 204.5 70.5 c 128,-1,39
 219 84 219 84 219 104 c 0,40,41
 219 132 219 132 199.5 145 c 128,-1,42
 180 158 180 158 139 172 c 0,43,44
 103 184 103 184 80.5 196 c 128,-1,45
 58 208 58 208 42 232 c 128,-1,46
 26 256 26 256 26 295 c 0,47,48
 26 349 26 349 64 378 c 128,-1,49
 102 407 102 407 159 407 c 256,50,7
 216 407 216 407 252.5 377 c 128,-1,8
EndSplineSet
Validated: 1
Position2: "'cpsp' Capital Spacing lookup 0 subtable" dx=5 dy=0 dh=10 dv=0
EndChar

StartChar: Scedilla
Encoding: 350 350 97
Width: 319
VWidth: 659
GlyphClass: 2
Flags: W
LayerCount: 2
Back
Fore
SplineSet
252.5 377 m 128,-1,1
 289 347 289 347 289 289 c 2,2,-1
 289 282 l 1,3,-1
 213 282 l 1,4,-1
 213 287 l 2,5,6
 213 313 213 313 198 328 c 128,-1,7
 183 343 183 343 158 343 c 0,8,9
 132 343 132 343 117.5 331 c 128,-1,10
 103 319 103 319 103 300 c 0,11,12
 103 276 103 276 121.5 264.5 c 128,-1,13
 140 253 140 253 179 242 c 0,14,15
 216 230 216 230 239.5 218.5 c 128,-1,16
 263 207 263 207 280 183 c 128,-1,17
 297 159 297 159 297 120 c 0,18,19
 297 58 297 58 263.5 27.5 c 128,-1,20
 230 -3 230 -3 171 -7 c 1,21,-1
 169 -19 l 1,22,23
 190 -21 190 -21 202.5 -30.5 c 128,-1,24
 215 -40 215 -40 215 -59 c 0,25,26
 215 -85 215 -85 196 -95.5 c 128,-1,27
 177 -106 177 -106 152 -106 c 0,28,29
 126 -106 126 -106 103 -101 c 1,30,-1
 103 -73 l 1,31,-1
 144 -73 l 2,32,33
 155 -73 155 -73 160 -70 c 128,-1,34
 165 -67 165 -67 165 -59 c 256,35,36
 165 -51 165 -51 161 -48 c 128,-1,37
 157 -45 157 -45 146 -45 c 2,38,-1
 127 -45 l 1,39,-1
 131 -5 l 1,40,41
 81 1 81 1 49.5 32.5 c 128,-1,42
 18 64 18 64 18 117 c 2,43,-1
 18 130 l 1,44,-1
 96 130 l 1,45,-1
 95 121 l 2,46,47
 95 92 95 92 112 74.5 c 128,-1,48
 129 57 129 57 159 57 c 0,49,50
 190 57 190 57 204.5 70.5 c 128,-1,51
 219 84 219 84 219 104 c 0,52,53
 219 132 219 132 199.5 145 c 128,-1,54
 180 158 180 158 139 172 c 0,55,56
 103 184 103 184 80.5 196 c 128,-1,57
 58 208 58 208 42 232 c 128,-1,58
 26 256 26 256 26 295 c 0,59,60
 26 349 26 349 64 378 c 128,-1,61
 102 407 102 407 159 407 c 256,62,0
 216 407 216 407 252.5 377 c 128,-1,1
EndSplineSet
Validated: 1
Substitution2: "'locl' Localized Forms in Latin lookup 6 subtable" Scommaaccent
Substitution2: "'locl' Localized Forms in Latin lookup 5 subtable" Scommaaccent
Substitution2: "'aalt' Access All Alternates lookup 0 subtable" Scommaaccent
Position2: "'cpsp' Capital Spacing lookup 0 subtable" dx=5 dy=0 dh=10 dv=0
EndChar

StartChar: Scircumflex
Encoding: 348 348 98
Width: 319
VWidth: 659
GlyphClass: 2
Flags: W
LayerCount: 2
Back
Fore
SplineSet
159 476 m 1,0,-1
 133 436 l 1,1,-1
 81 436 l 1,2,-1
 131 515 l 1,3,-1
 188 515 l 1,4,-1
 238 436 l 1,5,-1
 185 436 l 1,6,-1
 159 476 l 1,0,-1
252.5 377 m 128,-1,8
 289 347 289 347 289 289 c 2,9,-1
 289 282 l 1,10,-1
 213 282 l 1,11,-1
 213 287 l 2,12,13
 213 313 213 313 198 328 c 128,-1,14
 183 343 183 343 158 343 c 0,15,16
 132 343 132 343 117.5 331 c 128,-1,17
 103 319 103 319 103 300 c 0,18,19
 103 276 103 276 121.5 264.5 c 128,-1,20
 140 253 140 253 179 242 c 0,21,22
 216 230 216 230 239.5 218.5 c 128,-1,23
 263 207 263 207 280 183 c 128,-1,24
 297 159 297 159 297 120 c 0,25,26
 297 54 297 54 259.5 23.5 c 128,-1,27
 222 -7 222 -7 156 -7 c 0,28,29
 97 -7 97 -7 57.5 25.5 c 128,-1,30
 18 58 18 58 18 117 c 2,31,-1
 18 130 l 1,32,-1
 96 130 l 1,33,-1
 95 121 l 2,34,35
 95 92 95 92 112 74.5 c 128,-1,36
 129 57 129 57 159 57 c 0,37,38
 190 57 190 57 204.5 70.5 c 128,-1,39
 219 84 219 84 219 104 c 0,40,41
 219 132 219 132 199.5 145 c 128,-1,42
 180 158 180 158 139 172 c 0,43,44
 103 184 103 184 80.5 196 c 128,-1,45
 58 208 58 208 42 232 c 128,-1,46
 26 256 26 256 26 295 c 0,47,48
 26 349 26 349 64 378 c 128,-1,49
 102 407 102 407 159 407 c 256,50,7
 216 407 216 407 252.5 377 c 128,-1,8
EndSplineSet
Validated: 1
Position2: "'cpsp' Capital Spacing lookup 0 subtable" dx=5 dy=0 dh=10 dv=0
EndChar

StartChar: T
Encoding: 84 84 100
Width: 292
VWidth: 659
GlyphClass: 2
Flags: W
AnchorPoint: "Anchor-1" 146 0 basechar 0
AnchorPoint: "Anchor-0" 146 399 basechar 0
LayerCount: 2
Back
Fore
SplineSet
183 333 m 1,0,-1
 183 0 l 1,1,-1
 109 0 l 1,2,-1
 109 333 l 1,3,-1
 10 333 l 1,4,-1
 10 399 l 1,5,-1
 283 399 l 1,6,-1
 283 333 l 1,7,-1
 183 333 l 1,0,-1
EndSplineSet
Validated: 1
Position2: "'cpsp' Capital Spacing lookup 0 subtable" dx=5 dy=0 dh=10 dv=0
EndChar

StartChar: Tbar
Encoding: 358 358 101
Width: 292
VWidth: 659
GlyphClass: 2
Flags: W
LayerCount: 2
Back
Fore
SplineSet
183 333 m 1,0,-1
 183 229 l 1,1,-1
 248 229 l 1,2,-1
 248 179 l 1,3,-1
 183 179 l 1,4,-1
 183 0 l 1,5,-1
 109 0 l 1,6,-1
 109 179 l 1,7,-1
 43 179 l 1,8,-1
 43 229 l 1,9,-1
 109 229 l 1,10,-1
 109 333 l 1,11,-1
 10 333 l 1,12,-1
 10 399 l 1,13,-1
 283 399 l 1,14,-1
 283 333 l 1,15,-1
 183 333 l 1,0,-1
EndSplineSet
Validated: 1
Position2: "'cpsp' Capital Spacing lookup 0 subtable" dx=5 dy=0 dh=10 dv=0
EndChar

StartChar: Tcaron
Encoding: 356 356 102
Width: 292
VWidth: 659
GlyphClass: 2
Flags: W
LayerCount: 2
Back
Fore
SplineSet
118 436 m 1,0,-1
 68 515 l 1,1,-1
 120 515 l 1,2,-1
 146 474 l 1,3,-1
 172 515 l 1,4,-1
 224 515 l 1,5,-1
 175 436 l 1,6,-1
 118 436 l 1,0,-1
183 333 m 1,7,-1
 183 0 l 1,8,-1
 109 0 l 1,9,-1
 109 333 l 1,10,-1
 10 333 l 1,11,-1
 10 399 l 1,12,-1
 283 399 l 1,13,-1
 283 333 l 1,14,-1
 183 333 l 1,7,-1
EndSplineSet
Validated: 1
Position2: "'cpsp' Capital Spacing lookup 0 subtable" dx=5 dy=0 dh=10 dv=0
EndChar

StartChar: uni0162
Encoding: 354 354 103
Width: 292
VWidth: 659
GlyphClass: 2
Flags: W
AnchorPoint: "Anchor-1" 146 0 basechar 0
AnchorPoint: "Anchor-0" 146 399 basechar 0
LayerCount: 2
Back
Fore
SplineSet
157 0 m 1,0,-1
 156 -19 l 1,1,2
 201 -23 201 -23 201 -59 c 0,3,4
 201 -85 201 -85 182 -95.5 c 128,-1,5
 163 -106 163 -106 138 -106 c 0,6,7
 112 -106 112 -106 89 -101 c 1,8,-1
 89 -73 l 1,9,-1
 131 -73 l 2,10,11
 151 -73 151 -73 151 -59 c 0,12,13
 151 -51 151 -51 146.5 -48 c 128,-1,14
 142 -45 142 -45 131 -45 c 2,15,-1
 112 -45 l 1,16,-1
 118 0 l 1,17,-1
 109 0 l 1,18,-1
 109 333 l 1,19,-1
 10 333 l 1,20,-1
 10 399 l 1,21,-1
 283 399 l 1,22,-1
 283 333 l 1,23,-1
 183 333 l 1,24,-1
 183 0 l 1,25,-1
 157 0 l 1,0,-1
EndSplineSet
Validated: 1
Substitution2: "'locl' Localized Forms in Latin lookup 6 subtable" uni021A
Substitution2: "'locl' Localized Forms in Latin lookup 5 subtable" uni021A
Substitution2: "'aalt' Access All Alternates lookup 0 subtable" uni021A
Position2: "'cpsp' Capital Spacing lookup 0 subtable" dx=5 dy=0 dh=10 dv=0
EndChar

StartChar: uni021A
Encoding: 538 538 104
Width: 292
VWidth: 659
GlyphClass: 2
Flags: W
LayerCount: 2
Back
Fore
SplineSet
183 333 m 1,0,-1
 183 0 l 1,1,-1
 109 0 l 1,2,-1
 109 333 l 1,3,-1
 10 333 l 1,4,-1
 10 399 l 1,5,-1
 283 399 l 1,6,-1
 283 333 l 1,7,-1
 183 333 l 1,0,-1
156 -153 m 1,8,-1
 118 -153 l 1,9,-1
 138 -103 l 1,10,-1
 110 -103 l 1,11,-1
 110 -32 l 1,12,-1
 182 -32 l 1,13,-1
 182 -98 l 1,14,-1
 156 -153 l 1,8,-1
EndSplineSet
Validated: 1
Position2: "'cpsp' Capital Spacing lookup 0 subtable" dx=5 dy=0 dh=10 dv=0
EndChar

StartChar: U
Encoding: 85 85 105
Width: 345
VWidth: 659
GlyphClass: 2
Flags: W
AnchorPoint: "Anchor-1" 0 0 basechar 0
AnchorPoint: "Anchor-0" 173 399 basechar 0
LayerCount: 2
Back
Fore
SplineSet
274 27 m 128,-1,1
 238 -7 238 -7 173 -7 c 256,2,3
 108 -7 108 -7 72 27 c 128,-1,4
 36 61 36 61 36 125 c 2,5,-1
 36 399 l 1,6,-1
 110 399 l 1,7,-1
 110 128 l 2,8,9
 110 94 110 94 126.5 75.5 c 128,-1,10
 143 57 143 57 173 57 c 0,11,12
 202 57 202 57 218.5 75.5 c 128,-1,13
 235 94 235 94 235 128 c 2,14,-1
 235 399 l 1,15,-1
 310 399 l 1,16,-1
 310 125 l 2,17,0
 310 61 310 61 274 27 c 128,-1,1
EndSplineSet
Validated: 1
Position2: "'cpsp' Capital Spacing lookup 0 subtable" dx=5 dy=0 dh=10 dv=0
EndChar

StartChar: Uacute
Encoding: 218 218 106
Width: 345
VWidth: 659
GlyphClass: 2
Flags: W
LayerCount: 2
Back
Fore
SplineSet
190 438 m 1,0,-1
 132 438 l 1,1,-1
 183 515 l 1,2,-1
 252 515 l 1,3,-1
 253 513 l 1,4,-1
 190 438 l 1,0,-1
274 27 m 128,-1,6
 238 -7 238 -7 173 -7 c 256,7,8
 108 -7 108 -7 72 27 c 128,-1,9
 36 61 36 61 36 125 c 2,10,-1
 36 399 l 1,11,-1
 110 399 l 1,12,-1
 110 128 l 2,13,14
 110 94 110 94 126.5 75.5 c 128,-1,15
 143 57 143 57 173 57 c 0,16,17
 202 57 202 57 218.5 75.5 c 128,-1,18
 235 94 235 94 235 128 c 2,19,-1
 235 399 l 1,20,-1
 310 399 l 1,21,-1
 310 125 l 2,22,5
 310 61 310 61 274 27 c 128,-1,6
EndSplineSet
Validated: 1
Position2: "'cpsp' Capital Spacing lookup 0 subtable" dx=5 dy=0 dh=10 dv=0
EndChar

StartChar: Ubreve
Encoding: 364 364 107
Width: 345
VWidth: 659
GlyphClass: 2
Flags: W
LayerCount: 2
Back
Fore
SplineSet
228 471.5 m 128,-1,1
 206 452 206 452 172 452 c 256,2,3
 138 452 138 452 116.5 471.5 c 128,-1,4
 95 491 95 491 95 515 c 1,5,-1
 138 515 l 1,6,7
 140 508 140 508 149.5 501.5 c 128,-1,8
 159 495 159 495 172 495 c 0,9,10
 186 495 186 495 196 501.5 c 128,-1,11
 206 508 206 508 207 515 c 1,12,-1
 250 515 l 1,13,0
 250 491 250 491 228 471.5 c 128,-1,1
274 27 m 128,-1,15
 238 -7 238 -7 173 -7 c 256,16,17
 108 -7 108 -7 72 27 c 128,-1,18
 36 61 36 61 36 125 c 2,19,-1
 36 399 l 1,20,-1
 110 399 l 1,21,-1
 110 128 l 2,22,23
 110 94 110 94 126.5 75.5 c 128,-1,24
 143 57 143 57 173 57 c 0,25,26
 202 57 202 57 218.5 75.5 c 128,-1,27
 235 94 235 94 235 128 c 2,28,-1
 235 399 l 1,29,-1
 310 399 l 1,30,-1
 310 125 l 2,31,14
 310 61 310 61 274 27 c 128,-1,15
EndSplineSet
Validated: 1
Position2: "'cpsp' Capital Spacing lookup 0 subtable" dx=5 dy=0 dh=10 dv=0
EndChar

StartChar: Ucircumflex
Encoding: 219 219 108
Width: 345
VWidth: 659
GlyphClass: 2
Flags: W
LayerCount: 2
Back
Fore
SplineSet
198 436 m 1,0,-1
 173 476 l 1,1,-1
 146 436 l 1,2,-1
 94 436 l 1,3,-1
 144 515 l 1,4,-1
 202 515 l 1,5,-1
 251 436 l 1,6,-1
 198 436 l 1,0,-1
274 27 m 128,-1,8
 238 -7 238 -7 173 -7 c 256,9,10
 108 -7 108 -7 72 27 c 128,-1,11
 36 61 36 61 36 125 c 2,12,-1
 36 399 l 1,13,-1
 110 399 l 1,14,-1
 110 128 l 2,15,16
 110 94 110 94 126.5 75.5 c 128,-1,17
 143 57 143 57 173 57 c 0,18,19
 202 57 202 57 218.5 75.5 c 128,-1,20
 235 94 235 94 235 128 c 2,21,-1
 235 399 l 1,22,-1
 310 399 l 1,23,-1
 310 125 l 2,24,7
 310 61 310 61 274 27 c 128,-1,8
EndSplineSet
Validated: 1
Position2: "'cpsp' Capital Spacing lookup 0 subtable" dx=5 dy=0 dh=10 dv=0
EndChar

StartChar: Udieresis
Encoding: 220 220 109
Width: 345
VWidth: 659
GlyphClass: 2
Flags: W
LayerCount: 2
Back
Fore
SplineSet
93 451 m 1,0,-1
 93 515 l 1,1,-1
 151 515 l 1,2,-1
 151 451 l 1,3,-1
 93 451 l 1,0,-1
194 451 m 1,4,-1
 194 515 l 1,5,-1
 253 515 l 1,6,-1
 253 451 l 1,7,-1
 194 451 l 1,4,-1
274 27 m 128,-1,9
 238 -7 238 -7 173 -7 c 256,10,11
 108 -7 108 -7 72 27 c 128,-1,12
 36 61 36 61 36 125 c 2,13,-1
 36 399 l 1,14,-1
 110 399 l 1,15,-1
 110 128 l 2,16,17
 110 94 110 94 126.5 75.5 c 128,-1,18
 143 57 143 57 173 57 c 0,19,20
 202 57 202 57 218.5 75.5 c 128,-1,21
 235 94 235 94 235 128 c 2,22,-1
 235 399 l 1,23,-1
 310 399 l 1,24,-1
 310 125 l 2,25,8
 310 61 310 61 274 27 c 128,-1,9
EndSplineSet
Validated: 1
Position2: "'cpsp' Capital Spacing lookup 0 subtable" dx=5 dy=0 dh=10 dv=0
EndChar

StartChar: Ugrave
Encoding: 217 217 110
Width: 345
VWidth: 659
GlyphClass: 2
Flags: W
LayerCount: 2
Back
Fore
SplineSet
155 438 m 1,0,-1
 92 513 l 1,1,-1
 93 515 l 1,2,-1
 163 515 l 1,3,-1
 213 438 l 1,4,-1
 155 438 l 1,0,-1
274 27 m 128,-1,6
 238 -7 238 -7 173 -7 c 256,7,8
 108 -7 108 -7 72 27 c 128,-1,9
 36 61 36 61 36 125 c 2,10,-1
 36 399 l 1,11,-1
 110 399 l 1,12,-1
 110 128 l 2,13,14
 110 94 110 94 126.5 75.5 c 128,-1,15
 143 57 143 57 173 57 c 0,16,17
 202 57 202 57 218.5 75.5 c 128,-1,18
 235 94 235 94 235 128 c 2,19,-1
 235 399 l 1,20,-1
 310 399 l 1,21,-1
 310 125 l 2,22,5
 310 61 310 61 274 27 c 128,-1,6
EndSplineSet
Validated: 1
Position2: "'cpsp' Capital Spacing lookup 0 subtable" dx=5 dy=0 dh=10 dv=0
EndChar

StartChar: Uhungarumlaut
Encoding: 368 368 111
Width: 345
VWidth: 659
GlyphClass: 2
Flags: W
LayerCount: 2
Back
Fore
SplineSet
153 438 m 1,0,-1
 107 438 l 1,1,-1
 143 515 l 1,2,-1
 201 515 l 1,3,-1
 202 513 l 1,4,-1
 153 438 l 1,0,-1
234 438 m 1,5,-1
 188 438 l 1,6,-1
 224 515 l 1,7,-1
 283 515 l 1,8,-1
 283 513 l 1,9,-1
 234 438 l 1,5,-1
274 27 m 128,-1,11
 238 -7 238 -7 173 -7 c 256,12,13
 108 -7 108 -7 72 27 c 128,-1,14
 36 61 36 61 36 125 c 2,15,-1
 36 399 l 1,16,-1
 110 399 l 1,17,-1
 110 128 l 2,18,19
 110 94 110 94 126.5 75.5 c 128,-1,20
 143 57 143 57 173 57 c 0,21,22
 202 57 202 57 218.5 75.5 c 128,-1,23
 235 94 235 94 235 128 c 2,24,-1
 235 399 l 1,25,-1
 310 399 l 1,26,-1
 310 125 l 2,27,10
 310 61 310 61 274 27 c 128,-1,11
EndSplineSet
Validated: 1
Position2: "'cpsp' Capital Spacing lookup 0 subtable" dx=5 dy=0 dh=10 dv=0
EndChar

StartChar: Umacron
Encoding: 362 362 112
Width: 345
VWidth: 659
GlyphClass: 2
Flags: W
LayerCount: 2
Back
Fore
SplineSet
98 442 m 1,0,-1
 98 493 l 1,1,-1
 247 493 l 1,2,-1
 247 442 l 1,3,-1
 98 442 l 1,0,-1
274 27 m 128,-1,5
 238 -7 238 -7 173 -7 c 256,6,7
 108 -7 108 -7 72 27 c 128,-1,8
 36 61 36 61 36 125 c 2,9,-1
 36 399 l 1,10,-1
 110 399 l 1,11,-1
 110 128 l 2,12,13
 110 94 110 94 126.5 75.5 c 128,-1,14
 143 57 143 57 173 57 c 0,15,16
 202 57 202 57 218.5 75.5 c 128,-1,17
 235 94 235 94 235 128 c 2,18,-1
 235 399 l 1,19,-1
 310 399 l 1,20,-1
 310 125 l 2,21,4
 310 61 310 61 274 27 c 128,-1,5
EndSplineSet
Validated: 1
Position2: "'cpsp' Capital Spacing lookup 0 subtable" dx=5 dy=0 dh=10 dv=0
EndChar

StartChar: Uogonek
Encoding: 370 370 113
Width: 345
VWidth: 659
GlyphClass: 2
Flags: W
LayerCount: 2
Back
Fore
SplineSet
310 399 m 1,0,-1
 310 130 l 2,1,2
 310 81 310 81 291 49 c 128,-1,3
 272 17 272 17 236 3 c 1,4,5
 229 -5 229 -5 223.5 -16 c 128,-1,6
 218 -27 218 -27 218 -38 c 0,7,8
 218 -51 218 -51 224.5 -59.5 c 128,-1,9
 231 -68 231 -68 244 -68 c 2,10,-1
 258 -68 l 1,11,-1
 258 -100 l 1,12,13
 236 -108 236 -108 219 -108 c 0,14,15
 195 -108 195 -108 178 -95.5 c 128,-1,16
 161 -83 161 -83 161 -55 c 256,17,18
 161 -27 161 -27 178 -7 c 1,19,-1
 173 -7 l 2,20,21
 108 -7 108 -7 72 28 c 128,-1,22
 36 63 36 63 36 130 c 2,23,-1
 36 399 l 1,24,-1
 110 399 l 1,25,-1
 110 132 l 2,26,27
 110 96 110 96 126.5 76.5 c 128,-1,28
 143 57 143 57 173 57 c 256,29,30
 203 57 203 57 219 76.5 c 128,-1,31
 235 96 235 96 235 132 c 2,32,-1
 235 399 l 1,33,-1
 310 399 l 1,0,-1
EndSplineSet
Validated: 1
Position2: "'cpsp' Capital Spacing lookup 0 subtable" dx=5 dy=0 dh=10 dv=0
EndChar

StartChar: Uring
Encoding: 366 366 114
Width: 345
VWidth: 659
GlyphClass: 2
Flags: W
LayerCount: 2
Back
Fore
SplineSet
212.5 515.5 m 128,-1,1
 229 499 229 499 229 476 c 256,2,3
 229 453 229 453 212.5 436.5 c 128,-1,4
 196 420 196 420 173 420 c 256,5,6
 150 420 150 420 133.5 436 c 128,-1,7
 117 452 117 452 117 476 c 0,8,9
 117 499 117 499 133.5 515.5 c 128,-1,10
 150 532 150 532 173 532 c 256,11,0
 196 532 196 532 212.5 515.5 c 128,-1,1
154 495 m 128,-1,13
 146 487 146 487 146 476 c 256,14,15
 146 465 146 465 154 457 c 128,-1,16
 162 449 162 449 173 449 c 256,17,18
 184 449 184 449 191.5 457 c 128,-1,19
 199 465 199 465 199 476 c 256,20,21
 199 487 199 487 191.5 495 c 128,-1,22
 184 503 184 503 173 503 c 256,23,12
 162 503 162 503 154 495 c 128,-1,13
274 27 m 128,-1,25
 238 -7 238 -7 173 -7 c 256,26,27
 108 -7 108 -7 72 27 c 128,-1,28
 36 61 36 61 36 125 c 2,29,-1
 36 399 l 1,30,-1
 110 399 l 1,31,-1
 110 128 l 2,32,33
 110 94 110 94 126.5 75.5 c 128,-1,34
 143 57 143 57 173 57 c 0,35,36
 202 57 202 57 218.5 75.5 c 128,-1,37
 235 94 235 94 235 128 c 2,38,-1
 235 399 l 1,39,-1
 310 399 l 1,40,-1
 310 125 l 2,41,24
 310 61 310 61 274 27 c 128,-1,25
EndSplineSet
Validated: 1
Position2: "'cpsp' Capital Spacing lookup 0 subtable" dx=5 dy=0 dh=10 dv=0
EndChar

StartChar: Utilde
Encoding: 360 360 115
Width: 345
VWidth: 659
GlyphClass: 2
Flags: W
LayerCount: 2
Back
Fore
SplineSet
255.5 465.5 m 128,-1,1
 241 444 241 444 213 444 c 0,2,3
 197 444 197 444 173 455 c 0,4,5
 149 465 149 465 136 465 c 0,6,7
 116 465 116 465 113 444 c 1,8,-1
 74 444 l 1,9,10
 74 471 74 471 89 493 c 128,-1,11
 104 515 104 515 132 515 c 0,12,13
 144 515 144 515 156.5 510 c 128,-1,14
 169 505 169 505 172 504 c 0,15,16
 194 493 194 493 209 493 c 0,17,18
 228 493 228 493 232 515 c 1,19,-1
 270 515 l 1,20,0
 270 487 270 487 255.5 465.5 c 128,-1,1
274 27 m 128,-1,22
 238 -7 238 -7 173 -7 c 256,23,24
 108 -7 108 -7 72 27 c 128,-1,25
 36 61 36 61 36 125 c 2,26,-1
 36 399 l 1,27,-1
 110 399 l 1,28,-1
 110 128 l 2,29,30
 110 94 110 94 126.5 75.5 c 128,-1,31
 143 57 143 57 173 57 c 0,32,33
 202 57 202 57 218.5 75.5 c 128,-1,34
 235 94 235 94 235 128 c 2,35,-1
 235 399 l 1,36,-1
 310 399 l 1,37,-1
 310 125 l 2,38,21
 310 61 310 61 274 27 c 128,-1,22
EndSplineSet
Validated: 1
Position2: "'cpsp' Capital Spacing lookup 0 subtable" dx=5 dy=0 dh=10 dv=0
EndChar

StartChar: V
Encoding: 86 86 116
Width: 319
VWidth: 659
GlyphClass: 2
Flags: W
LayerCount: 2
Back
Fore
SplineSet
0 399 m 1,0,-1
 77 399 l 1,1,-1
 161 113 l 1,2,-1
 163 113 l 1,3,-1
 246 399 l 1,4,-1
 319 399 l 1,5,-1
 197 0 l 1,6,-1
 122 0 l 1,7,-1
 0 399 l 1,0,-1
EndSplineSet
Validated: 1
Position2: "'cpsp' Capital Spacing lookup 0 subtable" dx=5 dy=0 dh=10 dv=0
EndChar

StartChar: W
Encoding: 87 87 117
Width: 451
VWidth: 659
GlyphClass: 2
Flags: W
AnchorPoint: "Anchor-1" 0 0 basechar 0
AnchorPoint: "Anchor-0" 225 399 basechar 0
LayerCount: 2
Back
Fore
SplineSet
234 254 m 2,0,1
 231 267 231 267 228.5 286 c 128,-1,2
 226 305 226 305 226 311 c 1,3,-1
 223 311 l 1,4,5
 222 305 222 305 220 287.5 c 128,-1,6
 218 270 218 270 215 254 c 2,7,-1
 162 0 l 1,8,-1
 87 0 l 1,9,-1
 0 399 l 1,10,-1
 74 399 l 1,11,-1
 122 154 l 2,12,13
 125 138 125 138 126.5 121 c 128,-1,14
 128 104 128 104 129 98 c 1,15,-1
 132 98 l 1,16,17
 133 104 133 104 134.5 121 c 128,-1,18
 136 138 136 138 139 154 c 2,19,-1
 188 399 l 1,20,-1
 272 399 l 1,21,-1
 320 154 l 2,22,23
 323 139 323 139 325 122 c 128,-1,24
 327 105 327 105 328 98 c 1,25,-1
 329 98 l 1,26,27
 330 104 330 104 332 120.5 c 128,-1,28
 334 137 334 137 337 154 c 2,29,-1
 386 399 l 1,30,-1
 450 399 l 1,31,-1
 364 0 l 1,32,-1
 289 0 l 1,33,-1
 234 254 l 2,0,1
EndSplineSet
Validated: 1
Position2: "'cpsp' Capital Spacing lookup 0 subtable" dx=5 dy=0 dh=10 dv=0
EndChar

StartChar: Wacute
Encoding: 7810 7810 118
Width: 451
VWidth: 659
GlyphClass: 2
Flags: W
LayerCount: 2
Back
Fore
SplineSet
243 438 m 1,0,-1
 185 438 l 1,1,-1
 235 515 l 1,2,-1
 305 515 l 1,3,-1
 306 513 l 1,4,-1
 243 438 l 1,0,-1
289 0 m 1,5,-1
 234 254 l 2,6,7
 231 267 231 267 228.5 286 c 128,-1,8
 226 305 226 305 226 311 c 1,9,-1
 223 311 l 1,10,11
 222 305 222 305 220 287.5 c 128,-1,12
 218 270 218 270 215 254 c 2,13,-1
 162 0 l 1,14,-1
 87 0 l 1,15,-1
 0 399 l 1,16,-1
 74 399 l 1,17,-1
 122 154 l 2,18,19
 125 138 125 138 126.5 121 c 128,-1,20
 128 104 128 104 129 98 c 1,21,-1
 132 98 l 1,22,23
 133 104 133 104 134.5 121 c 128,-1,24
 136 138 136 138 139 154 c 2,25,-1
 188 399 l 1,26,-1
 272 399 l 1,27,-1
 320 154 l 2,28,29
 323 139 323 139 325 122 c 128,-1,30
 327 105 327 105 328 98 c 1,31,-1
 329 98 l 1,32,33
 330 104 330 104 332 120.5 c 128,-1,34
 334 137 334 137 337 154 c 2,35,-1
 386 399 l 1,36,-1
 450 399 l 1,37,-1
 364 0 l 1,38,-1
 289 0 l 1,5,-1
EndSplineSet
Validated: 1
Position2: "'cpsp' Capital Spacing lookup 0 subtable" dx=5 dy=0 dh=10 dv=0
EndChar

StartChar: Wcircumflex
Encoding: 372 372 119
Width: 451
VWidth: 659
GlyphClass: 2
Flags: W
LayerCount: 2
Back
Fore
SplineSet
226 476 m 1,0,-1
 200 436 l 1,1,-1
 148 436 l 1,2,-1
 198 515 l 1,3,-1
 254 515 l 1,4,-1
 304 436 l 1,5,-1
 252 436 l 1,6,-1
 226 476 l 1,0,-1
234 254 m 2,7,8
 231 267 231 267 228.5 286 c 128,-1,9
 226 305 226 305 226 311 c 1,10,-1
 223 311 l 1,11,12
 222 305 222 305 220 287.5 c 128,-1,13
 218 270 218 270 215 254 c 2,14,-1
 162 0 l 1,15,-1
 87 0 l 1,16,-1
 0 399 l 1,17,-1
 74 399 l 1,18,-1
 122 154 l 2,19,20
 125 138 125 138 126.5 121 c 128,-1,21
 128 104 128 104 129 98 c 1,22,-1
 132 98 l 1,23,24
 133 104 133 104 134.5 121 c 128,-1,25
 136 138 136 138 139 154 c 2,26,-1
 188 399 l 1,27,-1
 272 399 l 1,28,-1
 320 154 l 2,29,30
 323 139 323 139 325 122 c 128,-1,31
 327 105 327 105 328 98 c 1,32,-1
 329 98 l 1,33,34
 330 104 330 104 332 120.5 c 128,-1,35
 334 137 334 137 337 154 c 2,36,-1
 386 399 l 1,37,-1
 450 399 l 1,38,-1
 364 0 l 1,39,-1
 289 0 l 1,40,-1
 234 254 l 2,7,8
EndSplineSet
Validated: 1
Position2: "'cpsp' Capital Spacing lookup 0 subtable" dx=5 dy=0 dh=10 dv=0
EndChar

StartChar: Wdieresis
Encoding: 7812 7812 120
Width: 451
VWidth: 659
GlyphClass: 2
Flags: W
LayerCount: 2
Back
Fore
SplineSet
146 451 m 1,0,-1
 146 515 l 1,1,-1
 204 515 l 1,2,-1
 204 451 l 1,3,-1
 146 451 l 1,0,-1
248 451 m 1,4,-1
 248 515 l 1,5,-1
 306 515 l 1,6,-1
 306 451 l 1,7,-1
 248 451 l 1,4,-1
289 0 m 1,8,-1
 234 254 l 2,9,10
 231 267 231 267 228.5 286 c 128,-1,11
 226 305 226 305 226 311 c 1,12,-1
 223 311 l 1,13,14
 222 305 222 305 220 287.5 c 128,-1,15
 218 270 218 270 215 254 c 2,16,-1
 162 0 l 1,17,-1
 87 0 l 1,18,-1
 0 399 l 1,19,-1
 74 399 l 1,20,-1
 122 154 l 2,21,22
 125 138 125 138 126.5 121 c 128,-1,23
 128 104 128 104 129 98 c 1,24,-1
 132 98 l 1,25,26
 133 104 133 104 134.5 121 c 128,-1,27
 136 138 136 138 139 154 c 2,28,-1
 188 399 l 1,29,-1
 272 399 l 1,30,-1
 320 154 l 2,31,32
 323 139 323 139 325 122 c 128,-1,33
 327 105 327 105 328 98 c 1,34,-1
 329 98 l 1,35,36
 330 104 330 104 332 120.5 c 128,-1,37
 334 137 334 137 337 154 c 2,38,-1
 386 399 l 1,39,-1
 450 399 l 1,40,-1
 364 0 l 1,41,-1
 289 0 l 1,8,-1
EndSplineSet
Validated: 1
Position2: "'cpsp' Capital Spacing lookup 0 subtable" dx=5 dy=0 dh=10 dv=0
EndChar

StartChar: Wgrave
Encoding: 7808 7808 121
Width: 451
VWidth: 659
GlyphClass: 2
Flags: W
LayerCount: 2
Back
Fore
SplineSet
208 438 m 1,0,-1
 145 513 l 1,1,-1
 146 515 l 1,2,-1
 215 515 l 1,3,-1
 266 438 l 1,4,-1
 208 438 l 1,0,-1
289 0 m 1,5,-1
 234 254 l 2,6,7
 231 267 231 267 228.5 286 c 128,-1,8
 226 305 226 305 226 311 c 1,9,-1
 223 311 l 1,10,11
 222 305 222 305 220 287.5 c 128,-1,12
 218 270 218 270 215 254 c 2,13,-1
 162 0 l 1,14,-1
 87 0 l 1,15,-1
 0 399 l 1,16,-1
 74 399 l 1,17,-1
 122 154 l 2,18,19
 125 138 125 138 126.5 121 c 128,-1,20
 128 104 128 104 129 98 c 1,21,-1
 132 98 l 1,22,23
 133 104 133 104 134.5 121 c 128,-1,24
 136 138 136 138 139 154 c 2,25,-1
 188 399 l 1,26,-1
 272 399 l 1,27,-1
 320 154 l 2,28,29
 323 139 323 139 325 122 c 128,-1,30
 327 105 327 105 328 98 c 1,31,-1
 329 98 l 1,32,33
 330 104 330 104 332 120.5 c 128,-1,34
 334 137 334 137 337 154 c 2,35,-1
 386 399 l 1,36,-1
 450 399 l 1,37,-1
 364 0 l 1,38,-1
 289 0 l 1,5,-1
EndSplineSet
Validated: 1
Position2: "'cpsp' Capital Spacing lookup 0 subtable" dx=5 dy=0 dh=10 dv=0
EndChar

StartChar: X
Encoding: 88 88 122
Width: 319
VWidth: 659
GlyphClass: 2
Flags: W
LayerCount: 2
Back
Fore
SplineSet
318 0 m 1,0,-1
 235 0 l 1,1,-1
 158 151 l 1,2,-1
 155 151 l 1,3,-1
 78 0 l 1,4,-1
 0 0 l 1,5,-1
 113 210 l 1,6,-1
 11 399 l 1,7,-1
 94 399 l 1,8,-1
 161 269 l 1,9,-1
 163 269 l 1,10,-1
 230 399 l 1,11,-1
 308 399 l 1,12,-1
 204 211 l 1,13,-1
 318 0 l 1,0,-1
EndSplineSet
Validated: 1
Position2: "'cpsp' Capital Spacing lookup 0 subtable" dx=5 dy=0 dh=10 dv=0
EndChar

StartChar: Y
Encoding: 89 89 123
Width: 319
VWidth: 659
GlyphClass: 2
Flags: W
AnchorPoint: "Anchor-1" 0 0 basechar 0
AnchorPoint: "Anchor-0" 159 399 basechar 0
LayerCount: 2
Back
Fore
SplineSet
123 0 m 1,0,-1
 123 151 l 1,1,-1
 0 399 l 1,2,-1
 78 399 l 1,3,-1
 160 224 l 1,4,-1
 163 224 l 1,5,-1
 244 399 l 1,6,-1
 319 399 l 1,7,-1
 197 151 l 1,8,-1
 197 0 l 1,9,-1
 123 0 l 1,0,-1
EndSplineSet
Validated: 1
Position2: "'cpsp' Capital Spacing lookup 0 subtable" dx=5 dy=0 dh=10 dv=0
EndChar

StartChar: Yacute
Encoding: 221 221 124
Width: 319
VWidth: 659
GlyphClass: 2
Flags: W
LayerCount: 2
Back
Fore
SplineSet
177 438 m 1,0,-1
 119 438 l 1,1,-1
 169 515 l 1,2,-1
 239 515 l 1,3,-1
 240 513 l 1,4,-1
 177 438 l 1,0,-1
197 0 m 1,5,-1
 123 0 l 1,6,-1
 123 151 l 1,7,-1
 0 399 l 1,8,-1
 78 399 l 1,9,-1
 160 224 l 1,10,-1
 163 224 l 1,11,-1
 244 399 l 1,12,-1
 319 399 l 1,13,-1
 197 151 l 1,14,-1
 197 0 l 1,5,-1
EndSplineSet
Validated: 1
Position2: "'cpsp' Capital Spacing lookup 0 subtable" dx=5 dy=0 dh=10 dv=0
EndChar

StartChar: Ycircumflex
Encoding: 374 374 125
Width: 319
VWidth: 659
GlyphClass: 2
Flags: W
LayerCount: 2
Back
Fore
SplineSet
159 476 m 1,0,-1
 133 436 l 1,1,-1
 81 436 l 1,2,-1
 131 515 l 1,3,-1
 188 515 l 1,4,-1
 238 436 l 1,5,-1
 185 436 l 1,6,-1
 159 476 l 1,0,-1
123 0 m 1,7,-1
 123 151 l 1,8,-1
 0 399 l 1,9,-1
 78 399 l 1,10,-1
 160 224 l 1,11,-1
 163 224 l 1,12,-1
 244 399 l 1,13,-1
 319 399 l 1,14,-1
 197 151 l 1,15,-1
 197 0 l 1,16,-1
 123 0 l 1,7,-1
EndSplineSet
Validated: 1
Position2: "'cpsp' Capital Spacing lookup 0 subtable" dx=5 dy=0 dh=10 dv=0
EndChar

StartChar: Ydieresis
Encoding: 376 376 126
Width: 319
VWidth: 659
GlyphClass: 2
Flags: W
LayerCount: 2
Back
Fore
SplineSet
79 451 m 1,0,-1
 79 515 l 1,1,-1
 138 515 l 1,2,-1
 138 451 l 1,3,-1
 79 451 l 1,0,-1
181 451 m 1,4,-1
 181 515 l 1,5,-1
 239 515 l 1,6,-1
 239 451 l 1,7,-1
 181 451 l 1,4,-1
197 0 m 1,8,-1
 123 0 l 1,9,-1
 123 151 l 1,10,-1
 0 399 l 1,11,-1
 78 399 l 1,12,-1
 160 224 l 1,13,-1
 163 224 l 1,14,-1
 244 399 l 1,15,-1
 319 399 l 1,16,-1
 197 151 l 1,17,-1
 197 0 l 1,8,-1
EndSplineSet
Validated: 1
Position2: "'cpsp' Capital Spacing lookup 0 subtable" dx=5 dy=0 dh=10 dv=0
EndChar

StartChar: Ygrave
Encoding: 7922 7922 127
Width: 319
VWidth: 659
GlyphClass: 2
Flags: W
LayerCount: 2
Back
Fore
SplineSet
142 438 m 1,0,-1
 78 513 l 1,1,-1
 79 515 l 1,2,-1
 149 515 l 1,3,-1
 199 438 l 1,4,-1
 142 438 l 1,0,-1
197 0 m 1,5,-1
 123 0 l 1,6,-1
 123 151 l 1,7,-1
 0 399 l 1,8,-1
 78 399 l 1,9,-1
 160 224 l 1,10,-1
 163 224 l 1,11,-1
 244 399 l 1,12,-1
 319 399 l 1,13,-1
 197 151 l 1,14,-1
 197 0 l 1,5,-1
EndSplineSet
Validated: 1
Position2: "'cpsp' Capital Spacing lookup 0 subtable" dx=5 dy=0 dh=10 dv=0
EndChar

StartChar: Z
Encoding: 90 90 128
Width: 292
VWidth: 659
GlyphClass: 2
Flags: W
AnchorPoint: "Anchor-1" 0 0 basechar 0
AnchorPoint: "Anchor-0" 146 399 basechar 0
LayerCount: 2
Back
Fore
SplineSet
111 67 m 1,0,-1
 279 67 l 1,1,-1
 279 0 l 1,2,-1
 9 0 l 1,3,-1
 9 28 l 1,4,-1
 173 333 l 1,5,-1
 22 333 l 1,6,-1
 22 399 l 1,7,-1
 275 399 l 1,8,-1
 275 370 l 1,9,-1
 111 67 l 1,0,-1
EndSplineSet
Validated: 1
Position2: "'cpsp' Capital Spacing lookup 0 subtable" dx=5 dy=0 dh=10 dv=0
EndChar

StartChar: Zacute
Encoding: 377 377 129
Width: 292
VWidth: 659
GlyphClass: 2
Flags: W
LayerCount: 2
Back
Fore
SplineSet
163 438 m 1,0,-1
 106 438 l 1,1,-1
 156 515 l 1,2,-1
 226 515 l 1,3,-1
 227 513 l 1,4,-1
 163 438 l 1,0,-1
111 67 m 1,5,-1
 279 67 l 1,6,-1
 279 0 l 1,7,-1
 9 0 l 1,8,-1
 9 28 l 1,9,-1
 173 333 l 1,10,-1
 22 333 l 1,11,-1
 22 399 l 1,12,-1
 275 399 l 1,13,-1
 275 370 l 1,14,-1
 111 67 l 1,5,-1
EndSplineSet
Validated: 1
Position2: "'cpsp' Capital Spacing lookup 0 subtable" dx=5 dy=0 dh=10 dv=0
EndChar

StartChar: Zcaron
Encoding: 381 381 130
Width: 292
VWidth: 659
GlyphClass: 2
Flags: W
LayerCount: 2
Back
Fore
SplineSet
118 436 m 1,0,-1
 68 515 l 1,1,-1
 120 515 l 1,2,-1
 146 474 l 1,3,-1
 172 515 l 1,4,-1
 224 515 l 1,5,-1
 175 436 l 1,6,-1
 118 436 l 1,0,-1
111 67 m 1,7,-1
 279 67 l 1,8,-1
 279 0 l 1,9,-1
 9 0 l 1,10,-1
 9 28 l 1,11,-1
 173 333 l 1,12,-1
 22 333 l 1,13,-1
 22 399 l 1,14,-1
 275 399 l 1,15,-1
 275 370 l 1,16,-1
 111 67 l 1,7,-1
EndSplineSet
Validated: 1
Position2: "'cpsp' Capital Spacing lookup 0 subtable" dx=5 dy=0 dh=10 dv=0
EndChar

StartChar: Zdotaccent
Encoding: 379 379 131
Width: 292
VWidth: 659
GlyphClass: 2
Flags: W
LayerCount: 2
Back
Fore
SplineSet
115 447 m 1,0,-1
 115 515 l 1,1,-1
 177 515 l 1,2,-1
 177 447 l 1,3,-1
 115 447 l 1,0,-1
111 67 m 1,4,-1
 279 67 l 1,5,-1
 279 0 l 1,6,-1
 9 0 l 1,7,-1
 9 28 l 1,8,-1
 173 333 l 1,9,-1
 22 333 l 1,10,-1
 22 399 l 1,11,-1
 275 399 l 1,12,-1
 275 370 l 1,13,-1
 111 67 l 1,4,-1
EndSplineSet
Validated: 1
Position2: "'cpsp' Capital Spacing lookup 0 subtable" dx=5 dy=0 dh=10 dv=0
EndChar

StartChar: a
Encoding: 97 97 132
Width: 266
VWidth: 659
GlyphClass: 2
Flags: W
AnchorPoint: "Anchor-1" 0 0 basechar 0
AnchorPoint: "Anchor-0" 133 306 basechar 0
LayerCount: 2
Back
Fore
SplineSet
205 290.5 m 128,-1,1
 231 267 231 267 231 223 c 2,2,-1
 231 72 l 2,3,4
 231 62 231 62 235.5 57 c 128,-1,5
 240 52 240 52 247 52 c 2,6,-1
 261 52 l 1,7,-1
 261 3 l 1,8,9
 247 -7 247 -7 219 -7 c 0,10,11
 199 -7 199 -7 185 4 c 128,-1,12
 171 15 171 15 165 33 c 1,13,-1
 163 33 l 1,14,15
 148 13 148 13 131 3 c 128,-1,16
 114 -7 114 -7 85 -7 c 256,17,18
 56 -7 56 -7 32 12.5 c 128,-1,19
 8 32 8 32 8 79 c 0,20,21
 8 138 8 138 47.5 162 c 128,-1,22
 87 186 87 186 160 186 c 1,23,-1
 160 218 l 2,24,25
 160 236 160 236 153.5 246 c 128,-1,26
 147 256 147 256 128 256 c 256,27,28
 109 256 109 256 100.5 246.5 c 128,-1,29
 92 237 92 237 92 224 c 2,30,-1
 92 215 l 1,31,-1
 23 215 l 1,32,33
 22 219 22 219 22 229 c 0,34,35
 22 267 22 267 50.5 290.5 c 128,-1,36
 79 314 79 314 127 314 c 0,37,0
 179 314 179 314 205 290.5 c 128,-1,1
102.5 124.5 m 128,-1,39
 80 113 80 113 80 86 c 0,40,41
 80 51 80 51 114 51 c 0,42,43
 138 51 138 51 149 69.5 c 128,-1,44
 160 88 160 88 160 118 c 2,45,-1
 160 136 l 1,46,38
 125 136 125 136 102.5 124.5 c 128,-1,39
EndSplineSet
Validated: 1
Substitution2: "Single Substitution lookup 42 subtable" ordfeminine
Substitution2: "'aalt' Access All Alternates lookup 0 subtable" ordfeminine
EndChar

StartChar: aacute
Encoding: 225 225 133
Width: 266
VWidth: 659
GlyphClass: 2
Flags: W
LayerCount: 2
Back
Fore
SplineSet
144 344 m 1,0,-1
 86 344 l 1,1,-1
 136 421 l 1,2,-1
 206 421 l 1,3,-1
 207 419 l 1,4,-1
 144 344 l 1,0,-1
205 290.5 m 128,-1,6
 231 267 231 267 231 223 c 2,7,-1
 231 72 l 2,8,9
 231 62 231 62 235.5 57 c 128,-1,10
 240 52 240 52 247 52 c 2,11,-1
 261 52 l 1,12,-1
 261 3 l 1,13,14
 247 -7 247 -7 219 -7 c 0,15,16
 199 -7 199 -7 185 4 c 128,-1,17
 171 15 171 15 165 33 c 1,18,-1
 163 33 l 1,19,20
 148 13 148 13 131 3 c 128,-1,21
 114 -7 114 -7 85 -7 c 256,22,23
 56 -7 56 -7 32 12.5 c 128,-1,24
 8 32 8 32 8 79 c 0,25,26
 8 138 8 138 47.5 162 c 128,-1,27
 87 186 87 186 160 186 c 1,28,-1
 160 218 l 2,29,30
 160 236 160 236 153.5 246 c 128,-1,31
 147 256 147 256 128 256 c 256,32,33
 109 256 109 256 100.5 246.5 c 128,-1,34
 92 237 92 237 92 224 c 2,35,-1
 92 215 l 1,36,-1
 23 215 l 1,37,38
 22 219 22 219 22 229 c 0,39,40
 22 267 22 267 50.5 290.5 c 128,-1,41
 79 314 79 314 127 314 c 0,42,5
 179 314 179 314 205 290.5 c 128,-1,6
102.5 124.5 m 128,-1,44
 80 113 80 113 80 86 c 0,45,46
 80 51 80 51 114 51 c 0,47,48
 138 51 138 51 149 69.5 c 128,-1,49
 160 88 160 88 160 118 c 2,50,-1
 160 136 l 1,51,43
 125 136 125 136 102.5 124.5 c 128,-1,44
EndSplineSet
Validated: 1
EndChar

StartChar: abreve
Encoding: 259 259 134
Width: 266
VWidth: 659
GlyphClass: 2
Flags: W
LayerCount: 2
Back
Fore
SplineSet
182 378.5 m 128,-1,1
 160 359 160 359 126 359 c 256,2,3
 92 359 92 359 70 378.5 c 128,-1,4
 48 398 48 398 48 421 c 1,5,-1
 92 421 l 1,6,7
 94 414 94 414 103.5 408 c 128,-1,8
 113 402 113 402 126 402 c 0,9,10
 140 402 140 402 149.5 408 c 128,-1,11
 159 414 159 414 161 421 c 1,12,-1
 204 421 l 1,13,0
 204 398 204 398 182 378.5 c 128,-1,1
205 290.5 m 128,-1,15
 231 267 231 267 231 223 c 2,16,-1
 231 72 l 2,17,18
 231 62 231 62 235.5 57 c 128,-1,19
 240 52 240 52 247 52 c 2,20,-1
 261 52 l 1,21,-1
 261 3 l 1,22,23
 247 -7 247 -7 219 -7 c 0,24,25
 199 -7 199 -7 185 4 c 128,-1,26
 171 15 171 15 165 33 c 1,27,-1
 163 33 l 1,28,29
 148 13 148 13 131 3 c 128,-1,30
 114 -7 114 -7 85 -7 c 256,31,32
 56 -7 56 -7 32 12.5 c 128,-1,33
 8 32 8 32 8 79 c 0,34,35
 8 138 8 138 47.5 162 c 128,-1,36
 87 186 87 186 160 186 c 1,37,-1
 160 218 l 2,38,39
 160 236 160 236 153.5 246 c 128,-1,40
 147 256 147 256 128 256 c 256,41,42
 109 256 109 256 100.5 246.5 c 128,-1,43
 92 237 92 237 92 224 c 2,44,-1
 92 215 l 1,45,-1
 23 215 l 1,46,47
 22 219 22 219 22 229 c 0,48,49
 22 267 22 267 50.5 290.5 c 128,-1,50
 79 314 79 314 127 314 c 0,51,14
 179 314 179 314 205 290.5 c 128,-1,15
102.5 124.5 m 128,-1,53
 80 113 80 113 80 86 c 0,54,55
 80 51 80 51 114 51 c 0,56,57
 138 51 138 51 149 69.5 c 128,-1,58
 160 88 160 88 160 118 c 2,59,-1
 160 136 l 1,60,52
 125 136 125 136 102.5 124.5 c 128,-1,53
EndSplineSet
Validated: 1
EndChar

StartChar: acircumflex
Encoding: 226 226 135
Width: 266
VWidth: 659
GlyphClass: 2
Flags: W
LayerCount: 2
Back
Fore
SplineSet
127 383 m 1,0,-1
 100 343 l 1,1,-1
 48 343 l 1,2,-1
 98 421 l 1,3,-1
 156 421 l 1,4,-1
 205 343 l 1,5,-1
 153 343 l 1,6,-1
 127 383 l 1,0,-1
205 290.5 m 128,-1,8
 231 267 231 267 231 223 c 2,9,-1
 231 72 l 2,10,11
 231 62 231 62 235.5 57 c 128,-1,12
 240 52 240 52 247 52 c 2,13,-1
 261 52 l 1,14,-1
 261 3 l 1,15,16
 247 -7 247 -7 219 -7 c 0,17,18
 199 -7 199 -7 185 4 c 128,-1,19
 171 15 171 15 165 33 c 1,20,-1
 163 33 l 1,21,22
 148 13 148 13 131 3 c 128,-1,23
 114 -7 114 -7 85 -7 c 256,24,25
 56 -7 56 -7 32 12.5 c 128,-1,26
 8 32 8 32 8 79 c 0,27,28
 8 138 8 138 47.5 162 c 128,-1,29
 87 186 87 186 160 186 c 1,30,-1
 160 218 l 2,31,32
 160 236 160 236 153.5 246 c 128,-1,33
 147 256 147 256 128 256 c 256,34,35
 109 256 109 256 100.5 246.5 c 128,-1,36
 92 237 92 237 92 224 c 2,37,-1
 92 215 l 1,38,-1
 23 215 l 1,39,40
 22 219 22 219 22 229 c 0,41,42
 22 267 22 267 50.5 290.5 c 128,-1,43
 79 314 79 314 127 314 c 0,44,7
 179 314 179 314 205 290.5 c 128,-1,8
102.5 124.5 m 128,-1,46
 80 113 80 113 80 86 c 0,47,48
 80 51 80 51 114 51 c 0,49,50
 138 51 138 51 149 69.5 c 128,-1,51
 160 88 160 88 160 118 c 2,52,-1
 160 136 l 1,53,45
 125 136 125 136 102.5 124.5 c 128,-1,46
EndSplineSet
Validated: 1
EndChar

StartChar: adieresis
Encoding: 228 228 136
Width: 266
VWidth: 659
GlyphClass: 2
Flags: W
LayerCount: 2
Back
Fore
SplineSet
47 358 m 1,0,-1
 47 421 l 1,1,-1
 105 421 l 1,2,-1
 105 358 l 1,3,-1
 47 358 l 1,0,-1
148 358 m 1,4,-1
 148 421 l 1,5,-1
 206 421 l 1,6,-1
 206 358 l 1,7,-1
 148 358 l 1,4,-1
205 290.5 m 128,-1,9
 231 267 231 267 231 223 c 2,10,-1
 231 72 l 2,11,12
 231 62 231 62 235.5 57 c 128,-1,13
 240 52 240 52 247 52 c 2,14,-1
 261 52 l 1,15,-1
 261 3 l 1,16,17
 247 -7 247 -7 219 -7 c 0,18,19
 199 -7 199 -7 185 4 c 128,-1,20
 171 15 171 15 165 33 c 1,21,-1
 163 33 l 1,22,23
 148 13 148 13 131 3 c 128,-1,24
 114 -7 114 -7 85 -7 c 256,25,26
 56 -7 56 -7 32 12.5 c 128,-1,27
 8 32 8 32 8 79 c 0,28,29
 8 138 8 138 47.5 162 c 128,-1,30
 87 186 87 186 160 186 c 1,31,-1
 160 218 l 2,32,33
 160 236 160 236 153.5 246 c 128,-1,34
 147 256 147 256 128 256 c 256,35,36
 109 256 109 256 100.5 246.5 c 128,-1,37
 92 237 92 237 92 224 c 2,38,-1
 92 215 l 1,39,-1
 23 215 l 1,40,41
 22 219 22 219 22 229 c 0,42,43
 22 267 22 267 50.5 290.5 c 128,-1,44
 79 314 79 314 127 314 c 0,45,8
 179 314 179 314 205 290.5 c 128,-1,9
102.5 124.5 m 128,-1,47
 80 113 80 113 80 86 c 0,48,49
 80 51 80 51 114 51 c 0,50,51
 138 51 138 51 149 69.5 c 128,-1,52
 160 88 160 88 160 118 c 2,53,-1
 160 136 l 1,54,46
 125 136 125 136 102.5 124.5 c 128,-1,47
EndSplineSet
Validated: 1
EndChar

StartChar: agrave
Encoding: 224 224 137
Width: 266
VWidth: 659
GlyphClass: 2
Flags: W
LayerCount: 2
Back
Fore
SplineSet
109 344 m 1,0,-1
 46 419 l 1,1,-1
 47 421 l 1,2,-1
 117 421 l 1,3,-1
 167 344 l 1,4,-1
 109 344 l 1,0,-1
205 290.5 m 128,-1,6
 231 267 231 267 231 223 c 2,7,-1
 231 72 l 2,8,9
 231 62 231 62 235.5 57 c 128,-1,10
 240 52 240 52 247 52 c 2,11,-1
 261 52 l 1,12,-1
 261 3 l 1,13,14
 247 -7 247 -7 219 -7 c 0,15,16
 199 -7 199 -7 185 4 c 128,-1,17
 171 15 171 15 165 33 c 1,18,-1
 163 33 l 1,19,20
 148 13 148 13 131 3 c 128,-1,21
 114 -7 114 -7 85 -7 c 256,22,23
 56 -7 56 -7 32 12.5 c 128,-1,24
 8 32 8 32 8 79 c 0,25,26
 8 138 8 138 47.5 162 c 128,-1,27
 87 186 87 186 160 186 c 1,28,-1
 160 218 l 2,29,30
 160 236 160 236 153.5 246 c 128,-1,31
 147 256 147 256 128 256 c 256,32,33
 109 256 109 256 100.5 246.5 c 128,-1,34
 92 237 92 237 92 224 c 2,35,-1
 92 215 l 1,36,-1
 23 215 l 1,37,38
 22 219 22 219 22 229 c 0,39,40
 22 267 22 267 50.5 290.5 c 128,-1,41
 79 314 79 314 127 314 c 0,42,5
 179 314 179 314 205 290.5 c 128,-1,6
102.5 124.5 m 128,-1,44
 80 113 80 113 80 86 c 0,45,46
 80 51 80 51 114 51 c 0,47,48
 138 51 138 51 149 69.5 c 128,-1,49
 160 88 160 88 160 118 c 2,50,-1
 160 136 l 1,51,43
 125 136 125 136 102.5 124.5 c 128,-1,44
EndSplineSet
Validated: 1
EndChar

StartChar: amacron
Encoding: 257 257 138
Width: 266
VWidth: 659
GlyphClass: 2
Flags: W
LayerCount: 2
Back
Fore
SplineSet
52 399 m 1,0,-1
 201 399 l 1,1,-1
 201 349 l 1,2,-1
 52 349 l 1,3,-1
 52 399 l 1,0,-1
205 290.5 m 128,-1,5
 231 267 231 267 231 223 c 2,6,-1
 231 72 l 2,7,8
 231 62 231 62 235.5 57 c 128,-1,9
 240 52 240 52 247 52 c 2,10,-1
 261 52 l 1,11,-1
 261 3 l 1,12,13
 247 -7 247 -7 219 -7 c 0,14,15
 199 -7 199 -7 185 4 c 128,-1,16
 171 15 171 15 165 33 c 1,17,-1
 163 33 l 1,18,19
 148 13 148 13 131 3 c 128,-1,20
 114 -7 114 -7 85 -7 c 256,21,22
 56 -7 56 -7 32 12.5 c 128,-1,23
 8 32 8 32 8 79 c 0,24,25
 8 138 8 138 47.5 162 c 128,-1,26
 87 186 87 186 160 186 c 1,27,-1
 160 218 l 2,28,29
 160 236 160 236 153.5 246 c 128,-1,30
 147 256 147 256 128 256 c 256,31,32
 109 256 109 256 100.5 246.5 c 128,-1,33
 92 237 92 237 92 224 c 2,34,-1
 92 215 l 1,35,-1
 23 215 l 1,36,37
 22 219 22 219 22 229 c 0,38,39
 22 267 22 267 50.5 290.5 c 128,-1,40
 79 314 79 314 127 314 c 0,41,4
 179 314 179 314 205 290.5 c 128,-1,5
102.5 124.5 m 128,-1,43
 80 113 80 113 80 86 c 0,44,45
 80 51 80 51 114 51 c 0,46,47
 138 51 138 51 149 69.5 c 128,-1,48
 160 88 160 88 160 118 c 2,49,-1
 160 136 l 1,50,42
 125 136 125 136 102.5 124.5 c 128,-1,43
EndSplineSet
Validated: 1
EndChar

StartChar: aogonek
Encoding: 261 261 139
Width: 266
VWidth: 659
GlyphClass: 2
Flags: W
LayerCount: 2
Back
Fore
SplineSet
244 -108 m 0,1,2
 221 -108 221 -108 203.5 -95.5 c 128,-1,3
 186 -83 186 -83 186 -56 c 0,4,5
 186 -28 186 -28 204 -5 c 1,6,7
 190 -2 190 -2 180 8 c 128,-1,8
 170 18 170 18 165 33 c 1,9,-1
 163 33 l 1,10,11
 148 13 148 13 131 3 c 128,-1,12
 114 -7 114 -7 85 -7 c 256,13,14
 56 -7 56 -7 32 12.5 c 128,-1,15
 8 32 8 32 8 79 c 0,16,17
 8 138 8 138 47.5 162 c 128,-1,18
 87 186 87 186 160 186 c 1,19,-1
 160 218 l 2,20,21
 160 236 160 236 153.5 246 c 128,-1,22
 147 256 147 256 128 256 c 256,23,24
 109 256 109 256 100.5 246.5 c 128,-1,25
 92 237 92 237 92 224 c 2,26,-1
 92 215 l 1,27,-1
 23 215 l 1,28,29
 22 219 22 219 22 229 c 0,30,31
 22 267 22 267 50.5 290.5 c 128,-1,32
 79 314 79 314 127 314 c 0,33,34
 179 314 179 314 205 290.5 c 128,-1,35
 231 267 231 267 231 223 c 2,36,-1
 231 72 l 2,37,38
 231 62 231 62 235.5 57 c 128,-1,39
 240 52 240 52 247 52 c 2,40,-1
 261 52 l 1,41,-1
 261 3 l 1,42,43
 244 -19 244 -19 244 -38 c 0,44,45
 244 -68 244 -68 270 -68 c 2,46,-1
 283 -68 l 1,47,-1
 283 -100 l 1,48,0
 261 -108 261 -108 244 -108 c 0,1,2
102.5 124.5 m 128,-1,50
 80 113 80 113 80 86 c 0,51,52
 80 51 80 51 114 51 c 0,53,54
 138 51 138 51 149 69.5 c 128,-1,55
 160 88 160 88 160 118 c 2,56,-1
 160 136 l 1,57,49
 125 136 125 136 102.5 124.5 c 128,-1,50
EndSplineSet
Validated: 1
EndChar

StartChar: aring
Encoding: 229 229 140
Width: 266
VWidth: 659
GlyphClass: 2
Flags: W
LayerCount: 2
Back
Fore
SplineSet
166.5 422.5 m 128,-1,1
 183 406 183 406 183 383 c 256,2,3
 183 360 183 360 166.5 343.5 c 128,-1,4
 150 327 150 327 127 327 c 256,5,6
 104 327 104 327 87.5 343 c 128,-1,7
 71 359 71 359 71 383 c 0,8,9
 71 406 71 406 87.5 422.5 c 128,-1,10
 104 439 104 439 127 439 c 256,11,0
 150 439 150 439 166.5 422.5 c 128,-1,1
107.5 401.5 m 128,-1,13
 100 394 100 394 100 383 c 256,14,15
 100 372 100 372 107.5 364 c 128,-1,16
 115 356 115 356 127 356 c 0,17,18
 138 356 138 356 145.5 364 c 128,-1,19
 153 372 153 372 153 383 c 256,20,21
 153 394 153 394 145.5 401.5 c 128,-1,22
 138 409 138 409 127 409 c 0,23,12
 115 409 115 409 107.5 401.5 c 128,-1,13
205 290.5 m 128,-1,25
 231 267 231 267 231 223 c 2,26,-1
 231 72 l 2,27,28
 231 62 231 62 235.5 57 c 128,-1,29
 240 52 240 52 247 52 c 2,30,-1
 261 52 l 1,31,-1
 261 3 l 1,32,33
 247 -7 247 -7 219 -7 c 0,34,35
 199 -7 199 -7 185 4 c 128,-1,36
 171 15 171 15 165 33 c 1,37,-1
 163 33 l 1,38,39
 148 13 148 13 131 3 c 128,-1,40
 114 -7 114 -7 85 -7 c 256,41,42
 56 -7 56 -7 32 12.5 c 128,-1,43
 8 32 8 32 8 79 c 0,44,45
 8 138 8 138 47.5 162 c 128,-1,46
 87 186 87 186 160 186 c 1,47,-1
 160 218 l 2,48,49
 160 236 160 236 153.5 246 c 128,-1,50
 147 256 147 256 128 256 c 256,51,52
 109 256 109 256 100.5 246.5 c 128,-1,53
 92 237 92 237 92 224 c 2,54,-1
 92 215 l 1,55,-1
 23 215 l 1,56,57
 22 219 22 219 22 229 c 0,58,59
 22 267 22 267 50.5 290.5 c 128,-1,60
 79 314 79 314 127 314 c 0,61,24
 179 314 179 314 205 290.5 c 128,-1,25
102.5 124.5 m 128,-1,63
 80 113 80 113 80 86 c 0,64,65
 80 51 80 51 114 51 c 0,66,67
 138 51 138 51 149 69.5 c 128,-1,68
 160 88 160 88 160 118 c 2,69,-1
 160 136 l 1,70,62
 125 136 125 136 102.5 124.5 c 128,-1,63
EndSplineSet
Validated: 1
EndChar

StartChar: aringacute
Encoding: 507 507 141
Width: 291
VWidth: 659
GlyphClass: 2
Flags: W
LayerCount: 2
Back
Fore
SplineSet
159 447 m 1,0,-1
 101 447 l 1,1,-1
 145 515 l 1,2,-1
 215 515 l 1,3,-1
 215 513 l 1,4,-1
 159 447 l 1,0,-1
166.5 419 m 128,-1,6
 183 403 183 403 183 381 c 256,7,8
 183 359 183 359 166.5 343 c 128,-1,9
 150 327 150 327 127 327 c 256,10,11
 104 327 104 327 87.5 343 c 128,-1,12
 71 359 71 359 71 381 c 256,13,14
 71 403 71 403 87.5 419 c 128,-1,15
 104 435 104 435 127 435 c 256,16,5
 150 435 150 435 166.5 419 c 128,-1,6
107.5 399.5 m 128,-1,18
 100 392 100 392 100 381 c 256,19,20
 100 370 100 370 107.5 362.5 c 128,-1,21
 115 355 115 355 127 355 c 0,22,23
 138 355 138 355 145.5 362.5 c 128,-1,24
 153 370 153 370 153 381 c 256,25,26
 153 392 153 392 145.5 399.5 c 128,-1,27
 138 407 138 407 127 407 c 0,28,17
 115 407 115 407 107.5 399.5 c 128,-1,18
205 290.5 m 128,-1,30
 231 267 231 267 231 223 c 2,31,-1
 231 72 l 2,32,33
 231 62 231 62 235.5 57 c 128,-1,34
 240 52 240 52 247 52 c 2,35,-1
 261 52 l 1,36,-1
 261 3 l 1,37,38
 247 -7 247 -7 219 -7 c 0,39,40
 199 -7 199 -7 185 4 c 128,-1,41
 171 15 171 15 165 33 c 1,42,-1
 163 33 l 1,43,44
 148 13 148 13 131 3 c 128,-1,45
 114 -7 114 -7 85 -7 c 256,46,47
 56 -7 56 -7 32 12.5 c 128,-1,48
 8 32 8 32 8 79 c 0,49,50
 8 138 8 138 47.5 162 c 128,-1,51
 87 186 87 186 160 186 c 1,52,-1
 160 218 l 2,53,54
 160 236 160 236 153.5 246 c 128,-1,55
 147 256 147 256 128 256 c 256,56,57
 109 256 109 256 100.5 246.5 c 128,-1,58
 92 237 92 237 92 224 c 2,59,-1
 92 215 l 1,60,-1
 23 215 l 1,61,62
 22 219 22 219 22 229 c 0,63,64
 22 267 22 267 50.5 290.5 c 128,-1,65
 79 314 79 314 127 314 c 0,66,29
 179 314 179 314 205 290.5 c 128,-1,30
102.5 124.5 m 128,-1,68
 80 113 80 113 80 86 c 0,69,70
 80 51 80 51 114 51 c 0,71,72
 138 51 138 51 149 69.5 c 128,-1,73
 160 88 160 88 160 118 c 2,74,-1
 160 136 l 1,75,67
 125 136 125 136 102.5 124.5 c 128,-1,68
EndSplineSet
Validated: 1
EndChar

StartChar: atilde
Encoding: 227 227 142
Width: 266
VWidth: 659
GlyphClass: 2
Flags: W
LayerCount: 2
Back
Fore
SplineSet
209.5 371.5 m 128,-1,1
 195 350 195 350 167 350 c 0,2,3
 154 350 154 350 141.5 355 c 128,-1,4
 129 360 129 360 126 361 c 0,5,6
 104 372 104 372 90 372 c 0,7,8
 70 372 70 372 67 350 c 1,9,-1
 28 350 l 1,10,11
 28 378 28 378 43 399.5 c 128,-1,12
 58 421 58 421 86 421 c 0,13,14
 98 421 98 421 110.5 416 c 128,-1,15
 123 411 123 411 126 410 c 0,16,17
 148 399 148 399 163 399 c 0,18,19
 182 399 182 399 186 421 c 1,20,-1
 224 421 l 1,21,0
 224 393 224 393 209.5 371.5 c 128,-1,1
205 290.5 m 128,-1,23
 231 267 231 267 231 223 c 2,24,-1
 231 72 l 2,25,26
 231 62 231 62 235.5 57 c 128,-1,27
 240 52 240 52 247 52 c 2,28,-1
 261 52 l 1,29,-1
 261 3 l 1,30,31
 247 -7 247 -7 219 -7 c 0,32,33
 199 -7 199 -7 185 4 c 128,-1,34
 171 15 171 15 165 33 c 1,35,-1
 163 33 l 1,36,37
 148 13 148 13 131 3 c 128,-1,38
 114 -7 114 -7 85 -7 c 256,39,40
 56 -7 56 -7 32 12.5 c 128,-1,41
 8 32 8 32 8 79 c 0,42,43
 8 138 8 138 47.5 162 c 128,-1,44
 87 186 87 186 160 186 c 1,45,-1
 160 218 l 2,46,47
 160 236 160 236 153.5 246 c 128,-1,48
 147 256 147 256 128 256 c 256,49,50
 109 256 109 256 100.5 246.5 c 128,-1,51
 92 237 92 237 92 224 c 2,52,-1
 92 215 l 1,53,-1
 23 215 l 1,54,55
 22 219 22 219 22 229 c 0,56,57
 22 267 22 267 50.5 290.5 c 128,-1,58
 79 314 79 314 127 314 c 0,59,22
 179 314 179 314 205 290.5 c 128,-1,23
102.5 124.5 m 128,-1,61
 80 113 80 113 80 86 c 0,62,63
 80 51 80 51 114 51 c 0,64,65
 138 51 138 51 149 69.5 c 128,-1,66
 160 88 160 88 160 118 c 2,67,-1
 160 136 l 1,68,60
 125 136 125 136 102.5 124.5 c 128,-1,61
EndSplineSet
Validated: 1
EndChar

StartChar: ae
Encoding: 230 230 143
Width: 424
VWidth: 659
GlyphClass: 2
Flags: W
AnchorPoint: "Anchor-1" 0 0 basechar 0
AnchorPoint: "Anchor-0" 213 306 basechar 0
LayerCount: 2
Back
Fore
SplineSet
374.5 275 m 128,-1,1
 402 236 402 236 402 153 c 2,2,-1
 402 136 l 1,3,-1
 246 136 l 1,4,5
 247 93 247 93 258 71.5 c 128,-1,6
 269 50 269 50 294 50 c 0,7,8
 312 50 312 50 322.5 65.5 c 128,-1,9
 333 81 333 81 333 108 c 1,10,-1
 402 108 l 1,11,12
 402 52 402 52 372.5 22.5 c 128,-1,13
 343 -7 343 -7 294 -7 c 0,14,15
 232 -7 232 -7 202 34 c 1,16,17
 184 14 184 14 162 3.5 c 128,-1,18
 140 -7 140 -7 110 -7 c 0,19,20
 77 -7 77 -7 49.5 12.5 c 128,-1,21
 22 32 22 32 22 79 c 0,22,23
 22 138 22 138 61.5 162 c 128,-1,24
 101 186 101 186 173 186 c 1,25,-1
 173 218 l 2,26,27
 173 236 173 236 166.5 246 c 128,-1,28
 160 256 160 256 142 256 c 0,29,30
 122 256 122 256 113.5 246.5 c 128,-1,31
 105 237 105 237 105 224 c 2,32,-1
 105 215 l 1,33,-1
 37 215 l 1,34,35
 36 219 36 219 36 229 c 0,36,37
 36 267 36 267 64.5 290.5 c 128,-1,38
 93 314 93 314 140 314 c 0,39,40
 191 314 191 314 218 284 c 1,41,42
 247 314 247 314 291 314 c 0,43,0
 347 314 347 314 374.5 275 c 128,-1,1
247 186 m 1,45,-1
 329 186 l 1,46,47
 329 256 329 256 291 256 c 0,48,44
 250 256 250 256 247 186 c 1,45,-1
115.5 124.5 m 128,-1,50
 93 113 93 113 93 86 c 0,51,52
 93 51 93 51 128 51 c 0,53,54
 151 51 151 51 162 69.5 c 128,-1,55
 173 88 173 88 173 118 c 2,56,-1
 173 136 l 1,57,49
 138 136 138 136 115.5 124.5 c 128,-1,50
EndSplineSet
Validated: 1
EndChar

StartChar: aeacute
Encoding: 509 509 144
Width: 424
VWidth: 659
GlyphClass: 2
Flags: W
LayerCount: 2
Back
Fore
SplineSet
230 344 m 1,0,-1
 173 344 l 1,1,-1
 223 421 l 1,2,-1
 293 421 l 1,3,-1
 293 419 l 1,4,-1
 230 344 l 1,0,-1
374.5 275 m 128,-1,6
 402 236 402 236 402 153 c 2,7,-1
 402 136 l 1,8,-1
 246 136 l 1,9,10
 247 93 247 93 258 71.5 c 128,-1,11
 269 50 269 50 294 50 c 0,12,13
 312 50 312 50 322.5 65.5 c 128,-1,14
 333 81 333 81 333 108 c 1,15,-1
 402 108 l 1,16,17
 402 52 402 52 372.5 22.5 c 128,-1,18
 343 -7 343 -7 294 -7 c 0,19,20
 232 -7 232 -7 202 34 c 1,21,22
 184 14 184 14 162 3.5 c 128,-1,23
 140 -7 140 -7 110 -7 c 0,24,25
 77 -7 77 -7 49.5 12.5 c 128,-1,26
 22 32 22 32 22 79 c 0,27,28
 22 138 22 138 61.5 162 c 128,-1,29
 101 186 101 186 173 186 c 1,30,-1
 173 218 l 2,31,32
 173 236 173 236 166.5 246 c 128,-1,33
 160 256 160 256 142 256 c 0,34,35
 122 256 122 256 113.5 246.5 c 128,-1,36
 105 237 105 237 105 224 c 2,37,-1
 105 215 l 1,38,-1
 37 215 l 1,39,40
 36 219 36 219 36 229 c 0,41,42
 36 267 36 267 64.5 290.5 c 128,-1,43
 93 314 93 314 140 314 c 0,44,45
 191 314 191 314 218 284 c 1,46,47
 247 314 247 314 291 314 c 0,48,5
 347 314 347 314 374.5 275 c 128,-1,6
247 186 m 1,50,-1
 329 186 l 1,51,52
 329 256 329 256 291 256 c 0,53,49
 250 256 250 256 247 186 c 1,50,-1
115.5 124.5 m 128,-1,55
 93 113 93 113 93 86 c 0,56,57
 93 51 93 51 128 51 c 0,58,59
 151 51 151 51 162 69.5 c 128,-1,60
 173 88 173 88 173 118 c 2,61,-1
 173 136 l 1,62,54
 138 136 138 136 115.5 124.5 c 128,-1,55
EndSplineSet
Validated: 1
EndChar

StartChar: b
Encoding: 98 98 145
Width: 292
VWidth: 659
GlyphClass: 2
Flags: W
LayerCount: 2
Back
Fore
SplineSet
105 275 m 1,0,1
 113 293 113 293 131.5 303.5 c 128,-1,2
 150 314 150 314 173 314 c 0,3,4
 216 314 216 314 242 274 c 128,-1,5
 268 234 268 234 268 154 c 0,6,7
 268 73 268 73 242 33 c 128,-1,8
 216 -7 216 -7 169 -7 c 0,9,10
 147 -7 147 -7 129 4.5 c 128,-1,11
 111 16 111 16 100 38 c 1,12,-1
 98 38 l 1,13,-1
 90 0 l 1,14,-1
 32 0 l 1,15,-1
 32 421 l 1,16,-1
 102 421 l 1,17,-1
 102 275 l 1,18,-1
 105 275 l 1,0,1
102 163 m 2,20,-1
 102 142 l 2,21,22
 102 100 102 100 113 78.5 c 128,-1,23
 124 57 124 57 148 57 c 0,24,25
 173 57 173 57 184 78 c 128,-1,26
 195 99 195 99 195 142 c 2,27,-1
 195 164 l 2,28,29
 195 207 195 207 184 228.5 c 128,-1,30
 173 250 173 250 148 250 c 0,31,19
 102 250 102 250 102 163 c 2,20,-1
EndSplineSet
Validated: 1
EndChar

StartChar: c
Encoding: 99 99 146
Width: 266
VWidth: 659
GlyphClass: 2
Flags: W
AnchorPoint: "Anchor-1" 133 0 basechar 0
AnchorPoint: "Anchor-0" 133 306 basechar 0
LayerCount: 2
Back
Fore
SplineSet
216.5 284 m 128,-1,1
 244 254 244 254 244 191 c 1,2,-1
 173 191 l 1,3,4
 173 254 173 254 138 254 c 0,5,6
 116 254 116 254 106.5 232 c 128,-1,7
 97 210 97 210 97 164 c 2,8,-1
 97 142 l 2,9,10
 97 96 97 96 107 74 c 128,-1,11
 117 52 117 52 140 52 c 0,12,13
 158 52 158 52 166.5 67.5 c 128,-1,14
 175 83 175 83 175 115 c 1,15,-1
 244 115 l 1,16,17
 244 53 244 53 217 23 c 128,-1,18
 190 -7 190 -7 140 -7 c 0,19,20
 80 -7 80 -7 52 31.5 c 128,-1,21
 24 70 24 70 24 153 c 256,22,23
 24 236 24 236 52.5 275 c 128,-1,24
 81 314 81 314 138 314 c 0,25,0
 189 314 189 314 216.5 284 c 128,-1,1
EndSplineSet
Validated: 1
EndChar

StartChar: cacute
Encoding: 263 263 147
Width: 266
VWidth: 659
GlyphClass: 2
Flags: W
LayerCount: 2
Back
Fore
SplineSet
156 344 m 1,0,-1
 98 344 l 1,1,-1
 148 421 l 1,2,-1
 218 421 l 1,3,-1
 218 419 l 1,4,-1
 156 344 l 1,0,-1
216.5 284 m 128,-1,6
 244 254 244 254 244 191 c 1,7,-1
 173 191 l 1,8,9
 173 254 173 254 138 254 c 0,10,11
 116 254 116 254 106.5 232 c 128,-1,12
 97 210 97 210 97 164 c 2,13,-1
 97 142 l 2,14,15
 97 96 97 96 107 74 c 128,-1,16
 117 52 117 52 140 52 c 0,17,18
 158 52 158 52 166.5 67.5 c 128,-1,19
 175 83 175 83 175 115 c 1,20,-1
 244 115 l 1,21,22
 244 53 244 53 217 23 c 128,-1,23
 190 -7 190 -7 140 -7 c 0,24,25
 80 -7 80 -7 52 31.5 c 128,-1,26
 24 70 24 70 24 153 c 256,27,28
 24 236 24 236 52.5 275 c 128,-1,29
 81 314 81 314 138 314 c 0,30,5
 189 314 189 314 216.5 284 c 128,-1,6
EndSplineSet
Validated: 1
EndChar

StartChar: ccaron
Encoding: 269 269 148
Width: 266
VWidth: 659
GlyphClass: 2
Flags: W
LayerCount: 2
Back
Fore
SplineSet
60 421 m 1,0,-1
 113 421 l 1,1,-1
 138 381 l 1,2,-1
 164 421 l 1,3,-1
 217 421 l 1,4,-1
 167 343 l 1,5,-1
 110 343 l 1,6,-1
 60 421 l 1,0,-1
216.5 284 m 128,-1,8
 244 254 244 254 244 191 c 1,9,-1
 173 191 l 1,10,11
 173 254 173 254 138 254 c 0,12,13
 116 254 116 254 106.5 232 c 128,-1,14
 97 210 97 210 97 164 c 2,15,-1
 97 142 l 2,16,17
 97 96 97 96 107 74 c 128,-1,18
 117 52 117 52 140 52 c 0,19,20
 158 52 158 52 166.5 67.5 c 128,-1,21
 175 83 175 83 175 115 c 1,22,-1
 244 115 l 1,23,24
 244 53 244 53 217 23 c 128,-1,25
 190 -7 190 -7 140 -7 c 0,26,27
 80 -7 80 -7 52 31.5 c 128,-1,28
 24 70 24 70 24 153 c 256,29,30
 24 236 24 236 52.5 275 c 128,-1,31
 81 314 81 314 138 314 c 0,32,7
 189 314 189 314 216.5 284 c 128,-1,8
EndSplineSet
Validated: 1
EndChar

StartChar: ccedilla
Encoding: 231 231 149
Width: 266
VWidth: 659
GlyphClass: 2
Flags: W
LayerCount: 2
Back
Fore
SplineSet
216.5 284 m 128,-1,1
 244 254 244 254 244 191 c 1,2,-1
 173 191 l 1,3,4
 173 254 173 254 138 254 c 0,5,6
 116 254 116 254 106.5 232 c 128,-1,7
 97 210 97 210 97 164 c 2,8,-1
 97 142 l 2,9,10
 97 96 97 96 107 74 c 128,-1,11
 117 52 117 52 140 52 c 0,12,13
 158 52 158 52 166.5 67.5 c 128,-1,14
 175 83 175 83 175 115 c 1,15,-1
 244 115 l 1,16,17
 244 3 244 3 153 -7 c 1,18,-1
 152 -19 l 1,19,20
 173 -21 173 -21 185.5 -30.5 c 128,-1,21
 198 -40 198 -40 198 -59 c 0,22,23
 198 -85 198 -85 178.5 -95.5 c 128,-1,24
 159 -106 159 -106 134 -106 c 0,25,26
 108 -106 108 -106 85 -101 c 1,27,-1
 85 -73 l 1,28,-1
 127 -73 l 2,29,30
 148 -73 148 -73 148 -59 c 0,31,32
 148 -51 148 -51 143.5 -48 c 128,-1,33
 139 -45 139 -45 128 -45 c 2,34,-1
 109 -45 l 1,35,-1
 113 -5 l 1,36,37
 67 2 67 2 45.5 41 c 128,-1,38
 24 80 24 80 24 153 c 0,39,40
 24 236 24 236 52.5 275 c 128,-1,41
 81 314 81 314 138 314 c 0,42,0
 189 314 189 314 216.5 284 c 128,-1,1
EndSplineSet
Validated: 1
EndChar

StartChar: ccircumflex
Encoding: 265 265 150
Width: 266
VWidth: 659
GlyphClass: 2
Flags: W
LayerCount: 2
Back
Fore
SplineSet
138 383 m 1,0,-1
 113 343 l 1,1,-1
 60 343 l 1,2,-1
 110 421 l 1,3,-1
 167 421 l 1,4,-1
 217 343 l 1,5,-1
 164 343 l 1,6,-1
 138 383 l 1,0,-1
216.5 284 m 128,-1,8
 244 254 244 254 244 191 c 1,9,-1
 173 191 l 1,10,11
 173 254 173 254 138 254 c 0,12,13
 116 254 116 254 106.5 232 c 128,-1,14
 97 210 97 210 97 164 c 2,15,-1
 97 142 l 2,16,17
 97 96 97 96 107 74 c 128,-1,18
 117 52 117 52 140 52 c 0,19,20
 158 52 158 52 166.5 67.5 c 128,-1,21
 175 83 175 83 175 115 c 1,22,-1
 244 115 l 1,23,24
 244 53 244 53 217 23 c 128,-1,25
 190 -7 190 -7 140 -7 c 0,26,27
 80 -7 80 -7 52 31.5 c 128,-1,28
 24 70 24 70 24 153 c 256,29,30
 24 236 24 236 52.5 275 c 128,-1,31
 81 314 81 314 138 314 c 0,32,7
 189 314 189 314 216.5 284 c 128,-1,8
EndSplineSet
Validated: 1
EndChar

StartChar: cdotaccent
Encoding: 267 267 151
Width: 266
VWidth: 659
GlyphClass: 2
Flags: W
LayerCount: 2
Back
Fore
SplineSet
107 421 m 1,0,-1
 169 421 l 1,1,-1
 169 354 l 1,2,-1
 107 354 l 1,3,-1
 107 421 l 1,0,-1
216.5 284 m 128,-1,5
 244 254 244 254 244 191 c 1,6,-1
 173 191 l 1,7,8
 173 254 173 254 138 254 c 0,9,10
 116 254 116 254 106.5 232 c 128,-1,11
 97 210 97 210 97 164 c 2,12,-1
 97 142 l 2,13,14
 97 96 97 96 107 74 c 128,-1,15
 117 52 117 52 140 52 c 0,16,17
 158 52 158 52 166.5 67.5 c 128,-1,18
 175 83 175 83 175 115 c 1,19,-1
 244 115 l 1,20,21
 244 53 244 53 217 23 c 128,-1,22
 190 -7 190 -7 140 -7 c 0,23,24
 80 -7 80 -7 52 31.5 c 128,-1,25
 24 70 24 70 24 153 c 256,26,27
 24 236 24 236 52.5 275 c 128,-1,28
 81 314 81 314 138 314 c 0,29,4
 189 314 189 314 216.5 284 c 128,-1,5
EndSplineSet
Validated: 1
EndChar

StartChar: d
Encoding: 100 100 152
Width: 292
VWidth: 659
GlyphClass: 2
Flags: W
LayerCount: 2
Back
Fore
SplineSet
194 38 m 1,0,-1
 192 38 l 1,1,2
 181 16 181 16 163 4.5 c 128,-1,3
 145 -7 145 -7 123 -7 c 0,4,5
 76 -7 76 -7 50 33 c 128,-1,6
 24 73 24 73 24 154 c 0,7,8
 24 234 24 234 50 274 c 128,-1,9
 76 314 76 314 119 314 c 0,10,11
 142 314 142 314 160.5 303.5 c 128,-1,12
 179 293 179 293 187 275 c 1,13,-1
 190 275 l 1,14,-1
 190 421 l 1,15,-1
 260 421 l 1,16,-1
 260 0 l 1,17,-1
 202 0 l 1,18,-1
 194 38 l 1,0,-1
107.5 228.5 m 128,-1,20
 97 207 97 207 97 164 c 2,21,-1
 97 142 l 2,22,23
 97 99 97 99 107.5 78 c 128,-1,24
 118 57 118 57 143 57 c 256,25,26
 168 57 168 57 179 78 c 128,-1,27
 190 99 190 99 190 142 c 2,28,-1
 190 163 l 2,29,30
 190 206 190 206 179 228 c 128,-1,31
 168 250 168 250 143 250 c 256,32,19
 118 250 118 250 107.5 228.5 c 128,-1,20
EndSplineSet
Validated: 1
EndChar

StartChar: eth
Encoding: 240 240 153
Width: 292
VWidth: 659
GlyphClass: 2
Flags: W
LayerCount: 2
Back
Fore
SplineSet
179 393 m 1,1,-1
 255 400 l 1,2,-1
 255 358 l 1,3,-1
 212 354 l 1,4,5
 269 269 269 269 269 153 c 0,6,7
 269 71 269 71 238.5 32 c 128,-1,8
 208 -7 208 -7 146 -7 c 0,9,10
 85 -7 85 -7 54.5 32 c 128,-1,11
 24 71 24 71 24 153 c 0,12,13
 24 231 24 231 52 272.5 c 128,-1,14
 80 314 80 314 130 314 c 0,15,16
 145 314 145 314 158 309 c 1,17,-1
 160 311 l 1,18,19
 151 328 151 328 138 347 c 1,20,-1
 63 340 l 1,21,-1
 63 383 l 1,22,-1
 107 387 l 1,23,-1
 90 405 l 1,24,25
 90 405 90 405 76 419 c 1,26,-1
 77 421 l 1,27,-1
 150 421 l 1,28,0
 161 413 161 413 179 393 c 1,1,-1
108.5 232 m 128,-1,30
 97 210 97 210 97 164 c 2,31,-1
 97 142 l 2,32,33
 97 96 97 96 108.5 74 c 128,-1,34
 120 52 120 52 146 52 c 0,35,36
 173 52 173 52 184.5 74 c 128,-1,37
 196 96 196 96 196 142 c 2,38,-1
 196 164 l 2,39,40
 196 210 196 210 184.5 232 c 128,-1,41
 173 254 173 254 146 254 c 0,42,29
 120 254 120 254 108.5 232 c 128,-1,30
EndSplineSet
Validated: 1
EndChar

StartChar: dcaron
Encoding: 271 271 154
Width: 343
VWidth: 659
GlyphClass: 2
Flags: W
LayerCount: 2
Back
Fore
SplineSet
194 38 m 1,0,-1
 192 38 l 1,1,2
 181 16 181 16 163 4.5 c 128,-1,3
 145 -7 145 -7 123 -7 c 0,4,5
 76 -7 76 -7 50 33 c 128,-1,6
 24 73 24 73 24 154 c 0,7,8
 24 234 24 234 50 274 c 128,-1,9
 76 314 76 314 119 314 c 0,10,11
 142 314 142 314 160.5 303.5 c 128,-1,12
 179 293 179 293 187 275 c 1,13,-1
 190 275 l 1,14,-1
 190 421 l 1,15,-1
 260 421 l 1,16,-1
 260 0 l 1,17,-1
 202 0 l 1,18,-1
 194 38 l 1,0,-1
278 229 m 1,19,-1
 310 320 l 1,20,-1
 278 320 l 1,21,-1
 278 399 l 1,22,-1
 358 399 l 1,23,-1
 358 327 l 1,24,-1
 320 229 l 1,25,-1
 278 229 l 1,19,-1
107.5 228.5 m 128,-1,27
 97 207 97 207 97 164 c 2,28,-1
 97 142 l 2,29,30
 97 99 97 99 107.5 78 c 128,-1,31
 118 57 118 57 143 57 c 256,32,33
 168 57 168 57 179 78 c 128,-1,34
 190 99 190 99 190 142 c 2,35,-1
 190 163 l 2,36,37
 190 206 190 206 179 228 c 128,-1,38
 168 250 168 250 143 250 c 256,39,26
 118 250 118 250 107.5 228.5 c 128,-1,27
EndSplineSet
Validated: 1
EndChar

StartChar: dcroat
Encoding: 273 273 155
Width: 294
VWidth: 659
GlyphClass: 2
Flags: W
LayerCount: 2
Back
Fore
SplineSet
291 390 m 1,0,-1
 291 339 l 1,1,-1
 260 339 l 1,2,-1
 260 0 l 1,3,-1
 202 0 l 1,4,-1
 194 38 l 1,5,-1
 192 38 l 1,6,7
 181 16 181 16 163 4.5 c 128,-1,8
 145 -7 145 -7 123 -7 c 0,9,10
 76 -7 76 -7 50 33 c 128,-1,11
 24 73 24 73 24 154 c 0,12,13
 24 234 24 234 50 274 c 128,-1,14
 76 314 76 314 119 314 c 0,15,16
 142 314 142 314 160.5 303.5 c 128,-1,17
 179 293 179 293 187 275 c 1,18,-1
 190 275 l 1,19,-1
 190 339 l 1,20,-1
 113 339 l 1,21,-1
 113 390 l 1,22,-1
 190 390 l 1,23,-1
 190 421 l 1,24,-1
 260 421 l 1,25,-1
 260 390 l 1,26,-1
 291 390 l 1,0,-1
107.5 228.5 m 128,-1,28
 97 207 97 207 97 164 c 2,29,-1
 97 142 l 2,30,31
 97 99 97 99 107.5 78 c 128,-1,32
 118 57 118 57 143 57 c 256,33,34
 168 57 168 57 179 78 c 128,-1,35
 190 99 190 99 190 142 c 2,36,-1
 190 163 l 2,37,38
 190 206 190 206 179 228 c 128,-1,39
 168 250 168 250 143 250 c 256,40,27
 118 250 118 250 107.5 228.5 c 128,-1,28
EndSplineSet
Validated: 1
EndChar

StartChar: e
Encoding: 101 101 156
Width: 266
VWidth: 659
GlyphClass: 2
Flags: W
AnchorPoint: "Anchor-1" 133 0 basechar 0
AnchorPoint: "Anchor-0" 133 306 basechar 0
LayerCount: 2
Back
Fore
SplineSet
219 275 m 128,-1,1
 246 236 246 236 246 153 c 2,2,-1
 246 136 l 1,3,-1
 91 136 l 1,4,5
 92 92 92 92 102.5 71 c 128,-1,6
 113 50 113 50 138 50 c 0,7,8
 156 50 156 50 166.5 65.5 c 128,-1,9
 177 81 177 81 177 108 c 1,10,-1
 246 108 l 1,11,12
 246 52 246 52 216.5 22.5 c 128,-1,13
 187 -7 187 -7 138 -7 c 0,14,15
 78 -7 78 -7 48 32 c 128,-1,16
 18 71 18 71 18 153 c 0,17,18
 18 314 18 314 136 314 c 0,19,0
 192 314 192 314 219 275 c 128,-1,1
104 238.5 m 128,-1,21
 94 221 94 221 92 186 c 1,22,-1
 173 186 l 1,23,24
 173 256 173 256 136 256 c 0,25,20
 114 256 114 256 104 238.5 c 128,-1,21
EndSplineSet
Validated: 1
EndChar

StartChar: eacute
Encoding: 233 233 157
Width: 266
VWidth: 659
GlyphClass: 2
Flags: W
LayerCount: 2
Back
Fore
SplineSet
150 344 m 1,0,-1
 93 344 l 1,1,-1
 143 421 l 1,2,-1
 213 421 l 1,3,-1
 214 419 l 1,4,-1
 150 344 l 1,0,-1
219 275 m 128,-1,6
 246 236 246 236 246 153 c 2,7,-1
 246 136 l 1,8,-1
 91 136 l 1,9,10
 92 92 92 92 102.5 71 c 128,-1,11
 113 50 113 50 138 50 c 0,12,13
 156 50 156 50 166.5 65.5 c 128,-1,14
 177 81 177 81 177 108 c 1,15,-1
 246 108 l 1,16,17
 246 52 246 52 216.5 22.5 c 128,-1,18
 187 -7 187 -7 138 -7 c 0,19,20
 78 -7 78 -7 48 32 c 128,-1,21
 18 71 18 71 18 153 c 0,22,23
 18 314 18 314 136 314 c 0,24,5
 192 314 192 314 219 275 c 128,-1,6
104 238.5 m 128,-1,26
 94 221 94 221 92 186 c 1,27,-1
 173 186 l 1,28,29
 173 256 173 256 136 256 c 0,30,25
 114 256 114 256 104 238.5 c 128,-1,26
EndSplineSet
Validated: 1
EndChar

StartChar: ebreve
Encoding: 277 277 158
Width: 266
VWidth: 659
GlyphClass: 2
Flags: W
LayerCount: 2
Back
Fore
SplineSet
189 378.5 m 128,-1,1
 167 359 167 359 133 359 c 256,2,3
 99 359 99 359 77 378.5 c 128,-1,4
 55 398 55 398 55 421 c 1,5,-1
 98 421 l 1,6,7
 100 414 100 414 109.5 408 c 128,-1,8
 119 402 119 402 133 402 c 256,9,10
 147 402 147 402 157 408 c 128,-1,11
 167 414 167 414 168 421 c 1,12,-1
 211 421 l 1,13,0
 211 398 211 398 189 378.5 c 128,-1,1
219 275 m 128,-1,15
 246 236 246 236 246 153 c 2,16,-1
 246 136 l 1,17,-1
 91 136 l 1,18,19
 92 92 92 92 102.5 71 c 128,-1,20
 113 50 113 50 138 50 c 0,21,22
 156 50 156 50 166.5 65.5 c 128,-1,23
 177 81 177 81 177 108 c 1,24,-1
 246 108 l 1,25,26
 246 52 246 52 216.5 22.5 c 128,-1,27
 187 -7 187 -7 138 -7 c 0,28,29
 78 -7 78 -7 48 32 c 128,-1,30
 18 71 18 71 18 153 c 0,31,32
 18 314 18 314 136 314 c 0,33,14
 192 314 192 314 219 275 c 128,-1,15
104 238.5 m 128,-1,35
 94 221 94 221 92 186 c 1,36,-1
 173 186 l 1,37,38
 173 256 173 256 136 256 c 0,39,34
 114 256 114 256 104 238.5 c 128,-1,35
EndSplineSet
Validated: 1
EndChar

StartChar: ecaron
Encoding: 283 283 159
Width: 266
VWidth: 659
GlyphClass: 2
Flags: W
LayerCount: 2
Back
Fore
SplineSet
55 421 m 1,0,-1
 107 421 l 1,1,-1
 133 381 l 1,2,-1
 159 421 l 1,3,-1
 212 421 l 1,4,-1
 162 343 l 1,5,-1
 105 343 l 1,6,-1
 55 421 l 1,0,-1
219 275 m 128,-1,8
 246 236 246 236 246 153 c 2,9,-1
 246 136 l 1,10,-1
 91 136 l 1,11,12
 92 92 92 92 102.5 71 c 128,-1,13
 113 50 113 50 138 50 c 0,14,15
 156 50 156 50 166.5 65.5 c 128,-1,16
 177 81 177 81 177 108 c 1,17,-1
 246 108 l 1,18,19
 246 52 246 52 216.5 22.5 c 128,-1,20
 187 -7 187 -7 138 -7 c 0,21,22
 78 -7 78 -7 48 32 c 128,-1,23
 18 71 18 71 18 153 c 0,24,25
 18 314 18 314 136 314 c 0,26,7
 192 314 192 314 219 275 c 128,-1,8
104 238.5 m 128,-1,28
 94 221 94 221 92 186 c 1,29,-1
 173 186 l 1,30,31
 173 256 173 256 136 256 c 0,32,27
 114 256 114 256 104 238.5 c 128,-1,28
EndSplineSet
Validated: 1
EndChar

StartChar: ecircumflex
Encoding: 234 234 160
Width: 266
VWidth: 659
GlyphClass: 2
Flags: W
LayerCount: 2
Back
Fore
SplineSet
133 383 m 1,0,-1
 107 343 l 1,1,-1
 55 343 l 1,2,-1
 105 421 l 1,3,-1
 162 421 l 1,4,-1
 212 343 l 1,5,-1
 159 343 l 1,6,-1
 133 383 l 1,0,-1
219 275 m 128,-1,8
 246 236 246 236 246 153 c 2,9,-1
 246 136 l 1,10,-1
 91 136 l 1,11,12
 92 92 92 92 102.5 71 c 128,-1,13
 113 50 113 50 138 50 c 0,14,15
 156 50 156 50 166.5 65.5 c 128,-1,16
 177 81 177 81 177 108 c 1,17,-1
 246 108 l 1,18,19
 246 52 246 52 216.5 22.5 c 128,-1,20
 187 -7 187 -7 138 -7 c 0,21,22
 78 -7 78 -7 48 32 c 128,-1,23
 18 71 18 71 18 153 c 0,24,25
 18 314 18 314 136 314 c 0,26,7
 192 314 192 314 219 275 c 128,-1,8
104 238.5 m 128,-1,28
 94 221 94 221 92 186 c 1,29,-1
 173 186 l 1,30,31
 173 256 173 256 136 256 c 0,32,27
 114 256 114 256 104 238.5 c 128,-1,28
EndSplineSet
Validated: 1
EndChar

StartChar: edieresis
Encoding: 235 235 161
Width: 266
VWidth: 659
GlyphClass: 2
Flags: W
LayerCount: 2
Back
Fore
SplineSet
53 358 m 1,0,-1
 53 421 l 1,1,-1
 111 421 l 1,2,-1
 111 358 l 1,3,-1
 53 358 l 1,0,-1
155 358 m 1,4,-1
 155 421 l 1,5,-1
 214 421 l 1,6,-1
 214 358 l 1,7,-1
 155 358 l 1,4,-1
219 275 m 128,-1,9
 246 236 246 236 246 153 c 2,10,-1
 246 136 l 1,11,-1
 91 136 l 1,12,13
 92 92 92 92 102.5 71 c 128,-1,14
 113 50 113 50 138 50 c 0,15,16
 156 50 156 50 166.5 65.5 c 128,-1,17
 177 81 177 81 177 108 c 1,18,-1
 246 108 l 1,19,20
 246 52 246 52 216.5 22.5 c 128,-1,21
 187 -7 187 -7 138 -7 c 0,22,23
 78 -7 78 -7 48 32 c 128,-1,24
 18 71 18 71 18 153 c 0,25,26
 18 314 18 314 136 314 c 0,27,8
 192 314 192 314 219 275 c 128,-1,9
104 238.5 m 128,-1,29
 94 221 94 221 92 186 c 1,30,-1
 173 186 l 1,31,32
 173 256 173 256 136 256 c 0,33,28
 114 256 114 256 104 238.5 c 128,-1,29
EndSplineSet
Validated: 1
EndChar

StartChar: edotaccent
Encoding: 279 279 162
Width: 266
VWidth: 659
GlyphClass: 2
Flags: W
LayerCount: 2
Back
Fore
SplineSet
102 421 m 1,0,-1
 164 421 l 1,1,-1
 164 354 l 1,2,-1
 102 354 l 1,3,-1
 102 421 l 1,0,-1
219 275 m 128,-1,5
 246 236 246 236 246 153 c 2,6,-1
 246 136 l 1,7,-1
 91 136 l 1,8,9
 92 92 92 92 102.5 71 c 128,-1,10
 113 50 113 50 138 50 c 0,11,12
 156 50 156 50 166.5 65.5 c 128,-1,13
 177 81 177 81 177 108 c 1,14,-1
 246 108 l 1,15,16
 246 52 246 52 216.5 22.5 c 128,-1,17
 187 -7 187 -7 138 -7 c 0,18,19
 78 -7 78 -7 48 32 c 128,-1,20
 18 71 18 71 18 153 c 0,21,22
 18 314 18 314 136 314 c 0,23,4
 192 314 192 314 219 275 c 128,-1,5
104 238.5 m 128,-1,25
 94 221 94 221 92 186 c 1,26,-1
 173 186 l 1,27,28
 173 256 173 256 136 256 c 0,29,24
 114 256 114 256 104 238.5 c 128,-1,25
EndSplineSet
Validated: 1
EndChar

StartChar: egrave
Encoding: 232 232 163
Width: 266
VWidth: 659
GlyphClass: 2
Flags: W
LayerCount: 2
Back
Fore
SplineSet
115 344 m 1,0,-1
 53 419 l 1,1,-1
 53 421 l 1,2,-1
 123 421 l 1,3,-1
 173 344 l 1,4,-1
 115 344 l 1,0,-1
219 275 m 128,-1,6
 246 236 246 236 246 153 c 2,7,-1
 246 136 l 1,8,-1
 91 136 l 1,9,10
 92 92 92 92 102.5 71 c 128,-1,11
 113 50 113 50 138 50 c 0,12,13
 156 50 156 50 166.5 65.5 c 128,-1,14
 177 81 177 81 177 108 c 1,15,-1
 246 108 l 1,16,17
 246 52 246 52 216.5 22.5 c 128,-1,18
 187 -7 187 -7 138 -7 c 0,19,20
 78 -7 78 -7 48 32 c 128,-1,21
 18 71 18 71 18 153 c 0,22,23
 18 314 18 314 136 314 c 0,24,5
 192 314 192 314 219 275 c 128,-1,6
104 238.5 m 128,-1,26
 94 221 94 221 92 186 c 1,27,-1
 173 186 l 1,28,29
 173 256 173 256 136 256 c 0,30,25
 114 256 114 256 104 238.5 c 128,-1,26
EndSplineSet
Validated: 1
EndChar

StartChar: emacron
Encoding: 275 275 164
Width: 266
VWidth: 659
GlyphClass: 2
Flags: W
LayerCount: 2
Back
Fore
SplineSet
59 399 m 1,0,-1
 208 399 l 1,1,-1
 208 349 l 1,2,-1
 59 349 l 1,3,-1
 59 399 l 1,0,-1
219 275 m 128,-1,5
 246 236 246 236 246 153 c 2,6,-1
 246 136 l 1,7,-1
 91 136 l 1,8,9
 92 92 92 92 102.5 71 c 128,-1,10
 113 50 113 50 138 50 c 0,11,12
 156 50 156 50 166.5 65.5 c 128,-1,13
 177 81 177 81 177 108 c 1,14,-1
 246 108 l 1,15,16
 246 52 246 52 216.5 22.5 c 128,-1,17
 187 -7 187 -7 138 -7 c 0,18,19
 78 -7 78 -7 48 32 c 128,-1,20
 18 71 18 71 18 153 c 0,21,22
 18 314 18 314 136 314 c 0,23,4
 192 314 192 314 219 275 c 128,-1,5
104 238.5 m 128,-1,25
 94 221 94 221 92 186 c 1,26,-1
 173 186 l 1,27,28
 173 256 173 256 136 256 c 0,29,24
 114 256 114 256 104 238.5 c 128,-1,25
EndSplineSet
Validated: 1
EndChar

StartChar: eogonek
Encoding: 281 281 165
Width: 266
VWidth: 659
GlyphClass: 2
Flags: W
LayerCount: 2
Back
Fore
SplineSet
246 136 m 1,0,-1
 91 136 l 1,1,2
 92 92 92 92 102.5 71 c 128,-1,3
 113 50 113 50 138 50 c 0,4,5
 156 50 156 50 166.5 65.5 c 128,-1,6
 177 81 177 81 177 108 c 1,7,-1
 246 108 l 1,8,9
 246 68 246 68 230.5 41.5 c 128,-1,10
 215 15 215 15 188 3 c 1,11,12
 171 -20 171 -20 171 -38 c 0,13,14
 171 -50 171 -50 178 -59 c 128,-1,15
 185 -68 185 -68 198 -68 c 2,16,-1
 210 -68 l 1,17,-1
 210 -100 l 1,18,19
 189 -108 189 -108 172 -108 c 0,20,21
 149 -108 149 -108 131.5 -95.5 c 128,-1,22
 114 -83 114 -83 114 -55 c 256,23,24
 114 -27 114 -27 131 -7 c 1,25,26
 18 -2 18 -2 18 153 c 0,27,28
 18 314 18 314 136 314 c 0,29,30
 192 314 192 314 219 275 c 128,-1,31
 246 236 246 236 246 153 c 2,32,-1
 246 136 l 1,0,-1
173 186 m 1,33,34
 173 256 173 256 136 256 c 0,35,36
 114 256 114 256 104 238.5 c 128,-1,37
 94 221 94 221 92 186 c 1,38,-1
 173 186 l 1,33,34
EndSplineSet
Validated: 1
EndChar

StartChar: f
Encoding: 102 102 166
Width: 159
VWidth: 659
GlyphClass: 2
Flags: W
LayerCount: 2
Back
Fore
SplineSet
159 419 m 1,1,-1
 159 367 l 1,2,-1
 130 367 l 2,3,4
 119 367 119 367 112.5 360.5 c 128,-1,5
 106 354 106 354 106 342 c 2,6,-1
 106 306 l 1,7,-1
 159 306 l 1,8,-1
 159 248 l 1,9,-1
 106 248 l 1,10,-1
 106 0 l 1,11,-1
 36 0 l 1,12,-1
 36 248 l 1,13,-1
 5 248 l 1,14,-1
 5 306 l 1,15,-1
 36 306 l 1,16,-1
 36 344 l 2,17,18
 36 379 36 379 53 402.5 c 128,-1,19
 70 426 70 426 108 426 c 0,20,0
 133 426 133 426 159 419 c 1,1,-1
EndSplineSet
Validated: 1
EndChar

StartChar: g
Encoding: 103 103 167
Width: 292
VWidth: 659
GlyphClass: 2
Flags: W
AnchorPoint: "Anchor-1" 0 0 basechar 0
AnchorPoint: "Anchor-0" 146 306 basechar 0
LayerCount: 2
Back
Fore
SplineSet
233 279 m 1,1,2
 258 252 258 252 258 209 c 0,3,4
 258 161 258 161 228.5 133 c 128,-1,5
 199 105 199 105 144 105 c 2,6,-1
 115 105 l 2,7,8
 106 105 106 105 100 99.5 c 128,-1,9
 94 94 94 94 94 86 c 256,10,11
 94 78 94 78 99.5 73 c 128,-1,12
 105 68 105 68 113 68 c 2,13,-1
 218 68 l 2,14,15
 248 68 248 68 268.5 46 c 128,-1,16
 289 24 289 24 289 -12 c 0,17,18
 289 -54 289 -54 260 -80 c 128,-1,19
 231 -106 231 -106 189 -106 c 2,20,-1
 77 -106 l 2,21,22
 49 -106 49 -106 29 -86.5 c 128,-1,23
 9 -67 9 -67 9 -36 c 0,24,25
 9 4 9 4 48 27 c 1,26,27
 24 41 24 41 24 72 c 0,28,29
 24 92 24 92 36.5 106 c 128,-1,30
 49 120 49 120 69 127 c 1,31,32
 32 152 32 152 32 209 c 0,33,34
 32 257 32 257 61 285.5 c 128,-1,35
 90 314 90 314 144 314 c 0,36,37
 171 314 171 314 196 304 c 1,38,39
 211 316 211 316 218 331.5 c 128,-1,40
 225 347 225 347 225 358 c 1,41,-1
 283 358 l 1,42,0
 283 295 283 295 233 279 c 1,1,2
112 248 m 128,-1,44
 101 234 101 234 101 209 c 0,45,46
 101 185 101 185 112 171 c 128,-1,47
 123 157 123 157 144 157 c 256,48,49
 165 157 165 157 176.5 171 c 128,-1,50
 188 185 188 185 188 209 c 0,51,52
 188 234 188 234 176.5 248 c 128,-1,53
 165 262 165 262 144 262 c 256,54,43
 123 262 123 262 112 248 c 128,-1,44
88 -5 m 128,-1,56
 80 -13 80 -13 80 -24 c 0,57,58
 80 -37 80 -37 88 -45 c 128,-1,59
 96 -53 96 -53 108 -53 c 2,60,-1
 186 -53 l 2,61,62
 200 -53 200 -53 209 -45 c 128,-1,63
 218 -37 218 -37 218 -24 c 0,64,65
 218 -12 218 -12 209.5 -4.5 c 128,-1,66
 201 3 201 3 189 3 c 2,67,-1
 108 3 l 2,68,55
 96 3 96 3 88 -5 c 128,-1,56
EndSplineSet
Validated: 1
EndChar

StartChar: gbreve
Encoding: 287 287 168
Width: 292
VWidth: 659
GlyphClass: 2
Flags: W
LayerCount: 2
Back
Fore
SplineSet
201.5 378 m 128,-1,1
 180 359 180 359 146 359 c 256,2,3
 112 359 112 359 90 378.5 c 128,-1,4
 68 398 68 398 68 421 c 1,5,-1
 111 421 l 1,6,7
 113 414 113 414 123 408 c 128,-1,8
 133 402 133 402 146 402 c 256,9,10
 159 402 159 402 169 408 c 128,-1,11
 179 414 179 414 181 421 c 1,12,-1
 223 421 l 1,13,0
 223 397 223 397 201.5 378 c 128,-1,1
233 279 m 1,15,16
 258 252 258 252 258 209 c 0,17,18
 258 161 258 161 228.5 133 c 128,-1,19
 199 105 199 105 144 105 c 2,20,-1
 115 105 l 2,21,22
 106 105 106 105 100 99.5 c 128,-1,23
 94 94 94 94 94 86 c 256,24,25
 94 78 94 78 99.5 73 c 128,-1,26
 105 68 105 68 113 68 c 2,27,-1
 218 68 l 2,28,29
 248 68 248 68 268.5 46 c 128,-1,30
 289 24 289 24 289 -12 c 0,31,32
 289 -54 289 -54 260 -80 c 128,-1,33
 231 -106 231 -106 189 -106 c 2,34,-1
 77 -106 l 2,35,36
 49 -106 49 -106 29 -86.5 c 128,-1,37
 9 -67 9 -67 9 -36 c 0,38,39
 9 4 9 4 48 27 c 1,40,41
 24 41 24 41 24 72 c 0,42,43
 24 92 24 92 36.5 106 c 128,-1,44
 49 120 49 120 69 127 c 1,45,46
 32 152 32 152 32 209 c 0,47,48
 32 257 32 257 61 285.5 c 128,-1,49
 90 314 90 314 144 314 c 0,50,51
 171 314 171 314 196 304 c 1,52,53
 211 316 211 316 218 331.5 c 128,-1,54
 225 347 225 347 225 358 c 1,55,-1
 283 358 l 1,56,14
 283 295 283 295 233 279 c 1,15,16
112 248 m 128,-1,58
 101 234 101 234 101 209 c 0,59,60
 101 185 101 185 112 171 c 128,-1,61
 123 157 123 157 144 157 c 256,62,63
 165 157 165 157 176.5 171 c 128,-1,64
 188 185 188 185 188 209 c 0,65,66
 188 234 188 234 176.5 248 c 128,-1,67
 165 262 165 262 144 262 c 256,68,57
 123 262 123 262 112 248 c 128,-1,58
88 -5 m 128,-1,70
 80 -13 80 -13 80 -24 c 0,71,72
 80 -37 80 -37 88 -45 c 128,-1,73
 96 -53 96 -53 108 -53 c 2,74,-1
 186 -53 l 2,75,76
 200 -53 200 -53 209 -45 c 128,-1,77
 218 -37 218 -37 218 -24 c 0,78,79
 218 -12 218 -12 209.5 -4.5 c 128,-1,80
 201 3 201 3 189 3 c 2,81,-1
 108 3 l 2,82,69
 96 3 96 3 88 -5 c 128,-1,70
EndSplineSet
Validated: 1
EndChar

StartChar: gcircumflex
Encoding: 285 285 169
Width: 292
VWidth: 659
GlyphClass: 2
Flags: W
LayerCount: 2
Back
Fore
SplineSet
146 383 m 1,0,-1
 120 343 l 1,1,-1
 68 343 l 1,2,-1
 118 421 l 1,3,-1
 175 421 l 1,4,-1
 224 343 l 1,5,-1
 172 343 l 1,6,-1
 146 383 l 1,0,-1
233 279 m 1,8,9
 258 252 258 252 258 209 c 0,10,11
 258 161 258 161 228.5 133 c 128,-1,12
 199 105 199 105 144 105 c 2,13,-1
 115 105 l 2,14,15
 106 105 106 105 100 99.5 c 128,-1,16
 94 94 94 94 94 86 c 256,17,18
 94 78 94 78 99.5 73 c 128,-1,19
 105 68 105 68 113 68 c 2,20,-1
 218 68 l 2,21,22
 248 68 248 68 268.5 46 c 128,-1,23
 289 24 289 24 289 -12 c 0,24,25
 289 -54 289 -54 260 -80 c 128,-1,26
 231 -106 231 -106 189 -106 c 2,27,-1
 77 -106 l 2,28,29
 49 -106 49 -106 29 -86.5 c 128,-1,30
 9 -67 9 -67 9 -36 c 0,31,32
 9 4 9 4 48 27 c 1,33,34
 24 41 24 41 24 72 c 0,35,36
 24 92 24 92 36.5 106 c 128,-1,37
 49 120 49 120 69 127 c 1,38,39
 32 152 32 152 32 209 c 0,40,41
 32 257 32 257 61 285.5 c 128,-1,42
 90 314 90 314 144 314 c 0,43,44
 171 314 171 314 196 304 c 1,45,46
 238 306 238 306 238 357 c 2,47,-1
 238 358 l 1,48,-1
 283 358 l 1,49,7
 283 295 283 295 233 279 c 1,8,9
112 248 m 128,-1,51
 101 234 101 234 101 209 c 0,52,53
 101 185 101 185 112 171 c 128,-1,54
 123 157 123 157 144 157 c 256,55,56
 165 157 165 157 176.5 171 c 128,-1,57
 188 185 188 185 188 209 c 0,58,59
 188 234 188 234 176.5 248 c 128,-1,60
 165 262 165 262 144 262 c 256,61,50
 123 262 123 262 112 248 c 128,-1,51
88 -5 m 128,-1,63
 80 -13 80 -13 80 -24 c 0,64,65
 80 -37 80 -37 88 -45 c 128,-1,66
 96 -53 96 -53 108 -53 c 2,67,-1
 186 -53 l 2,68,69
 200 -53 200 -53 209 -45 c 128,-1,70
 218 -37 218 -37 218 -24 c 0,71,72
 218 -12 218 -12 209.5 -4.5 c 128,-1,73
 201 3 201 3 189 3 c 2,74,-1
 108 3 l 2,75,62
 96 3 96 3 88 -5 c 128,-1,63
EndSplineSet
Validated: 1
EndChar

StartChar: gcommaaccent
Encoding: 291 291 170
Width: 292
VWidth: 659
GlyphClass: 2
Flags: W
LayerCount: 2
Back
Fore
SplineSet
175 415 m 1,0,-1
 175 344 l 1,1,-1
 103 344 l 1,2,-1
 103 409 l 1,3,-1
 130 465 l 1,4,-1
 168 465 l 1,5,-1
 147 415 l 1,6,-1
 175 415 l 1,0,-1
233 279 m 1,8,9
 258 252 258 252 258 209 c 0,10,11
 258 161 258 161 228.5 133 c 128,-1,12
 199 105 199 105 144 105 c 2,13,-1
 115 105 l 2,14,15
 106 105 106 105 100 99.5 c 128,-1,16
 94 94 94 94 94 86 c 256,17,18
 94 78 94 78 99.5 73 c 128,-1,19
 105 68 105 68 113 68 c 2,20,-1
 218 68 l 2,21,22
 248 68 248 68 268.5 46 c 128,-1,23
 289 24 289 24 289 -12 c 0,24,25
 289 -54 289 -54 260 -80 c 128,-1,26
 231 -106 231 -106 189 -106 c 2,27,-1
 77 -106 l 2,28,29
 49 -106 49 -106 29 -86.5 c 128,-1,30
 9 -67 9 -67 9 -36 c 0,31,32
 9 4 9 4 48 27 c 1,33,34
 24 41 24 41 24 72 c 0,35,36
 24 92 24 92 36.5 106 c 128,-1,37
 49 120 49 120 69 127 c 1,38,39
 32 152 32 152 32 209 c 0,40,41
 32 257 32 257 61 285.5 c 128,-1,42
 90 314 90 314 144 314 c 0,43,44
 171 314 171 314 196 304 c 1,45,46
 211 316 211 316 218 331.5 c 128,-1,47
 225 347 225 347 225 358 c 1,48,-1
 283 358 l 1,49,7
 283 295 283 295 233 279 c 1,8,9
112 248 m 128,-1,51
 101 234 101 234 101 209 c 0,52,53
 101 185 101 185 112 171 c 128,-1,54
 123 157 123 157 144 157 c 256,55,56
 165 157 165 157 176.5 171 c 128,-1,57
 188 185 188 185 188 209 c 0,58,59
 188 234 188 234 176.5 248 c 128,-1,60
 165 262 165 262 144 262 c 256,61,50
 123 262 123 262 112 248 c 128,-1,51
88 -5 m 128,-1,63
 80 -13 80 -13 80 -24 c 0,64,65
 80 -37 80 -37 88 -45 c 128,-1,66
 96 -53 96 -53 108 -53 c 2,67,-1
 186 -53 l 2,68,69
 200 -53 200 -53 209 -45 c 128,-1,70
 218 -37 218 -37 218 -24 c 0,71,72
 218 -12 218 -12 209.5 -4.5 c 128,-1,73
 201 3 201 3 189 3 c 2,74,-1
 108 3 l 2,75,62
 96 3 96 3 88 -5 c 128,-1,63
EndSplineSet
Validated: 1
EndChar

StartChar: gdotaccent
Encoding: 289 289 171
Width: 292
VWidth: 659
GlyphClass: 2
Flags: W
LayerCount: 2
Back
Fore
SplineSet
115 421 m 1,0,-1
 177 421 l 1,1,-1
 177 354 l 1,2,-1
 115 354 l 1,3,-1
 115 421 l 1,0,-1
233 279 m 1,5,6
 258 252 258 252 258 209 c 0,7,8
 258 161 258 161 228.5 133 c 128,-1,9
 199 105 199 105 144 105 c 2,10,-1
 115 105 l 2,11,12
 106 105 106 105 100 99.5 c 128,-1,13
 94 94 94 94 94 86 c 256,14,15
 94 78 94 78 99.5 73 c 128,-1,16
 105 68 105 68 113 68 c 2,17,-1
 218 68 l 2,18,19
 248 68 248 68 268.5 46 c 128,-1,20
 289 24 289 24 289 -12 c 0,21,22
 289 -54 289 -54 260 -80 c 128,-1,23
 231 -106 231 -106 189 -106 c 2,24,-1
 77 -106 l 2,25,26
 49 -106 49 -106 29 -86.5 c 128,-1,27
 9 -67 9 -67 9 -36 c 0,28,29
 9 4 9 4 48 27 c 1,30,31
 24 41 24 41 24 72 c 0,32,33
 24 92 24 92 36.5 106 c 128,-1,34
 49 120 49 120 69 127 c 1,35,36
 32 152 32 152 32 209 c 0,37,38
 32 257 32 257 61 285.5 c 128,-1,39
 90 314 90 314 144 314 c 0,40,41
 171 314 171 314 196 304 c 1,42,43
 211 316 211 316 218 331.5 c 128,-1,44
 225 347 225 347 225 358 c 1,45,-1
 283 358 l 1,46,4
 283 295 283 295 233 279 c 1,5,6
112 248 m 128,-1,48
 101 234 101 234 101 209 c 0,49,50
 101 185 101 185 112 171 c 128,-1,51
 123 157 123 157 144 157 c 256,52,53
 165 157 165 157 176.5 171 c 128,-1,54
 188 185 188 185 188 209 c 0,55,56
 188 234 188 234 176.5 248 c 128,-1,57
 165 262 165 262 144 262 c 256,58,47
 123 262 123 262 112 248 c 128,-1,48
88 -5 m 128,-1,60
 80 -13 80 -13 80 -24 c 0,61,62
 80 -37 80 -37 88 -45 c 128,-1,63
 96 -53 96 -53 108 -53 c 2,64,-1
 186 -53 l 2,65,66
 200 -53 200 -53 209 -45 c 128,-1,67
 218 -37 218 -37 218 -24 c 0,68,69
 218 -12 218 -12 209.5 -4.5 c 128,-1,70
 201 3 201 3 189 3 c 2,71,-1
 108 3 l 2,72,59
 96 3 96 3 88 -5 c 128,-1,60
EndSplineSet
Validated: 1
EndChar

StartChar: h
Encoding: 104 104 172
Width: 292
VWidth: 659
GlyphClass: 2
Flags: W
AnchorPoint: "Anchor-1" 0 0 basechar 0
AnchorPoint: "Anchor-0" 146 306 basechar 0
LayerCount: 2
Back
Fore
SplineSet
179 314 m 0,1,2
 216 314 216 314 238 290 c 128,-1,3
 260 266 260 266 260 215 c 2,4,-1
 260 0 l 1,5,-1
 190 0 l 1,6,-1
 190 196 l 2,7,8
 190 250 190 250 150 250 c 0,9,10
 130 250 130 250 116 232 c 128,-1,11
 102 214 102 214 102 188 c 2,12,-1
 102 0 l 1,13,-1
 32 0 l 1,14,-1
 32 421 l 1,15,-1
 102 421 l 1,16,-1
 102 273 l 1,17,-1
 104 273 l 1,18,0
 133 314 133 314 179 314 c 0,1,2
EndSplineSet
Validated: 1
EndChar

StartChar: hbar
Encoding: 295 295 173
Width: 292
VWidth: 659
GlyphClass: 2
Flags: W
LayerCount: 2
Back
Fore
SplineSet
179 390 m 1,0,-1
 179 339 l 1,1,-1
 102 339 l 1,2,-1
 102 273 l 1,3,-1
 104 273 l 1,4,5
 133 314 133 314 179 314 c 0,6,7
 216 314 216 314 238 290 c 128,-1,8
 260 266 260 266 260 215 c 2,9,-1
 260 0 l 1,10,-1
 190 0 l 1,11,-1
 190 196 l 2,12,13
 190 250 190 250 150 250 c 0,14,15
 130 250 130 250 116 232 c 128,-1,16
 102 214 102 214 102 188 c 2,17,-1
 102 0 l 1,18,-1
 32 0 l 1,19,-1
 32 339 l 1,20,-1
 0 339 l 1,21,-1
 0 390 l 1,22,-1
 32 390 l 1,23,-1
 32 421 l 1,24,-1
 102 421 l 1,25,-1
 102 390 l 1,26,-1
 179 390 l 1,0,-1
EndSplineSet
Validated: 1
EndChar

StartChar: hcircumflex
Encoding: 293 293 174
Width: 292
VWidth: 659
GlyphClass: 2
Flags: W
LayerCount: 2
Back
Fore
SplineSet
66 476 m 1,0,-1
 40 436 l 1,1,-1
 -13 436 l 1,2,-1
 38 515 l 1,3,-1
 94 515 l 1,4,-1
 144 436 l 1,5,-1
 92 436 l 1,6,-1
 66 476 l 1,0,-1
179 314 m 0,8,9
 216 314 216 314 238 290 c 128,-1,10
 260 266 260 266 260 215 c 2,11,-1
 260 0 l 1,12,-1
 190 0 l 1,13,-1
 190 196 l 2,14,15
 190 250 190 250 150 250 c 0,16,17
 130 250 130 250 116 232 c 128,-1,18
 102 214 102 214 102 188 c 2,19,-1
 102 0 l 1,20,-1
 32 0 l 1,21,-1
 32 421 l 1,22,-1
 102 421 l 1,23,-1
 102 273 l 1,24,-1
 104 273 l 1,25,7
 133 314 133 314 179 314 c 0,8,9
EndSplineSet
Validated: 1
EndChar

StartChar: i
Encoding: 105 105 175
Width: 133
VWidth: 659
GlyphClass: 2
Flags: W
LayerCount: 2
Back
Fore
SplineSet
32 421 m 1,0,-1
 101 421 l 1,1,-1
 101 358 l 1,2,-1
 32 358 l 1,3,-1
 32 421 l 1,0,-1
32 306 m 1,4,-1
 101 306 l 1,5,-1
 101 0 l 1,6,-1
 32 0 l 1,7,-1
 32 306 l 1,4,-1
EndSplineSet
Validated: 1
EndChar

StartChar: dotlessi
Encoding: 305 305 176
Width: 133
VWidth: 659
GlyphClass: 2
Flags: W
AnchorPoint: "Anchor-1" 0 0 basechar 0
AnchorPoint: "Anchor-0" 67 306 basechar 0
LayerCount: 2
Back
Fore
SplineSet
32 306 m 1,0,-1
 101 306 l 1,1,-1
 101 0 l 1,2,-1
 32 0 l 1,3,-1
 32 306 l 1,0,-1
EndSplineSet
Validated: 1
EndChar

StartChar: iacute
Encoding: 237 237 177
Width: 133
VWidth: 659
GlyphClass: 2
Flags: W
LayerCount: 2
Back
Fore
SplineSet
84 344 m 1,0,-1
 26 344 l 1,1,-1
 76 421 l 1,2,-1
 146 421 l 1,3,-1
 147 419 l 1,4,-1
 84 344 l 1,0,-1
32 0 m 1,5,-1
 32 306 l 1,6,-1
 101 306 l 1,7,-1
 101 0 l 1,8,-1
 32 0 l 1,5,-1
EndSplineSet
Validated: 1
EndChar

StartChar: ibreve
Encoding: 301 301 178
Width: 133
VWidth: 659
GlyphClass: 2
Flags: W
LayerCount: 2
Back
Fore
SplineSet
122.5 378 m 128,-1,1
 101 359 101 359 67 359 c 0,2,3
 32 359 32 359 10 378.5 c 128,-1,4
 -12 398 -12 398 -12 421 c 1,5,-1
 32 421 l 1,6,7
 34 414 34 414 43.5 408 c 128,-1,8
 53 402 53 402 67 402 c 0,9,10
 80 402 80 402 90 408 c 128,-1,11
 100 414 100 414 101 421 c 1,12,-1
 144 421 l 1,13,0
 144 397 144 397 122.5 378 c 128,-1,1
32 306 m 1,14,-1
 101 306 l 1,15,-1
 101 0 l 1,16,-1
 32 0 l 1,17,-1
 32 306 l 1,14,-1
EndSplineSet
Validated: 1
EndChar

StartChar: icircumflex
Encoding: 238 238 179
Width: 133
VWidth: 659
GlyphClass: 2
Flags: W
LayerCount: 2
Back
Fore
SplineSet
67 383 m 1,0,-1
 41 343 l 1,1,-1
 -13 343 l 1,2,-1
 38 421 l 1,3,-1
 96 421 l 1,4,-1
 145 343 l 1,5,-1
 93 343 l 1,6,-1
 67 383 l 1,0,-1
32 306 m 1,7,-1
 101 306 l 1,8,-1
 101 0 l 1,9,-1
 32 0 l 1,10,-1
 32 306 l 1,7,-1
EndSplineSet
Validated: 1
EndChar

StartChar: idieresis
Encoding: 239 239 180
Width: 133
VWidth: 659
GlyphClass: 2
Flags: W
LayerCount: 2
Back
Fore
SplineSet
-13 358 m 1,0,-1
 -13 421 l 1,1,-1
 45 421 l 1,2,-1
 45 358 l 1,3,-1
 -13 358 l 1,0,-1
88 358 m 1,4,-1
 88 421 l 1,5,-1
 147 421 l 1,6,-1
 147 358 l 1,7,-1
 88 358 l 1,4,-1
32 0 m 1,8,-1
 32 306 l 1,9,-1
 101 306 l 1,10,-1
 101 0 l 1,11,-1
 32 0 l 1,8,-1
EndSplineSet
Validated: 1
EndChar

StartChar: igrave
Encoding: 236 236 181
Width: 133
VWidth: 659
GlyphClass: 2
Flags: W
LayerCount: 2
Back
Fore
SplineSet
49 344 m 1,0,-1
 -14 419 l 1,1,-1
 -13 421 l 1,2,-1
 57 421 l 1,3,-1
 107 344 l 1,4,-1
 49 344 l 1,0,-1
32 0 m 1,5,-1
 32 306 l 1,6,-1
 101 306 l 1,7,-1
 101 0 l 1,8,-1
 32 0 l 1,5,-1
EndSplineSet
Validated: 1
EndChar

StartChar: ij
Encoding: 307 307 182
Width: 266
VWidth: 659
GlyphClass: 2
Flags: W
LayerCount: 2
Back
Fore
SplineSet
32 358 m 1,0,-1
 32 421 l 1,1,-1
 101 421 l 1,2,-1
 101 358 l 1,3,-1
 32 358 l 1,0,-1
164 358 m 1,4,-1
 164 421 l 1,5,-1
 234 421 l 1,6,-1
 234 358 l 1,7,-1
 164 358 l 1,4,-1
32 0 m 1,8,-1
 32 306 l 1,9,-1
 101 306 l 1,10,-1
 101 0 l 1,11,-1
 32 0 l 1,8,-1
218 -83 m 128,-1,13
 202 -106 202 -106 163 -106 c 0,14,15
 132 -106 132 -106 111 -99 c 1,16,-1
 111 -47 l 1,17,-1
 137 -47 l 2,18,19
 164 -47 164 -47 164 -19 c 2,20,-1
 164 306 l 1,21,-1
 234 306 l 1,22,-1
 234 -24 l 2,23,12
 234 -60 234 -60 218 -83 c 128,-1,13
EndSplineSet
Validated: 1
EndChar

StartChar: imacron
Encoding: 299 299 183
Width: 133
VWidth: 659
GlyphClass: 2
Flags: W
LayerCount: 2
Back
Fore
SplineSet
-8 399 m 1,0,-1
 141 399 l 1,1,-1
 141 349 l 1,2,-1
 -8 349 l 1,3,-1
 -8 399 l 1,0,-1
32 306 m 1,4,-1
 101 306 l 1,5,-1
 101 0 l 1,6,-1
 32 0 l 1,7,-1
 32 306 l 1,4,-1
EndSplineSet
Validated: 1
EndChar

StartChar: iogonek
Encoding: 303 303 184
Width: 133
VWidth: 659
GlyphClass: 2
Flags: W
LayerCount: 2
Back
Fore
SplineSet
36 354 m 1,0,-1
 36 421 l 1,1,-1
 98 421 l 1,2,-1
 98 354 l 1,3,-1
 36 354 l 1,0,-1
84 -41 m 0,5,6
 84 -54 84 -54 90.5 -62.5 c 128,-1,7
 97 -71 97 -71 110 -71 c 2,8,-1
 123 -71 l 1,9,-1
 123 -103 l 1,10,11
 101 -111 101 -111 84 -111 c 0,12,13
 61 -111 61 -111 44 -98 c 128,-1,14
 27 -85 27 -85 27 -58 c 0,15,16
 27 -24 27 -24 53 0 c 1,17,-1
 32 0 l 1,18,-1
 32 306 l 1,19,-1
 101 306 l 1,20,-1
 101 0 l 1,21,4
 84 -19 84 -19 84 -41 c 0,5,6
EndSplineSet
Validated: 1
EndChar

StartChar: itilde
Encoding: 297 297 185
Width: 133
VWidth: 659
GlyphClass: 2
Flags: W
LayerCount: 2
Back
Fore
SplineSet
150 371.5 m 128,-1,1
 135 350 135 350 107 350 c 0,2,3
 98 350 98 350 87.5 353.5 c 128,-1,4
 77 357 77 357 68 361 c 0,5,6
 46 372 46 372 30 372 c 0,7,8
 11 372 11 372 7 350 c 1,9,-1
 -32 350 l 1,10,11
 -32 378 -32 378 -17 399.5 c 128,-1,12
 -2 421 -2 421 26 421 c 0,13,14
 39 421 39 421 51.5 416 c 128,-1,15
 64 411 64 411 67 410 c 0,16,17
 89 399 89 399 103 399 c 0,18,19
 113 399 113 399 118.5 404 c 128,-1,20
 124 409 124 409 126 421 c 1,21,-1
 165 421 l 1,22,0
 165 393 165 393 150 371.5 c 128,-1,1
32 306 m 1,23,-1
 101 306 l 1,24,-1
 101 0 l 1,25,-1
 32 0 l 1,26,-1
 32 306 l 1,23,-1
EndSplineSet
Validated: 1
EndChar

StartChar: j
Encoding: 106 106 186
Width: 133
VWidth: 659
GlyphClass: 2
Flags: W
LayerCount: 2
Back
Fore
SplineSet
32 421 m 1,0,-1
 101 421 l 1,1,-1
 101 358 l 1,2,-1
 32 358 l 1,3,-1
 32 421 l 1,0,-1
85 -83 m 128,-1,5
 69 -106 69 -106 30 -106 c 0,6,7
 1 -106 1 -106 -22 -99 c 1,8,-1
 -22 -47 l 1,9,-1
 4 -47 l 2,10,11
 32 -47 32 -47 32 -19 c 2,12,-1
 32 306 l 1,13,-1
 101 306 l 1,14,-1
 101 -24 l 2,15,4
 101 -60 101 -60 85 -83 c 128,-1,5
EndSplineSet
Validated: 1
EndChar

StartChar: jcircumflex
Encoding: 309 309 187
Width: 133
VWidth: 659
GlyphClass: 2
Flags: W
LayerCount: 2
Back
Fore
SplineSet
68 383 m 1,0,-1
 42 343 l 1,1,-1
 -11 343 l 1,2,-1
 39 421 l 1,3,-1
 97 421 l 1,4,-1
 146 343 l 1,5,-1
 94 343 l 1,6,-1
 68 383 l 1,0,-1
85 -83 m 128,-1,8
 69 -106 69 -106 30 -106 c 0,9,10
 1 -106 1 -106 -22 -99 c 1,11,-1
 -22 -47 l 1,12,-1
 4 -47 l 2,13,14
 32 -47 32 -47 32 -19 c 2,15,-1
 32 306 l 1,16,-1
 101 306 l 1,17,-1
 101 -24 l 2,18,7
 101 -60 101 -60 85 -83 c 128,-1,8
EndSplineSet
Validated: 1
EndChar

StartChar: k
Encoding: 107 107 188
Width: 266
VWidth: 659
GlyphClass: 2
Flags: W
AnchorPoint: "Anchor-1" 133 0 basechar 0
AnchorPoint: "Anchor-0" 0 0 basechar 0
LayerCount: 2
Back
Fore
SplineSet
262 306 m 1,0,-1
 171 182 l 1,1,-1
 266 0 l 1,2,-1
 188 0 l 1,3,-1
 127 127 l 1,4,-1
 101 96 l 1,5,-1
 101 0 l 1,6,-1
 32 0 l 1,7,-1
 32 421 l 1,8,-1
 101 421 l 1,9,-1
 101 185 l 1,10,-1
 187 306 l 1,11,-1
 262 306 l 1,0,-1
EndSplineSet
Validated: 1
EndChar

StartChar: kcommaaccent
Encoding: 311 311 189
Width: 266
VWidth: 659
GlyphClass: 2
Flags: W
LayerCount: 2
Back
Fore
SplineSet
262 306 m 1,0,-1
 171 182 l 1,1,-1
 266 0 l 1,2,-1
 188 0 l 1,3,-1
 127 127 l 1,4,-1
 101 96 l 1,5,-1
 101 0 l 1,6,-1
 32 0 l 1,7,-1
 32 421 l 1,8,-1
 101 421 l 1,9,-1
 101 185 l 1,10,-1
 187 306 l 1,11,-1
 262 306 l 1,0,-1
105 -153 m 1,12,-1
 125 -103 l 1,13,-1
 98 -103 l 1,14,-1
 98 -32 l 1,15,-1
 169 -32 l 1,16,-1
 169 -98 l 1,17,-1
 143 -153 l 1,18,-1
 105 -153 l 1,12,-1
EndSplineSet
Validated: 1
EndChar

StartChar: kgreenlandic
Encoding: 312 312 190
Width: 266
VWidth: 659
GlyphClass: 2
Flags: W
LayerCount: 2
Back
Fore
SplineSet
188 0 m 1,0,-1
 127 127 l 1,1,-1
 101 96 l 1,2,-1
 101 0 l 1,3,-1
 32 0 l 1,4,-1
 32 306 l 1,5,-1
 101 306 l 1,6,-1
 101 185 l 1,7,-1
 187 306 l 1,8,-1
 262 306 l 1,9,-1
 171 182 l 1,10,-1
 266 0 l 1,11,-1
 188 0 l 1,0,-1
EndSplineSet
Validated: 1
EndChar

StartChar: l
Encoding: 108 108 191
Width: 133
VWidth: 659
GlyphClass: 2
Flags: W
AnchorPoint: "Anchor-1" 67 0 basechar 0
AnchorPoint: "Anchor-0" 67 306 basechar 0
LayerCount: 2
Back
Fore
SplineSet
32 421 m 1,0,-1
 101 421 l 1,1,-1
 101 0 l 1,2,-1
 32 0 l 1,3,-1
 32 421 l 1,0,-1
EndSplineSet
Validated: 1
EndChar

StartChar: lacute
Encoding: 314 314 192
Width: 133
VWidth: 659
GlyphClass: 2
Flags: W
LayerCount: 2
Back
Fore
SplineSet
84 438 m 1,0,-1
 26 438 l 1,1,-1
 76 515 l 1,2,-1
 146 515 l 1,3,-1
 147 513 l 1,4,-1
 84 438 l 1,0,-1
32 0 m 1,5,-1
 32 421 l 1,6,-1
 101 421 l 1,7,-1
 101 0 l 1,8,-1
 32 0 l 1,5,-1
EndSplineSet
Validated: 1
EndChar

StartChar: lcaron
Encoding: 318 318 193
Width: 184
VWidth: 659
GlyphClass: 2
Flags: W
LayerCount: 2
Back
Fore
SplineSet
32 421 m 1,0,-1
 101 421 l 1,1,-1
 101 0 l 1,2,-1
 32 0 l 1,3,-1
 32 421 l 1,0,-1
132 229 m 1,4,-1
 163 320 l 1,5,-1
 132 320 l 1,6,-1
 132 399 l 1,7,-1
 212 399 l 1,8,-1
 212 327 l 1,9,-1
 173 229 l 1,10,-1
 132 229 l 1,4,-1
EndSplineSet
Validated: 1
EndChar

StartChar: lcommaaccent
Encoding: 316 316 194
Width: 133
VWidth: 659
GlyphClass: 2
Flags: W
LayerCount: 2
Back
Fore
SplineSet
32 421 m 1,0,-1
 101 421 l 1,1,-1
 101 0 l 1,2,-1
 32 0 l 1,3,-1
 32 421 l 1,0,-1
38 -153 m 1,4,-1
 59 -103 l 1,5,-1
 31 -103 l 1,6,-1
 31 -32 l 1,7,-1
 103 -32 l 1,8,-1
 103 -98 l 1,9,-1
 76 -153 l 1,10,-1
 38 -153 l 1,4,-1
EndSplineSet
Validated: 1
EndChar

StartChar: ldot
Encoding: 320 320 195
Width: 194
VWidth: 659
GlyphClass: 2
Flags: W
LayerCount: 2
Back
Fore
SplineSet
32 421 m 1,0,-1
 101 421 l 1,1,-1
 101 0 l 1,2,-1
 32 0 l 1,3,-1
 32 421 l 1,0,-1
124 239 m 1,4,-1
 194 239 l 1,5,-1
 194 162 l 1,6,-1
 124 162 l 1,7,-1
 124 239 l 1,4,-1
EndSplineSet
Validated: 1
Ligature2: "Ligature Substitution lookup 41 subtable" l periodcentered
EndChar

StartChar: lslash
Encoding: 322 322 196
Width: 133
VWidth: 659
GlyphClass: 2
Flags: W
LayerCount: 2
Back
Fore
SplineSet
148 238 m 1,0,-1
 101 197 l 1,1,-1
 101 0 l 1,2,-1
 32 0 l 1,3,-1
 32 134 l 1,4,-1
 -8 100 l 1,5,-1
 -8 156 l 1,6,-1
 32 190 l 1,7,-1
 32 421 l 1,8,-1
 101 421 l 1,9,-1
 101 253 l 1,10,-1
 148 294 l 1,11,-1
 148 238 l 1,0,-1
EndSplineSet
Validated: 1
EndChar

StartChar: m
Encoding: 109 109 197
Width: 424
VWidth: 659
GlyphClass: 2
Flags: W
LayerCount: 2
Back
Fore
SplineSet
394 215 m 2,1,-1
 394 0 l 1,2,-1
 324 0 l 1,3,-1
 324 196 l 2,4,5
 324 225 324 225 316 237.5 c 128,-1,6
 308 250 308 250 290 250 c 0,7,8
 273 250 273 250 260.5 234 c 128,-1,9
 248 218 248 218 248 193 c 2,10,-1
 248 0 l 1,11,-1
 179 0 l 1,12,-1
 179 196 l 2,13,14
 179 225 179 225 170.5 237.5 c 128,-1,15
 162 250 162 250 144 250 c 256,16,17
 126 250 126 250 114 232.5 c 128,-1,18
 102 215 102 215 102 188 c 2,19,-1
 102 0 l 1,20,-1
 32 0 l 1,21,-1
 32 306 l 1,22,-1
 90 306 l 1,23,-1
 98 269 l 1,24,-1
 101 269 l 1,25,26
 112 289 112 289 131 301.5 c 128,-1,27
 150 314 150 314 173 314 c 0,28,29
 222 314 222 314 239 269 c 1,30,31
 252 289 252 289 272.5 301.5 c 128,-1,32
 293 314 293 314 319 314 c 0,33,0
 394 314 394 314 394 215 c 2,1,-1
EndSplineSet
Validated: 1
EndChar

StartChar: n
Encoding: 110 110 198
Width: 292
VWidth: 659
GlyphClass: 2
Flags: W
AnchorPoint: "Anchor-1" 146 0 basechar 0
AnchorPoint: "Anchor-0" 146 306 basechar 0
LayerCount: 2
Back
Fore
SplineSet
238 290 m 128,-1,1
 260 266 260 266 260 215 c 2,2,-1
 260 0 l 1,3,-1
 190 0 l 1,4,-1
 190 196 l 2,5,6
 190 250 190 250 150 250 c 0,7,8
 130 250 130 250 116 232 c 128,-1,9
 102 214 102 214 102 188 c 2,10,-1
 102 0 l 1,11,-1
 32 0 l 1,12,-1
 32 306 l 1,13,-1
 90 306 l 1,14,-1
 98 269 l 1,15,-1
 101 269 l 1,16,17
 131 314 131 314 179 314 c 0,18,0
 216 314 216 314 238 290 c 128,-1,1
EndSplineSet
Validated: 1
Substitution2: "'sups' Superscript lookup 11 subtable" uni207F
Substitution2: "'aalt' Access All Alternates lookup 0 subtable" uni207F
EndChar

StartChar: nacute
Encoding: 324 324 199
Width: 292
VWidth: 659
GlyphClass: 2
Flags: W
LayerCount: 2
Back
Fore
SplineSet
163 344 m 1,0,-1
 106 344 l 1,1,-1
 156 421 l 1,2,-1
 226 421 l 1,3,-1
 227 419 l 1,4,-1
 163 344 l 1,0,-1
238 290 m 128,-1,6
 260 266 260 266 260 215 c 2,7,-1
 260 0 l 1,8,-1
 190 0 l 1,9,-1
 190 196 l 2,10,11
 190 250 190 250 150 250 c 0,12,13
 130 250 130 250 116 232 c 128,-1,14
 102 214 102 214 102 188 c 2,15,-1
 102 0 l 1,16,-1
 32 0 l 1,17,-1
 32 306 l 1,18,-1
 90 306 l 1,19,-1
 98 269 l 1,20,-1
 101 269 l 1,21,22
 131 314 131 314 179 314 c 0,23,5
 216 314 216 314 238 290 c 128,-1,6
EndSplineSet
Validated: 1
EndChar

StartChar: napostrophe
Encoding: 329 329 200
Width: 394
VWidth: 659
GlyphClass: 2
Flags: W
LayerCount: 2
Back
Fore
SplineSet
85 279 m 1,0,-1
 47 279 l 1,1,-1
 68 328 l 1,2,-1
 39 328 l 1,3,-1
 39 399 l 1,4,-1
 111 399 l 1,5,-1
 111 334 l 1,6,-1
 85 279 l 1,0,-1
340 290.5 m 128,-1,8
 362 267 362 267 362 215 c 2,9,-1
 362 0 l 1,10,-1
 292 0 l 1,11,-1
 292 196 l 2,12,13
 292 250 292 250 252 250 c 0,14,15
 231 250 231 250 217.5 232 c 128,-1,16
 204 214 204 214 204 188 c 2,17,-1
 204 0 l 1,18,-1
 134 0 l 1,19,-1
 134 306 l 1,20,-1
 192 306 l 1,21,-1
 199 269 l 1,22,-1
 203 269 l 1,23,24
 215 289 215 289 235 301.5 c 128,-1,25
 255 314 255 314 280 314 c 0,26,7
 318 314 318 314 340 290.5 c 128,-1,8
EndSplineSet
Validated: 1
EndChar

StartChar: ncaron
Encoding: 328 328 201
Width: 292
VWidth: 659
GlyphClass: 2
Flags: W
LayerCount: 2
Back
Fore
SplineSet
68 421 m 1,0,-1
 120 421 l 1,1,-1
 146 381 l 1,2,-1
 172 421 l 1,3,-1
 224 421 l 1,4,-1
 175 343 l 1,5,-1
 118 343 l 1,6,-1
 68 421 l 1,0,-1
238 290 m 128,-1,8
 260 266 260 266 260 215 c 2,9,-1
 260 0 l 1,10,-1
 190 0 l 1,11,-1
 190 196 l 2,12,13
 190 250 190 250 150 250 c 0,14,15
 130 250 130 250 116 232 c 128,-1,16
 102 214 102 214 102 188 c 2,17,-1
 102 0 l 1,18,-1
 32 0 l 1,19,-1
 32 306 l 1,20,-1
 90 306 l 1,21,-1
 98 269 l 1,22,-1
 101 269 l 1,23,24
 131 314 131 314 179 314 c 0,25,7
 216 314 216 314 238 290 c 128,-1,8
EndSplineSet
Validated: 1
EndChar

StartChar: ncommaaccent
Encoding: 326 326 202
Width: 292
VWidth: 659
GlyphClass: 2
Flags: W
LayerCount: 2
Back
Fore
SplineSet
238 290 m 128,-1,1
 260 266 260 266 260 215 c 2,2,-1
 260 0 l 1,3,-1
 190 0 l 1,4,-1
 190 196 l 2,5,6
 190 250 190 250 150 250 c 0,7,8
 130 250 130 250 116 232 c 128,-1,9
 102 214 102 214 102 188 c 2,10,-1
 102 0 l 1,11,-1
 32 0 l 1,12,-1
 32 306 l 1,13,-1
 90 306 l 1,14,-1
 98 269 l 1,15,-1
 101 269 l 1,16,17
 131 314 131 314 179 314 c 0,18,0
 216 314 216 314 238 290 c 128,-1,1
118 -153 m 1,19,-1
 138 -103 l 1,20,-1
 110 -103 l 1,21,-1
 110 -32 l 1,22,-1
 182 -32 l 1,23,-1
 182 -98 l 1,24,-1
 156 -153 l 1,25,-1
 118 -153 l 1,19,-1
EndSplineSet
Validated: 1
EndChar

StartChar: eng
Encoding: 331 331 203
Width: 292
VWidth: 659
GlyphClass: 2
Flags: W
LayerCount: 2
Back
Fore
SplineSet
238 290 m 128,-1,1
 260 266 260 266 260 215 c 2,2,-1
 260 -24 l 2,3,4
 260 -59 260 -59 243.5 -82.5 c 128,-1,5
 227 -106 227 -106 188 -106 c 0,6,7
 158 -106 158 -106 137 -99 c 1,8,-1
 137 -47 l 1,9,-1
 163 -47 l 2,10,11
 190 -47 190 -47 190 -19 c 2,12,-1
 190 196 l 2,13,14
 190 250 190 250 150 250 c 0,15,16
 130 250 130 250 116 232 c 128,-1,17
 102 214 102 214 102 188 c 2,18,-1
 102 0 l 1,19,-1
 32 0 l 1,20,-1
 32 306 l 1,21,-1
 90 306 l 1,22,-1
 98 269 l 1,23,-1
 101 269 l 1,24,25
 131 314 131 314 179 314 c 0,26,0
 216 314 216 314 238 290 c 128,-1,1
EndSplineSet
Validated: 1
EndChar

StartChar: ntilde
Encoding: 241 241 204
Width: 292
VWidth: 659
GlyphClass: 2
Flags: W
LayerCount: 2
Back
Fore
SplineSet
229.5 371.5 m 128,-1,1
 215 350 215 350 186 350 c 0,2,3
 177 350 177 350 166.5 353.5 c 128,-1,4
 156 357 156 357 147 361 c 0,5,6
 125 372 125 372 109 372 c 0,7,8
 90 372 90 372 87 350 c 1,9,-1
 48 350 l 1,10,11
 48 377 48 377 62.5 399 c 128,-1,12
 77 421 77 421 105 421 c 0,13,14
 118 421 118 421 130.5 416 c 128,-1,15
 143 411 143 411 146 410 c 0,16,17
 168 399 168 399 183 399 c 0,18,19
 203 399 203 399 206 421 c 1,20,-1
 244 421 l 1,21,0
 244 393 244 393 229.5 371.5 c 128,-1,1
238 290 m 128,-1,23
 260 266 260 266 260 215 c 2,24,-1
 260 0 l 1,25,-1
 190 0 l 1,26,-1
 190 196 l 2,27,28
 190 250 190 250 150 250 c 0,29,30
 130 250 130 250 116 232 c 128,-1,31
 102 214 102 214 102 188 c 2,32,-1
 102 0 l 1,33,-1
 32 0 l 1,34,-1
 32 306 l 1,35,-1
 90 306 l 1,36,-1
 98 269 l 1,37,-1
 101 269 l 1,38,39
 131 314 131 314 179 314 c 0,40,22
 216 314 216 314 238 290 c 128,-1,23
EndSplineSet
Validated: 1
EndChar

StartChar: o
Encoding: 111 111 205
Width: 292
VWidth: 659
GlyphClass: 2
Flags: W
AnchorPoint: "Anchor-1" 0 0 basechar 0
AnchorPoint: "Anchor-0" 146 306 basechar 0
LayerCount: 2
Back
Fore
SplineSet
238.5 275 m 128,-1,1
 269 236 269 236 269 153 c 0,2,3
 269 71 269 71 238.5 32 c 128,-1,4
 208 -7 208 -7 146 -7 c 0,5,6
 85 -7 85 -7 54.5 32 c 128,-1,7
 24 71 24 71 24 153 c 256,8,9
 24 235 24 235 54.5 274.5 c 128,-1,10
 85 314 85 314 146 314 c 0,11,0
 208 314 208 314 238.5 275 c 128,-1,1
108.5 232 m 128,-1,13
 97 210 97 210 97 164 c 2,14,-1
 97 142 l 2,15,16
 97 96 97 96 108.5 74 c 128,-1,17
 120 52 120 52 146 52 c 0,18,19
 173 52 173 52 184.5 74 c 128,-1,20
 196 96 196 96 196 142 c 2,21,-1
 196 164 l 2,22,23
 196 210 196 210 184.5 232 c 128,-1,24
 173 254 173 254 146 254 c 0,25,12
 120 254 120 254 108.5 232 c 128,-1,13
EndSplineSet
Validated: 1
Substitution2: "Single Substitution lookup 42 subtable" ordmasculine
Substitution2: "'aalt' Access All Alternates lookup 0 subtable" ordmasculine
EndChar

StartChar: oacute
Encoding: 243 243 206
Width: 292
VWidth: 659
GlyphClass: 2
Flags: W
LayerCount: 2
Back
Fore
SplineSet
163 344 m 1,0,-1
 106 344 l 1,1,-1
 156 421 l 1,2,-1
 226 421 l 1,3,-1
 227 419 l 1,4,-1
 163 344 l 1,0,-1
238.5 275 m 128,-1,6
 269 236 269 236 269 153 c 0,7,8
 269 71 269 71 238.5 32 c 128,-1,9
 208 -7 208 -7 146 -7 c 0,10,11
 85 -7 85 -7 54.5 32 c 128,-1,12
 24 71 24 71 24 153 c 256,13,14
 24 235 24 235 54.5 274.5 c 128,-1,15
 85 314 85 314 146 314 c 0,16,5
 208 314 208 314 238.5 275 c 128,-1,6
108.5 232 m 128,-1,18
 97 210 97 210 97 164 c 2,19,-1
 97 142 l 2,20,21
 97 96 97 96 108.5 74 c 128,-1,22
 120 52 120 52 146 52 c 0,23,24
 173 52 173 52 184.5 74 c 128,-1,25
 196 96 196 96 196 142 c 2,26,-1
 196 164 l 2,27,28
 196 210 196 210 184.5 232 c 128,-1,29
 173 254 173 254 146 254 c 0,30,17
 120 254 120 254 108.5 232 c 128,-1,18
EndSplineSet
Validated: 1
EndChar

StartChar: obreve
Encoding: 335 335 207
Width: 292
VWidth: 659
GlyphClass: 2
Flags: W
LayerCount: 2
Back
Fore
SplineSet
201.5 378 m 128,-1,1
 180 359 180 359 146 359 c 256,2,3
 112 359 112 359 90 378.5 c 128,-1,4
 68 398 68 398 68 421 c 1,5,-1
 111 421 l 1,6,7
 113 414 113 414 123 408 c 128,-1,8
 133 402 133 402 146 402 c 256,9,10
 159 402 159 402 169 408 c 128,-1,11
 179 414 179 414 181 421 c 1,12,-1
 223 421 l 1,13,0
 223 397 223 397 201.5 378 c 128,-1,1
238.5 275 m 128,-1,15
 269 236 269 236 269 153 c 0,16,17
 269 71 269 71 238.5 32 c 128,-1,18
 208 -7 208 -7 146 -7 c 0,19,20
 85 -7 85 -7 54.5 32 c 128,-1,21
 24 71 24 71 24 153 c 256,22,23
 24 235 24 235 54.5 274.5 c 128,-1,24
 85 314 85 314 146 314 c 0,25,14
 208 314 208 314 238.5 275 c 128,-1,15
108.5 232 m 128,-1,27
 97 210 97 210 97 164 c 2,28,-1
 97 142 l 2,29,30
 97 96 97 96 108.5 74 c 128,-1,31
 120 52 120 52 146 52 c 0,32,33
 173 52 173 52 184.5 74 c 128,-1,34
 196 96 196 96 196 142 c 2,35,-1
 196 164 l 2,36,37
 196 210 196 210 184.5 232 c 128,-1,38
 173 254 173 254 146 254 c 0,39,26
 120 254 120 254 108.5 232 c 128,-1,27
EndSplineSet
Validated: 1
EndChar

StartChar: ocircumflex
Encoding: 244 244 208
Width: 292
VWidth: 659
GlyphClass: 2
Flags: W
LayerCount: 2
Back
Fore
SplineSet
146 383 m 1,0,-1
 120 343 l 1,1,-1
 68 343 l 1,2,-1
 118 421 l 1,3,-1
 175 421 l 1,4,-1
 224 343 l 1,5,-1
 172 343 l 1,6,-1
 146 383 l 1,0,-1
238.5 275 m 128,-1,8
 269 236 269 236 269 153 c 0,9,10
 269 71 269 71 238.5 32 c 128,-1,11
 208 -7 208 -7 146 -7 c 0,12,13
 85 -7 85 -7 54.5 32 c 128,-1,14
 24 71 24 71 24 153 c 256,15,16
 24 235 24 235 54.5 274.5 c 128,-1,17
 85 314 85 314 146 314 c 0,18,7
 208 314 208 314 238.5 275 c 128,-1,8
108.5 232 m 128,-1,20
 97 210 97 210 97 164 c 2,21,-1
 97 142 l 2,22,23
 97 96 97 96 108.5 74 c 128,-1,24
 120 52 120 52 146 52 c 0,25,26
 173 52 173 52 184.5 74 c 128,-1,27
 196 96 196 96 196 142 c 2,28,-1
 196 164 l 2,29,30
 196 210 196 210 184.5 232 c 128,-1,31
 173 254 173 254 146 254 c 0,32,19
 120 254 120 254 108.5 232 c 128,-1,20
EndSplineSet
Validated: 1
EndChar

StartChar: odieresis
Encoding: 246 246 209
Width: 292
VWidth: 659
GlyphClass: 2
Flags: W
LayerCount: 2
Back
Fore
SplineSet
66 358 m 1,0,-1
 66 421 l 1,1,-1
 124 421 l 1,2,-1
 124 358 l 1,3,-1
 66 358 l 1,0,-1
168 358 m 1,4,-1
 168 421 l 1,5,-1
 226 421 l 1,6,-1
 226 358 l 1,7,-1
 168 358 l 1,4,-1
238.5 275 m 128,-1,9
 269 236 269 236 269 153 c 0,10,11
 269 71 269 71 238.5 32 c 128,-1,12
 208 -7 208 -7 146 -7 c 0,13,14
 85 -7 85 -7 54.5 32 c 128,-1,15
 24 71 24 71 24 153 c 256,16,17
 24 235 24 235 54.5 274.5 c 128,-1,18
 85 314 85 314 146 314 c 0,19,8
 208 314 208 314 238.5 275 c 128,-1,9
108.5 232 m 128,-1,21
 97 210 97 210 97 164 c 2,22,-1
 97 142 l 2,23,24
 97 96 97 96 108.5 74 c 128,-1,25
 120 52 120 52 146 52 c 0,26,27
 173 52 173 52 184.5 74 c 128,-1,28
 196 96 196 96 196 142 c 2,29,-1
 196 164 l 2,30,31
 196 210 196 210 184.5 232 c 128,-1,32
 173 254 173 254 146 254 c 0,33,20
 120 254 120 254 108.5 232 c 128,-1,21
EndSplineSet
Validated: 1
EndChar

StartChar: ograve
Encoding: 242 242 210
Width: 292
VWidth: 659
GlyphClass: 2
Flags: W
LayerCount: 2
Back
Fore
SplineSet
128 344 m 1,0,-1
 65 419 l 1,1,-1
 66 421 l 1,2,-1
 136 421 l 1,3,-1
 186 344 l 1,4,-1
 128 344 l 1,0,-1
238.5 275 m 128,-1,6
 269 236 269 236 269 153 c 0,7,8
 269 71 269 71 238.5 32 c 128,-1,9
 208 -7 208 -7 146 -7 c 0,10,11
 85 -7 85 -7 54.5 32 c 128,-1,12
 24 71 24 71 24 153 c 256,13,14
 24 235 24 235 54.5 274.5 c 128,-1,15
 85 314 85 314 146 314 c 0,16,5
 208 314 208 314 238.5 275 c 128,-1,6
108.5 232 m 128,-1,18
 97 210 97 210 97 164 c 2,19,-1
 97 142 l 2,20,21
 97 96 97 96 108.5 74 c 128,-1,22
 120 52 120 52 146 52 c 0,23,24
 173 52 173 52 184.5 74 c 128,-1,25
 196 96 196 96 196 142 c 2,26,-1
 196 164 l 2,27,28
 196 210 196 210 184.5 232 c 128,-1,29
 173 254 173 254 146 254 c 0,30,17
 120 254 120 254 108.5 232 c 128,-1,18
EndSplineSet
Validated: 1
EndChar

StartChar: ohungarumlaut
Encoding: 337 337 211
Width: 292
VWidth: 659
GlyphClass: 2
Flags: W
LayerCount: 2
Back
Fore
SplineSet
80 344 m 1,0,-1
 117 421 l 1,1,-1
 175 421 l 1,2,-1
 175 419 l 1,3,-1
 127 344 l 1,4,-1
 80 344 l 1,0,-1
162 344 m 1,5,-1
 198 421 l 1,6,-1
 256 421 l 1,7,-1
 257 419 l 1,8,-1
 208 344 l 1,9,-1
 162 344 l 1,5,-1
238.5 275 m 128,-1,11
 269 236 269 236 269 153 c 0,12,13
 269 71 269 71 238.5 32 c 128,-1,14
 208 -7 208 -7 146 -7 c 0,15,16
 85 -7 85 -7 54.5 32 c 128,-1,17
 24 71 24 71 24 153 c 256,18,19
 24 235 24 235 54.5 274.5 c 128,-1,20
 85 314 85 314 146 314 c 0,21,10
 208 314 208 314 238.5 275 c 128,-1,11
108.5 232 m 128,-1,23
 97 210 97 210 97 164 c 2,24,-1
 97 142 l 2,25,26
 97 96 97 96 108.5 74 c 128,-1,27
 120 52 120 52 146 52 c 0,28,29
 173 52 173 52 184.5 74 c 128,-1,30
 196 96 196 96 196 142 c 2,31,-1
 196 164 l 2,32,33
 196 210 196 210 184.5 232 c 128,-1,34
 173 254 173 254 146 254 c 0,35,22
 120 254 120 254 108.5 232 c 128,-1,23
EndSplineSet
Validated: 1
EndChar

StartChar: omacron
Encoding: 333 333 212
Width: 292
VWidth: 659
GlyphClass: 2
Flags: W
LayerCount: 2
Back
Fore
SplineSet
72 399 m 1,0,-1
 220 399 l 1,1,-1
 220 349 l 1,2,-1
 72 349 l 1,3,-1
 72 399 l 1,0,-1
238.5 275 m 128,-1,5
 269 236 269 236 269 153 c 0,6,7
 269 71 269 71 238.5 32 c 128,-1,8
 208 -7 208 -7 146 -7 c 0,9,10
 85 -7 85 -7 54.5 32 c 128,-1,11
 24 71 24 71 24 153 c 256,12,13
 24 235 24 235 54.5 274.5 c 128,-1,14
 85 314 85 314 146 314 c 0,15,4
 208 314 208 314 238.5 275 c 128,-1,5
108.5 232 m 128,-1,17
 97 210 97 210 97 164 c 2,18,-1
 97 142 l 2,19,20
 97 96 97 96 108.5 74 c 128,-1,21
 120 52 120 52 146 52 c 0,22,23
 173 52 173 52 184.5 74 c 128,-1,24
 196 96 196 96 196 142 c 2,25,-1
 196 164 l 2,26,27
 196 210 196 210 184.5 232 c 128,-1,28
 173 254 173 254 146 254 c 0,29,16
 120 254 120 254 108.5 232 c 128,-1,17
EndSplineSet
Validated: 1
EndChar

StartChar: oslash
Encoding: 248 248 213
Width: 292
VWidth: 659
GlyphClass: 2
Flags: W
AnchorPoint: "Anchor-1" 0 0 basechar 0
AnchorPoint: "Anchor-0" 146 306 basechar 0
LayerCount: 2
Back
Fore
SplineSet
269 153 m 0,1,2
 269 71 269 71 238.5 32 c 128,-1,3
 208 -7 208 -7 146 -7 c 0,4,5
 111 -7 111 -7 87 5 c 1,6,-1
 74 -18 l 1,7,-1
 30 -18 l 1,8,-1
 57 29 l 1,9,10
 24 68 24 68 24 153 c 0,11,12
 24 235 24 235 54.5 274.5 c 128,-1,13
 85 314 85 314 146 314 c 0,14,15
 178 314 178 314 204 301 c 1,16,-1
 217 325 l 1,17,-1
 261 325 l 1,18,-1
 235 278 l 1,19,0
 269 240 269 240 269 153 c 0,1,2
108.5 232 m 128,-1,21
 97 210 97 210 97 164 c 2,22,-1
 97 142 l 2,23,24
 97 128 97 128 98 122 c 2,25,-1
 98 107 l 1,26,-1
 173 245 l 1,27,28
 164 254 164 254 146 254 c 0,29,20
 120 254 120 254 108.5 232 c 128,-1,21
146 52 m 0,31,32
 173 52 173 52 184.5 74 c 128,-1,33
 196 96 196 96 196 142 c 2,34,-1
 196 164 l 2,35,36
 196 175 196 175 194 191 c 2,37,-1
 193 201 l 1,38,-1
 118 62 l 1,39,30
 128 52 128 52 146 52 c 0,31,32
EndSplineSet
Validated: 1
EndChar

StartChar: oslashacute
Encoding: 511 511 214
Width: 292
VWidth: 659
GlyphClass: 2
Flags: W
LayerCount: 2
Back
Fore
SplineSet
163 344 m 1,0,-1
 106 344 l 1,1,-1
 156 421 l 1,2,-1
 226 421 l 1,3,-1
 227 419 l 1,4,-1
 163 344 l 1,0,-1
269 153 m 0,6,7
 269 71 269 71 238.5 32 c 128,-1,8
 208 -7 208 -7 146 -7 c 0,9,10
 111 -7 111 -7 87 5 c 1,11,-1
 74 -18 l 1,12,-1
 30 -18 l 1,13,-1
 57 29 l 1,14,15
 24 68 24 68 24 153 c 0,16,17
 24 235 24 235 54.5 274.5 c 128,-1,18
 85 314 85 314 146 314 c 0,19,20
 178 314 178 314 204 301 c 1,21,-1
 217 325 l 1,22,-1
 261 325 l 1,23,-1
 235 278 l 1,24,5
 269 240 269 240 269 153 c 0,6,7
108.5 232 m 128,-1,26
 97 210 97 210 97 164 c 2,27,-1
 97 142 l 2,28,29
 97 128 97 128 98 122 c 2,30,-1
 98 107 l 1,31,-1
 173 245 l 1,32,33
 164 254 164 254 146 254 c 0,34,25
 120 254 120 254 108.5 232 c 128,-1,26
146 52 m 0,36,37
 173 52 173 52 184.5 74 c 128,-1,38
 196 96 196 96 196 142 c 2,39,-1
 196 164 l 2,40,41
 196 175 196 175 194 191 c 2,42,-1
 193 201 l 1,43,-1
 118 62 l 1,44,35
 128 52 128 52 146 52 c 0,36,37
EndSplineSet
Validated: 1
EndChar

StartChar: otilde
Encoding: 245 245 215
Width: 292
VWidth: 659
GlyphClass: 2
Flags: W
LayerCount: 2
Back
Fore
SplineSet
229.5 371.5 m 128,-1,1
 215 350 215 350 186 350 c 0,2,3
 177 350 177 350 166.5 353.5 c 128,-1,4
 156 357 156 357 147 361 c 0,5,6
 125 372 125 372 109 372 c 0,7,8
 90 372 90 372 87 350 c 1,9,-1
 48 350 l 1,10,11
 48 377 48 377 62.5 399 c 128,-1,12
 77 421 77 421 105 421 c 0,13,14
 118 421 118 421 130.5 416 c 128,-1,15
 143 411 143 411 146 410 c 0,16,17
 168 399 168 399 183 399 c 0,18,19
 203 399 203 399 206 421 c 1,20,-1
 244 421 l 1,21,0
 244 393 244 393 229.5 371.5 c 128,-1,1
238.5 275 m 128,-1,23
 269 236 269 236 269 153 c 0,24,25
 269 71 269 71 238.5 32 c 128,-1,26
 208 -7 208 -7 146 -7 c 0,27,28
 85 -7 85 -7 54.5 32 c 128,-1,29
 24 71 24 71 24 153 c 256,30,31
 24 235 24 235 54.5 274.5 c 128,-1,32
 85 314 85 314 146 314 c 0,33,22
 208 314 208 314 238.5 275 c 128,-1,23
108.5 232 m 128,-1,35
 97 210 97 210 97 164 c 2,36,-1
 97 142 l 2,37,38
 97 96 97 96 108.5 74 c 128,-1,39
 120 52 120 52 146 52 c 0,40,41
 173 52 173 52 184.5 74 c 128,-1,42
 196 96 196 96 196 142 c 2,43,-1
 196 164 l 2,44,45
 196 210 196 210 184.5 232 c 128,-1,46
 173 254 173 254 146 254 c 0,47,34
 120 254 120 254 108.5 232 c 128,-1,35
EndSplineSet
Validated: 1
EndChar

StartChar: oe
Encoding: 339 339 216
Width: 451
VWidth: 659
GlyphClass: 2
Flags: W
AnchorPoint: "Anchor-1" 0 0 basechar 0
AnchorPoint: "Anchor-0" 225 306 basechar 0
LayerCount: 2
Back
Fore
SplineSet
397 275 m 128,-1,1
 424 236 424 236 424 153 c 2,2,-1
 424 136 l 1,3,-1
 269 136 l 1,4,5
 270 93 270 93 280.5 71.5 c 128,-1,6
 291 50 291 50 316 50 c 0,7,8
 334 50 334 50 344.5 65.5 c 128,-1,9
 355 81 355 81 355 108 c 1,10,-1
 424 108 l 1,11,12
 424 51 424 51 394.5 22 c 128,-1,13
 365 -7 365 -7 316 -7 c 0,14,15
 261 -7 261 -7 233 31 c 1,16,17
 202 -7 202 -7 146 -7 c 0,18,19
 85 -7 85 -7 54.5 32 c 128,-1,20
 24 71 24 71 24 153 c 256,21,22
 24 235 24 235 54.5 274.5 c 128,-1,23
 85 314 85 314 146 314 c 0,24,25
 202 314 202 314 232 275 c 1,26,27
 262 314 262 314 314 314 c 0,28,0
 370 314 370 314 397 275 c 128,-1,1
282 238.5 m 128,-1,30
 272 221 272 221 270 186 c 1,31,-1
 351 186 l 1,32,33
 351 256 351 256 314 256 c 0,34,29
 292 256 292 256 282 238.5 c 128,-1,30
108.5 232 m 128,-1,36
 97 210 97 210 97 164 c 2,37,-1
 97 142 l 2,38,39
 97 96 97 96 108.5 74 c 128,-1,40
 120 52 120 52 146 52 c 0,41,42
 173 52 173 52 184.5 74 c 128,-1,43
 196 96 196 96 196 142 c 2,44,-1
 196 164 l 2,45,46
 196 210 196 210 184.5 232 c 128,-1,47
 173 254 173 254 146 254 c 0,48,35
 120 254 120 254 108.5 232 c 128,-1,36
EndSplineSet
Validated: 1
EndChar

StartChar: p
Encoding: 112 112 217
Width: 292
VWidth: 659
GlyphClass: 2
Flags: W
LayerCount: 2
Back
Fore
SplineSet
242 274 m 128,-1,1
 268 234 268 234 268 153 c 0,2,3
 268 73 268 73 242 33 c 128,-1,4
 216 -7 216 -7 173 -7 c 0,5,6
 149 -7 149 -7 131 3 c 128,-1,7
 113 13 113 13 105 32 c 1,8,-1
 102 32 l 1,9,-1
 102 -101 l 1,10,-1
 32 -101 l 1,11,-1
 32 306 l 1,12,-1
 90 306 l 1,13,-1
 98 269 l 1,14,-1
 100 269 l 1,15,16
 111 291 111 291 129 302.5 c 128,-1,17
 147 314 147 314 169 314 c 0,18,0
 216 314 216 314 242 274 c 128,-1,1
113 228.5 m 128,-1,20
 102 207 102 207 102 164 c 2,21,-1
 102 143 l 2,22,23
 102 100 102 100 113 78.5 c 128,-1,24
 124 57 124 57 148 57 c 0,25,26
 173 57 173 57 184 78 c 128,-1,27
 195 99 195 99 195 142 c 2,28,-1
 195 164 l 2,29,30
 195 207 195 207 184 228.5 c 128,-1,31
 173 250 173 250 148 250 c 0,32,19
 124 250 124 250 113 228.5 c 128,-1,20
EndSplineSet
Validated: 1
EndChar

StartChar: thorn
Encoding: 254 254 218
Width: 292
VWidth: 659
GlyphClass: 2
Flags: W
LayerCount: 2
Back
Fore
SplineSet
242 274 m 128,-1,1
 268 234 268 234 268 153 c 0,2,3
 268 73 268 73 242 33 c 128,-1,4
 216 -7 216 -7 173 -7 c 0,5,6
 149 -7 149 -7 131 3 c 128,-1,7
 113 13 113 13 105 32 c 1,8,-1
 102 32 l 1,9,-1
 102 -101 l 1,10,-1
 32 -101 l 1,11,-1
 32 421 l 1,12,-1
 102 421 l 1,13,-1
 102 272 l 1,14,15
 125 314 125 314 169 314 c 0,16,0
 216 314 216 314 242 274 c 128,-1,1
195 164 m 2,17,18
 195 207 195 207 184 228.5 c 128,-1,19
 173 250 173 250 148 250 c 0,20,21
 124 250 124 250 113 228.5 c 128,-1,22
 102 207 102 207 102 164 c 2,23,-1
 102 143 l 2,24,25
 102 100 102 100 113 78.5 c 128,-1,26
 124 57 124 57 148 57 c 0,27,28
 173 57 173 57 184 78 c 128,-1,29
 195 99 195 99 195 142 c 2,30,-1
 195 164 l 2,17,18
EndSplineSet
Validated: 1
EndChar

StartChar: q
Encoding: 113 113 219
Width: 292
VWidth: 659
GlyphClass: 2
Flags: W
LayerCount: 2
Back
Fore
SplineSet
163 302.5 m 128,-1,1
 181 291 181 291 192 269 c 1,2,-1
 194 269 l 1,3,-1
 202 306 l 1,4,-1
 260 306 l 1,5,-1
 260 -101 l 1,6,-1
 190 -101 l 1,7,-1
 190 32 l 1,8,-1
 187 32 l 1,9,10
 179 13 179 13 161 3 c 128,-1,11
 143 -7 143 -7 119 -7 c 0,12,13
 76 -7 76 -7 50 33 c 128,-1,14
 24 73 24 73 24 153 c 0,15,16
 24 234 24 234 50 274 c 128,-1,17
 76 314 76 314 123 314 c 0,18,0
 145 314 145 314 163 302.5 c 128,-1,1
107.5 228.5 m 128,-1,20
 97 207 97 207 97 164 c 2,21,-1
 97 142 l 2,22,23
 97 99 97 99 107.5 78 c 128,-1,24
 118 57 118 57 143 57 c 256,25,26
 168 57 168 57 179 78.5 c 128,-1,27
 190 100 190 100 190 143 c 2,28,-1
 190 164 l 2,29,30
 190 207 190 207 179 228.5 c 128,-1,31
 168 250 168 250 143 250 c 256,32,19
 118 250 118 250 107.5 228.5 c 128,-1,20
EndSplineSet
Validated: 1
EndChar

StartChar: r
Encoding: 114 114 220
Width: 186
VWidth: 659
GlyphClass: 2
Flags: W
AnchorPoint: "Anchor-1" 93 0 basechar 0
AnchorPoint: "Anchor-0" 93 306 basechar 0
LayerCount: 2
Back
Fore
SplineSet
174 312 m 128,-1,1
 182 310 182 310 184 309 c 2,2,-1
 184 241 l 1,3,-1
 159 241 l 2,4,5
 134 241 134 241 118 225 c 128,-1,6
 102 209 102 209 102 171 c 2,7,-1
 102 0 l 1,8,-1
 32 0 l 1,9,-1
 32 306 l 1,10,-1
 90 306 l 1,11,-1
 98 262 l 1,12,-1
 102 262 l 1,13,14
 119 314 119 314 155 314 c 0,15,0
 166 314 166 314 174 312 c 128,-1,1
EndSplineSet
Validated: 1
EndChar

StartChar: racute
Encoding: 341 341 221
Width: 186
VWidth: 659
GlyphClass: 2
Flags: W
LayerCount: 2
Back
Fore
SplineSet
83 344 m 1,0,-1
 24 344 l 1,1,-1
 74 421 l 1,2,-1
 145 421 l 1,3,-1
 146 419 l 1,4,-1
 83 344 l 1,0,-1
174 312 m 128,-1,6
 182 310 182 310 184 309 c 2,7,-1
 184 241 l 1,8,-1
 159 241 l 2,9,10
 134 241 134 241 118 225 c 128,-1,11
 102 209 102 209 102 171 c 2,12,-1
 102 0 l 1,13,-1
 32 0 l 1,14,-1
 32 306 l 1,15,-1
 90 306 l 1,16,-1
 98 262 l 1,17,-1
 102 262 l 1,18,19
 119 314 119 314 155 314 c 0,20,5
 166 314 166 314 174 312 c 128,-1,6
EndSplineSet
Validated: 1
EndChar

StartChar: rcaron
Encoding: 345 345 222
Width: 186
VWidth: 659
GlyphClass: 2
Flags: W
LayerCount: 2
Back
Fore
SplineSet
-13 421 m 1,0,-1
 39 421 l 1,1,-1
 65 381 l 1,2,-1
 91 421 l 1,3,-1
 143 421 l 1,4,-1
 94 343 l 1,5,-1
 37 343 l 1,6,-1
 -13 421 l 1,0,-1
174 312 m 128,-1,8
 182 310 182 310 184 309 c 2,9,-1
 184 241 l 1,10,-1
 159 241 l 2,11,12
 134 241 134 241 118 225 c 128,-1,13
 102 209 102 209 102 171 c 2,14,-1
 102 0 l 1,15,-1
 32 0 l 1,16,-1
 32 306 l 1,17,-1
 90 306 l 1,18,-1
 98 262 l 1,19,-1
 102 262 l 1,20,21
 119 314 119 314 155 314 c 0,22,7
 166 314 166 314 174 312 c 128,-1,8
EndSplineSet
Validated: 1
EndChar

StartChar: rcommaaccent
Encoding: 343 343 223
Width: 186
VWidth: 659
GlyphClass: 2
Flags: W
LayerCount: 2
Back
Fore
SplineSet
174 312 m 128,-1,1
 182 310 182 310 184 309 c 2,2,-1
 184 241 l 1,3,-1
 159 241 l 2,4,5
 134 241 134 241 118 225 c 128,-1,6
 102 209 102 209 102 171 c 2,7,-1
 102 0 l 1,8,-1
 32 0 l 1,9,-1
 32 306 l 1,10,-1
 90 306 l 1,11,-1
 98 262 l 1,12,-1
 102 262 l 1,13,14
 119 314 119 314 155 314 c 0,15,0
 166 314 166 314 174 312 c 128,-1,1
42 -153 m 1,16,-1
 63 -103 l 1,17,-1
 34 -103 l 1,18,-1
 34 -32 l 1,19,-1
 107 -32 l 1,20,-1
 107 -98 l 1,21,-1
 80 -153 l 1,22,-1
 42 -153 l 1,16,-1
EndSplineSet
Validated: 1
EndChar

StartChar: s
Encoding: 115 115 224
Width: 266
VWidth: 659
GlyphClass: 2
Flags: W
AnchorPoint: "Anchor-1" 133 0 basechar 0
AnchorPoint: "Anchor-0" 133 306 basechar 0
LayerCount: 2
Back
Fore
SplineSet
207.5 291.5 m 128,-1,1
 237 269 237 269 237 230 c 2,2,-1
 237 217 l 1,3,-1
 165 217 l 1,4,-1
 165 218 l 2,5,6
 165 256 165 256 131 256 c 0,7,8
 115 256 115 256 105 248 c 128,-1,9
 95 240 95 240 95 226 c 0,10,11
 95 210 95 210 108.5 202.5 c 128,-1,12
 122 195 122 195 150 188 c 0,13,14
 179 180 179 180 198 172 c 128,-1,15
 217 164 217 164 230.5 144.5 c 128,-1,16
 244 125 244 125 244 92 c 0,17,18
 244 -7 244 -7 130 -7 c 0,19,20
 78 -7 78 -7 48.5 19.5 c 128,-1,21
 19 46 19 46 19 90 c 1,22,-1
 20 98 l 1,23,-1
 91 98 l 1,24,-1
 91 93 l 2,25,26
 92 71 92 71 104 60.5 c 128,-1,27
 116 50 116 50 133 50 c 256,28,29
 150 50 150 50 161.5 58 c 128,-1,30
 173 66 173 66 173 83 c 0,31,32
 173 102 173 102 159.5 110 c 128,-1,33
 146 118 146 118 115 127 c 0,34,35
 86 135 86 135 68 143.5 c 128,-1,36
 50 152 50 152 37 170 c 128,-1,37
 24 188 24 188 24 220 c 0,38,39
 24 265 24 265 54.5 289.5 c 128,-1,40
 85 314 85 314 133 314 c 0,41,0
 178 314 178 314 207.5 291.5 c 128,-1,1
EndSplineSet
Validated: 1
EndChar

StartChar: sacute
Encoding: 347 347 225
Width: 266
VWidth: 659
GlyphClass: 2
Flags: W
LayerCount: 2
Back
Fore
SplineSet
150 344 m 1,0,-1
 93 344 l 1,1,-1
 143 421 l 1,2,-1
 213 421 l 1,3,-1
 214 419 l 1,4,-1
 150 344 l 1,0,-1
207.5 291.5 m 128,-1,6
 237 269 237 269 237 230 c 2,7,-1
 237 217 l 1,8,-1
 165 217 l 1,9,-1
 165 218 l 2,10,11
 165 256 165 256 131 256 c 0,12,13
 115 256 115 256 105 248 c 128,-1,14
 95 240 95 240 95 226 c 0,15,16
 95 210 95 210 108.5 202.5 c 128,-1,17
 122 195 122 195 150 188 c 0,18,19
 179 180 179 180 198 172 c 128,-1,20
 217 164 217 164 230.5 144.5 c 128,-1,21
 244 125 244 125 244 92 c 0,22,23
 244 -7 244 -7 130 -7 c 0,24,25
 78 -7 78 -7 48.5 19.5 c 128,-1,26
 19 46 19 46 19 90 c 1,27,-1
 20 98 l 1,28,-1
 91 98 l 1,29,-1
 91 93 l 2,30,31
 92 71 92 71 104 60.5 c 128,-1,32
 116 50 116 50 133 50 c 256,33,34
 150 50 150 50 161.5 58 c 128,-1,35
 173 66 173 66 173 83 c 0,36,37
 173 102 173 102 159.5 110 c 128,-1,38
 146 118 146 118 115 127 c 0,39,40
 86 135 86 135 68 143.5 c 128,-1,41
 50 152 50 152 37 170 c 128,-1,42
 24 188 24 188 24 220 c 0,43,44
 24 265 24 265 54.5 289.5 c 128,-1,45
 85 314 85 314 133 314 c 0,46,5
 178 314 178 314 207.5 291.5 c 128,-1,6
EndSplineSet
Validated: 1
EndChar

StartChar: scaron
Encoding: 353 353 226
Width: 266
VWidth: 659
GlyphClass: 2
Flags: W
LayerCount: 2
Back
Fore
SplineSet
105 343 m 1,0,-1
 55 421 l 1,1,-1
 107 421 l 1,2,-1
 133 381 l 1,3,-1
 159 421 l 1,4,-1
 212 421 l 1,5,-1
 162 343 l 1,6,-1
 105 343 l 1,0,-1
207.5 291.5 m 128,-1,8
 237 269 237 269 237 230 c 2,9,-1
 237 217 l 1,10,-1
 165 217 l 1,11,-1
 165 218 l 2,12,13
 165 256 165 256 131 256 c 0,14,15
 115 256 115 256 105 248 c 128,-1,16
 95 240 95 240 95 226 c 0,17,18
 95 210 95 210 108.5 202.5 c 128,-1,19
 122 195 122 195 150 188 c 0,20,21
 179 180 179 180 198 172 c 128,-1,22
 217 164 217 164 230.5 144.5 c 128,-1,23
 244 125 244 125 244 92 c 0,24,25
 244 -7 244 -7 130 -7 c 0,26,27
 78 -7 78 -7 48.5 19.5 c 128,-1,28
 19 46 19 46 19 90 c 1,29,-1
 20 98 l 1,30,-1
 91 98 l 1,31,-1
 91 93 l 2,32,33
 92 71 92 71 104 60.5 c 128,-1,34
 116 50 116 50 133 50 c 256,35,36
 150 50 150 50 161.5 58 c 128,-1,37
 173 66 173 66 173 83 c 0,38,39
 173 102 173 102 159.5 110 c 128,-1,40
 146 118 146 118 115 127 c 0,41,42
 86 135 86 135 68 143.5 c 128,-1,43
 50 152 50 152 37 170 c 128,-1,44
 24 188 24 188 24 220 c 0,45,46
 24 265 24 265 54.5 289.5 c 128,-1,47
 85 314 85 314 133 314 c 0,48,7
 178 314 178 314 207.5 291.5 c 128,-1,8
EndSplineSet
Validated: 1
EndChar

StartChar: scedilla
Encoding: 351 351 227
Width: 266
VWidth: 659
GlyphClass: 2
Flags: W
LayerCount: 2
Back
Fore
SplineSet
207.5 291.5 m 128,-1,1
 237 269 237 269 237 230 c 2,2,-1
 237 217 l 1,3,-1
 165 217 l 1,4,-1
 165 218 l 2,5,6
 165 256 165 256 131 256 c 0,7,8
 115 256 115 256 105 248 c 128,-1,9
 95 240 95 240 95 226 c 0,10,11
 95 210 95 210 108.5 202.5 c 128,-1,12
 122 195 122 195 150 188 c 0,13,14
 179 180 179 180 198 172 c 128,-1,15
 217 164 217 164 230.5 144.5 c 128,-1,16
 244 125 244 125 244 92 c 0,17,18
 244 0 244 0 144 -7 c 1,19,-1
 143 -19 l 1,20,21
 164 -21 164 -21 176.5 -30.5 c 128,-1,22
 189 -40 189 -40 189 -59 c 0,23,24
 189 -85 189 -85 170 -95.5 c 128,-1,25
 151 -106 151 -106 126 -106 c 0,26,27
 100 -106 100 -106 77 -101 c 1,28,-1
 77 -73 l 1,29,-1
 118 -73 l 2,30,31
 139 -73 139 -73 139 -59 c 0,32,33
 139 -51 139 -51 134.5 -48 c 128,-1,34
 130 -45 130 -45 119 -45 c 2,35,-1
 100 -45 l 1,36,-1
 105 -5 l 1,37,38
 64 1 64 1 41.5 26 c 128,-1,39
 19 51 19 51 19 90 c 1,40,-1
 20 98 l 1,41,-1
 91 98 l 1,42,-1
 91 93 l 2,43,44
 92 71 92 71 104 60.5 c 128,-1,45
 116 50 116 50 133 50 c 256,46,47
 150 50 150 50 161.5 58 c 128,-1,48
 173 66 173 66 173 83 c 0,49,50
 173 102 173 102 159.5 110 c 128,-1,51
 146 118 146 118 115 127 c 0,52,53
 86 135 86 135 68 143.5 c 128,-1,54
 50 152 50 152 37 170 c 128,-1,55
 24 188 24 188 24 220 c 0,56,57
 24 265 24 265 54.5 289.5 c 128,-1,58
 85 314 85 314 133 314 c 0,59,0
 178 314 178 314 207.5 291.5 c 128,-1,1
EndSplineSet
Validated: 1
Substitution2: "'locl' Localized Forms in Latin lookup 6 subtable" scommaaccent
Substitution2: "'locl' Localized Forms in Latin lookup 5 subtable" scommaaccent
Substitution2: "'aalt' Access All Alternates lookup 0 subtable" scommaaccent
EndChar

StartChar: scircumflex
Encoding: 349 349 228
Width: 266
VWidth: 659
GlyphClass: 2
Flags: W
LayerCount: 2
Back
Fore
SplineSet
159 343 m 1,0,-1
 133 383 l 1,1,-1
 107 343 l 1,2,-1
 55 343 l 1,3,-1
 105 421 l 1,4,-1
 162 421 l 1,5,-1
 212 343 l 1,6,-1
 159 343 l 1,0,-1
207.5 291.5 m 128,-1,8
 237 269 237 269 237 230 c 2,9,-1
 237 217 l 1,10,-1
 165 217 l 1,11,-1
 165 218 l 2,12,13
 165 256 165 256 131 256 c 0,14,15
 115 256 115 256 105 248 c 128,-1,16
 95 240 95 240 95 226 c 0,17,18
 95 210 95 210 108.5 202.5 c 128,-1,19
 122 195 122 195 150 188 c 0,20,21
 179 180 179 180 198 172 c 128,-1,22
 217 164 217 164 230.5 144.5 c 128,-1,23
 244 125 244 125 244 92 c 0,24,25
 244 -7 244 -7 130 -7 c 0,26,27
 78 -7 78 -7 48.5 19.5 c 128,-1,28
 19 46 19 46 19 90 c 1,29,-1
 20 98 l 1,30,-1
 91 98 l 1,31,-1
 91 93 l 2,32,33
 92 71 92 71 104 60.5 c 128,-1,34
 116 50 116 50 133 50 c 256,35,36
 150 50 150 50 161.5 58 c 128,-1,37
 173 66 173 66 173 83 c 0,38,39
 173 102 173 102 159.5 110 c 128,-1,40
 146 118 146 118 115 127 c 0,41,42
 86 135 86 135 68 143.5 c 128,-1,43
 50 152 50 152 37 170 c 128,-1,44
 24 188 24 188 24 220 c 0,45,46
 24 265 24 265 54.5 289.5 c 128,-1,47
 85 314 85 314 133 314 c 0,48,7
 178 314 178 314 207.5 291.5 c 128,-1,8
EndSplineSet
Validated: 1
EndChar

StartChar: germandbls
Encoding: 223 223 230
Width: 292
VWidth: 659
GlyphClass: 2
Flags: W
LayerCount: 2
Back
Fore
SplineSet
231.5 398.5 m 128,-1,1
 264 369 264 369 264 319 c 0,2,3
 264 290 264 290 248.5 265 c 128,-1,4
 233 240 233 240 208 230 c 1,5,-1
 208 228 l 1,6,7
 237 218 237 218 256 188.5 c 128,-1,8
 275 159 275 159 275 125 c 0,9,10
 275 69 275 69 242 34.5 c 128,-1,11
 209 0 209 0 159 0 c 2,12,-1
 121 0 l 1,13,-1
 121 59 l 1,14,-1
 152 59 l 2,15,16
 174 59 174 59 189.5 79 c 128,-1,17
 205 99 205 99 205 125 c 256,18,19
 205 151 205 151 189.5 169.5 c 128,-1,20
 174 188 174 188 152 188 c 2,21,-1
 121 188 l 1,22,-1
 121 254 l 1,23,-1
 150 254 l 2,24,25
 167 254 167 254 180 273 c 128,-1,26
 193 292 193 292 193 318 c 0,27,28
 193 341 193 341 180.5 355 c 128,-1,29
 168 369 168 369 145 369 c 0,30,31
 121 369 121 369 107 353 c 128,-1,32
 93 337 93 337 93 308 c 2,33,-1
 93 0 l 1,34,-1
 23 0 l 1,35,-1
 23 303 l 2,36,37
 23 366 23 366 57.5 397 c 128,-1,38
 92 428 92 428 148 428 c 0,39,0
 199 428 199 428 231.5 398.5 c 128,-1,1
EndSplineSet
Validated: 1
EndChar

StartChar: longs
Encoding: 383 383 231
Width: 133
VWidth: 659
GlyphClass: 2
Flags: W
LayerCount: 2
Back
Fore
SplineSet
159 419 m 1,1,-1
 159 367 l 1,2,-1
 130 367 l 2,3,4
 119 367 119 367 112.5 360.5 c 128,-1,5
 106 354 106 354 106 342 c 2,6,-1
 106 0 l 1,7,-1
 36 0 l 1,8,-1
 36 248 l 1,9,-1
 5 248 l 1,10,-1
 5 306 l 1,11,-1
 36 306 l 1,12,-1
 36 344 l 2,13,14
 36 379 36 379 53 402.5 c 128,-1,15
 70 426 70 426 108 426 c 0,16,0
 133 426 133 426 159 419 c 1,1,-1
EndSplineSet
Validated: 1
EndChar

StartChar: t
Encoding: 116 116 232
Width: 159
VWidth: 659
GlyphClass: 2
Flags: W
AnchorPoint: "Anchor-1" 96 0 basechar 0
AnchorPoint: "Anchor-0" 0 0 basechar 0
LayerCount: 2
Back
Fore
SplineSet
150 248 m 1,0,-1
 106 248 l 1,1,-1
 106 77 l 2,2,3
 106 65 106 65 112.5 58.5 c 128,-1,4
 119 52 119 52 130 52 c 2,5,-1
 150 52 l 1,6,-1
 150 0 l 1,7,8
 127 -7 127 -7 108 -7 c 0,9,10
 70 -7 70 -7 53 16.5 c 128,-1,11
 36 40 36 40 36 75 c 2,12,-1
 36 248 l 1,13,-1
 5 248 l 1,14,-1
 5 306 l 1,15,-1
 36 306 l 1,16,-1
 47 393 l 1,17,-1
 106 393 l 1,18,-1
 106 306 l 1,19,-1
 150 306 l 1,20,-1
 150 248 l 1,0,-1
EndSplineSet
Validated: 1
EndChar

StartChar: tbar
Encoding: 359 359 233
Width: 159
VWidth: 659
GlyphClass: 2
Flags: W
LayerCount: 2
Back
Fore
SplineSet
150 306 m 1,0,-1
 150 248 l 1,1,-1
 106 248 l 1,2,-1
 106 204 l 1,3,-1
 148 204 l 1,4,-1
 148 153 l 1,5,-1
 106 153 l 1,6,-1
 106 77 l 2,7,8
 106 65 106 65 112.5 58.5 c 128,-1,9
 119 52 119 52 130 52 c 2,10,-1
 150 52 l 1,11,-1
 150 0 l 1,12,13
 127 -7 127 -7 108 -7 c 0,14,15
 70 -7 70 -7 53 16.5 c 128,-1,16
 36 40 36 40 36 75 c 2,17,-1
 36 153 l 1,18,-1
 7 153 l 1,19,-1
 7 204 l 1,20,-1
 36 204 l 1,21,-1
 36 248 l 1,22,-1
 5 248 l 1,23,-1
 5 306 l 1,24,-1
 36 306 l 1,25,-1
 47 393 l 1,26,-1
 106 393 l 1,27,-1
 106 306 l 1,28,-1
 150 306 l 1,0,-1
EndSplineSet
Validated: 1
EndChar

StartChar: tcaron
Encoding: 357 357 234
Width: 229
VWidth: 659
GlyphClass: 2
Flags: W
LayerCount: 2
Back
Fore
SplineSet
182 248 m 1,0,-1
 207 320 l 1,1,-1
 175 320 l 1,2,-1
 175 399 l 1,3,-1
 255 399 l 1,4,-1
 255 327 l 1,5,-1
 223 248 l 1,6,-1
 182 248 l 1,0,-1
150 248 m 1,7,-1
 106 248 l 1,8,-1
 106 77 l 2,9,10
 106 65 106 65 112.5 58.5 c 128,-1,11
 119 52 119 52 130 52 c 2,12,-1
 150 52 l 1,13,-1
 150 0 l 1,14,15
 127 -7 127 -7 108 -7 c 0,16,17
 70 -7 70 -7 53 16.5 c 128,-1,18
 36 40 36 40 36 75 c 2,19,-1
 36 248 l 1,20,-1
 5 248 l 1,21,-1
 5 306 l 1,22,-1
 36 306 l 1,23,-1
 47 393 l 1,24,-1
 106 393 l 1,25,-1
 106 306 l 1,26,-1
 150 306 l 1,27,-1
 150 248 l 1,7,-1
EndSplineSet
Validated: 1
EndChar

